SplineFontDB: 3.0
FontName: Hirmos
FullName: Hirmos
FamilyName: Hirmos
Weight: Book
Copyright: Copyright (c) Vladislav V. Dorosh, Calmius Software, 2007-2008. All rights reserved.\n\nCopyright (c) Pavel A. Skrylev, 2009. All rights reserved.
Version: 000.500
ItalicAngle: 0
UnderlinePosition: -39
UnderlineWidth: 7
Ascent: 819
Descent: 205
LayerCount: 2
Layer: 0 1 "+BBcEMAQ0BD0EOAQ5 +BD8EOwQwBD0A"  1
Layer: 1 1 "+BB8ENQRABDUENAQ9BDgEOQAA +BD8EOwQwBD0A"  0
NeedsXUIDChange: 1
XUID: [1021 535 545739686 6183264]
FSType: 0
OS2Version: 1
OS2_WeightWidthSlopeOnly: 0
OS2_UseTypoMetrics: 1
CreationTime: 1249988326
ModificationTime: 1279048149
PfmFamily: 17
TTFWeight: 400
TTFWidth: 5
LineGap: 92
VLineGap: 0
Panose: 2 0 5 3 0 0 0 0 0 0
OS2TypoAscent: 0
OS2TypoAOffset: 1
OS2TypoDescent: 0
OS2TypoDOffset: 1
OS2TypoLinegap: 92
OS2WinAscent: 0
OS2WinAOffset: 1
OS2WinDescent: 0
OS2WinDOffset: 1
HheadAscent: 0
HheadAOffset: 1
HheadDescent: 0
HheadDOffset: 1
OS2SubXSize: 665
OS2SubYSize: 716
OS2SubXOff: 0
OS2SubYOff: 143
OS2SupXSize: 665
OS2SupYSize: 716
OS2SupXOff: 0
OS2SupYOff: 491
OS2StrikeYSize: 51
OS2StrikeYPos: 265
OS2FamilyClass: 256
OS2Vendor: 'calm'
OS2CodePages: 00000004.00000000
OS2UnicodeRanges: 80000243.10000004.00000000.00000000
Lookup: 260 0 0 "Mark to base attachment +BEEEPwRABDAEMgQ6BDAA 0"  {"+BCEEQwQxBEIEMAQxBDsEOARGBDAA Mark to base attachment +BEEEPwRABDAEMgQ6BDAA 0"  } []
Lookup: 262 0 0 "Mark to Mark attachment +BEEEPwRABDAEMgQ6BDAA 1"  {"+BCEEQwQxBEIEMAQxBDsEOARGBDAA Mark to Mark attachment +BEEEPwRABDAEMgQ6BDAA 1"  } []
Lookup: 258 0 0 "+BB8EMARABD0EPgQ1 +BEAEMAQ3BDwENQRJBDUEPQQ4BDUA (+BDoENQRABD0EOAQ9BDMA) +BEEEPwRABDAEMgQ6BDAA 2"  {"+BCEEQwQxBEIEMAQxBDsEOARGBDAA +BB8EMARABD0EPgQ1 +BEAEMAQ3BDwENQRJBDUEPQQ4BDUA (+BDoENQRABD0EOAQ9BDMA) +BEEEPwRABDAEMgQ6BDAA 2"  } ['    ' ('DFLT' <'dflt' > 'cyrl' <'dflt' > 'latn' <'dflt' > ) ]
DEI: 91125
TtTable: prep
PUSHW_1
 511
SCANCTRL
SVTCA[y-axis]
MPPEM
PUSHB_1
 8
LT
IF
PUSHB_2
 1
 1
INSTCTRL
EIF
PUSHB_2
 70
 6
CALL
IF
POP

StartChar: .notdef
Encoding: 65536 -1 0
Width: 374
Flags: W
LayerCount: 2
Fore
SplineSet
34 0 m 1,0,-1
 34 682 l 1,1,-1
 306 682 l 1,2,-1
 306 0 l 1,3,-1
 34 0 l 1,0,-1
68 34 m 1,4,-1
 272 34 l 1,5,-1
 272 648 l 1,6,-1
 68 648 l 1,7,-1
 68 34 l 1,4,-1
EndSplineSet
EndChar

StartChar: exclam
Encoding: 33 33 4
Width: 227
GlyphClass: 2
Flags: W
LayerCount: 2
Fore
SplineSet
60.5 112.5 m 128,-1,1
 81 134 81 134 111.5 134 c 128,-1,2
 142 134 142 134 162.5 113.5 c 128,-1,3
 183 93 183 93 183 63.5 c 128,-1,4
 183 34 183 34 163 13 c 128,-1,5
 143 -8 143 -8 113.5 -8 c 128,-1,6
 84 -8 84 -8 61 12 c 1,7,8
 40 32 40 32 40 61.5 c 128,-1,0
 40 91 40 91 60.5 112.5 c 128,-1,1
119 182 m 0,9,10
 119 179 119 179 112.5 179 c 128,-1,11
 106 179 106 179 106 182 c 2,12,-1
 76 476 l 1,13,-1
 57 633 l 2,14,15
 50 688 50 688 40 752 c 0,16,17
 39 757 39 757 42.5 763.5 c 128,-1,18
 46 770 46 770 51.5 770 c 128,-1,19
 57 770 57 770 106.5 766.5 c 128,-1,20
 156 763 156 763 162.5 761.5 c 128,-1,21
 169 760 169 760 169 752 c 128,-1,22
 169 744 169 744 168 739 c 128,-1,23
 167 734 167 734 162 680 c 2,24,-1
 153 586 l 2,25,26
 139 450 139 450 134 378.5 c 128,-1,27
 129 307 129 307 124 248 c 128,-1,28
 119 189 119 189 119 182 c 0,9,10
EndSplineSet
EndChar

StartChar: quotedbl
Encoding: 34 34 5
Width: 417
GlyphClass: 2
Flags: W
LayerCount: 2
Fore
SplineSet
49 517 m 0,0,1
 44 517 44 517 44 520.5 c 128,-1,2
 44 524 44 524 56.5 536.5 c 128,-1,3
 69 549 69 549 91 590 c 128,-1,4
 113 631 113 631 113 662 c 0,5,6
 113 711 113 711 76 720 c 0,7,8
 72 721 72 721 65.5 721 c 128,-1,9
 59 721 59 721 41.5 714.5 c 128,-1,10
 24 708 24 708 12.5 694.5 c 128,-1,11
 1 681 1 681 -3.5 681 c 128,-1,12
 -8 681 -8 681 -8 683.5 c 128,-1,13
 -8 686 -8 686 4 707.5 c 128,-1,14
 16 729 16 729 28 745 c 0,15,16
 55 779 55 779 93 794 c 0,17,18
 103 798 103 798 112 798 c 0,19,20
 142 798 142 798 158 764 c 0,21,22
 168 743 168 743 168 704 c 128,-1,23
 168 665 168 665 156.5 631.5 c 128,-1,24
 145 598 145 598 103.5 557.5 c 128,-1,25
 62 517 62 517 49 517 c 0,0,1
284 517 m 0,26,27
 279 517 279 517 279 520 c 128,-1,28
 279 523 279 523 296 548 c 0,29,30
 347 618 347 618 347 662 c 0,31,32
 347 684 347 684 331 711 c 0,33,34
 325 721 325 721 306 721 c 0,35,36
 269 721 269 721 241 689 c 0,37,38
 234 681 234 681 230.5 681 c 128,-1,39
 227 681 227 681 227 684 c 0,40,41
 228 701 228 701 252 731 c 0,42,43
 304 798 304 798 345 798 c 1,44,-1
 361 795 l 1,45,46
 403 779 403 779 403 702.5 c 128,-1,47
 403 626 403 626 338 558 c 0,48,49
 299 517 299 517 284 517 c 0,26,27
EndSplineSet
EndChar

StartChar: quotesingle
Encoding: 39 39 6
Width: 260
GlyphClass: 2
Flags: W
LayerCount: 2
Fore
SplineSet
111 751 m 1,0,1
 137 785 137 785 171.5 785 c 128,-1,2
 206 785 206 785 206 766 c 0,3,4
 206 758 206 758 200 750 c 2,5,-1
 46 561 l 2,6,7
 40 554 40 554 31 554 c 2,8,-1
 14 554 l 2,9,10
 -1 554 -1 554 -1 562 c 1,11,12
 0 566 0 566 3 571 c 2,13,-1
 104 741 l 1,14,15
 109 746 109 746 111 751 c 1,0,1
EndSplineSet
EndChar

StartChar: parenleft
Encoding: 40 40 7
Width: 326
GlyphClass: 2
Flags: W
LayerCount: 2
Fore
SplineSet
371 -444 m 1,0,1
 237 -425 237 -425 139 -188 c 0,2,3
 51 27 51 27 51 289.5 c 128,-1,4
 51 552 51 552 136 773 c 0,5,6
 195 924 195 924 279 998 c 0,7,8
 322 1036 322 1036 371 1048 c 1,9,-1
 371 1024 l 1,10,11
 222 976 222 976 182 625 c 0,12,13
 169 508 169 508 169 327 c 2,14,-1
 169 292 l 2,15,16
 169 52 169 52 210 -147 c 0,17,18
 239 -289 239 -289 299 -362 c 0,19,20
 330 -400 330 -400 371 -414 c 1,21,-1
 371 -444 l 1,0,1
EndSplineSet
EndChar

StartChar: parenright
Encoding: 41 41 8
Width: 326
GlyphClass: 2
Flags: W
LayerCount: 2
Fore
SplineSet
-45 -414 m 1,0,1
 147 -351 147 -351 157 292 c 1,2,-1
 157 339 l 2,3,4
 157 717 157 717 84 886 c 0,5,6
 36 997 36 997 -45 1024 c 1,7,-1
 -45 1048 l 1,8,9
 49 1026 49 1026 126 903 c 0,10,11
 196 793 196 793 235 628 c 128,-1,12
 274 463 274 463 274 307 c 2,13,-1
 274 257 l 2,14,15
 274 215 274 215 264 132 c 0,16,17
 242 -38 242 -38 186 -183 c 0,18,19
 157 -258 157 -258 123 -311 c 0,20,21
 46 -431 46 -431 -45 -444 c 1,22,-1
 -45 -414 l 1,0,1
EndSplineSet
EndChar

StartChar: asterisk
Encoding: 42 42 9
Width: 396
GlyphClass: 2
Flags: W
LayerCount: 2
Fore
SplineSet
287 517 m 1,0,-1
 334 422 l 1,1,-1
 239 468 l 1,2,-1
 203 370 l 1,3,-1
 168 468 l 1,4,-1
 75 422 l 1,5,-1
 120 517 l 1,6,-1
 22 552 l 1,7,-1
 118 587 l 1,8,-1
 73 681 l 1,9,-1
 168 635 l 1,10,-1
 203 733 l 1,11,-1
 239 635 l 1,12,-1
 334 681 l 1,13,-1
 287 587 l 1,14,-1
 385 552 l 1,15,-1
 287 517 l 1,0,-1
264 578 m 1,16,-1
 299 647 l 1,17,-1
 228 614 l 1,18,-1
 203 685 l 1,19,-1
 177 613 l 1,20,-1
 108 646 l 1,21,-1
 140 578 l 1,22,-1
 70 552 l 1,23,-1
 141 525 l 1,24,-1
 108 456 l 1,25,-1
 177 489 l 1,26,-1
 203 418 l 1,27,-1
 228 489 l 1,28,-1
 299 456 l 1,29,-1
 264 525 l 1,30,-1
 337 552 l 1,31,-1
 264 578 l 1,16,-1
EndSplineSet
EndChar

StartChar: comma
Encoding: 44 44 10
Width: 311
GlyphClass: 2
Flags: W
LayerCount: 2
Fore
SplineSet
230 -58 m 1,0,1
 193 -123 193 -123 127 -162 c 0,2,3
 106 -174 106 -174 100.5 -174 c 128,-1,4
 95 -174 95 -174 95 -168.5 c 128,-1,5
 95 -163 95 -163 118 -148.5 c 128,-1,6
 141 -134 141 -134 162 -96.5 c 128,-1,7
 183 -59 183 -59 183 -23.5 c 128,-1,8
 183 12 183 12 164.5 32 c 128,-1,9
 146 52 146 52 118 52 c 128,-1,10
 90 52 90 52 48 10 c 0,11,12
 43 5 43 5 37.5 6.5 c 128,-1,13
 32 8 32 8 32 11.5 c 128,-1,14
 32 15 32 15 33 17 c 0,15,16
 60 73 60 73 92 104 c 1,17,18
 138 151 138 151 183 151 c 0,19,20
 211 151 211 151 227 134 c 0,21,22
 258 103 258 103 258 46 c 128,-1,23
 258 -11 258 -11 230 -58 c 1,0,1
EndSplineSet
EndChar

StartChar: hyphen
Encoding: 45 45 11
Width: 306
GlyphClass: 2
Flags: HWO
LayerCount: 2
Fore
SplineSet
251 289 m 5,0,1
 271 280 271 280 271 252 c 5,2,-1
 267 244 l 5,3,4
 82 173 82 173 69 173 c 5,5,-1
 59 172 l 6,6,7
 53 172 53 172 44 185 c 132,-1,8
 35 198 35 198 35 207.5 c 132,-1,9
 35 217 35 217 42 220 c 6,10,-1
 235 288 l 5,11,-1
 251 289 l 5,0,1
EndSplineSet
EndChar

StartChar: period
Encoding: 46 46 12
Width: 221
GlyphClass: 2
Flags: W
LayerCount: 2
Fore
SplineSet
107.5 127 m 128,-1,1
 137 127 137 127 158.5 105.5 c 128,-1,2
 180 84 180 84 180 54.5 c 128,-1,3
 180 25 180 25 158.5 3.5 c 128,-1,4
 137 -18 137 -18 107.5 -18 c 128,-1,5
 78 -18 78 -18 56.5 3.5 c 128,-1,6
 35 25 35 25 35 54.5 c 128,-1,7
 35 84 35 84 56.5 105.5 c 128,-1,0
 78 127 78 127 107.5 127 c 128,-1,1
EndSplineSet
EndChar

StartChar: slash
Encoding: 47 47 13
Width: 414
GlyphClass: 2
Flags: W
LayerCount: 2
Fore
SplineSet
6 -361 m 1,0,-1
 -54 -361 l 1,1,-1
 371 962 l 1,2,-1
 431 962 l 1,3,-1
 6 -361 l 1,0,-1
EndSplineSet
EndChar

StartChar: colon
Encoding: 58 58 14
Width: 282
GlyphClass: 2
Flags: W
LayerCount: 2
Fore
SplineSet
145 -12 m 2,0,1
 141 -17 141 -17 137 -12 c 2,2,-1
 68 70 l 2,3,4
 63 75 63 75 68 79 c 1,5,-1
 137 160 l 2,6,7
 141 164 141 164 145 160 c 2,8,-1
 218 79 l 2,9,10
 221 75 221 75 218 72 c 2,11,-1
 145 -12 l 2,0,1
145 260 m 2,12,13
 141 255 141 255 137 260 c 2,14,-1
 68 342 l 2,15,16
 63 347 63 347 68 351 c 1,17,-1
 137 432 l 2,18,19
 141 436 141 436 145 432 c 2,20,-1
 218 351 l 2,21,22
 221 347 221 347 218 344 c 2,23,-1
 145 260 l 2,12,13
EndSplineSet
EndChar

StartChar: semicolon
Encoding: 59 59 15
Width: 304
GlyphClass: 2
Flags: W
LayerCount: 2
Fore
SplineSet
135 368 m 128,-1,1
 165 368 165 368 186 347 c 128,-1,2
 207 326 207 326 207 296 c 128,-1,3
 207 266 207 266 186 245 c 128,-1,4
 165 224 165 224 136.5 224 c 128,-1,5
 108 224 108 224 85.5 245 c 128,-1,6
 63 266 63 266 63 296 c 128,-1,7
 63 326 63 326 84 347 c 128,-1,0
 105 368 105 368 135 368 c 128,-1,1
44 8 m 0,8,9
 34 8 34 8 34 26 c 0,10,11
 34 57 34 57 79.5 104 c 128,-1,12
 125 151 125 151 167 151 c 128,-1,13
 209 151 209 151 229.5 116 c 128,-1,14
 250 81 250 81 250 45 c 0,15,16
 250 -25 250 -25 212.5 -82 c 128,-1,17
 175 -139 175 -139 128 -163 c 0,18,19
 122 -166 122 -166 118.5 -166 c 128,-1,20
 115 -166 115 -166 112.5 -162.5 c 128,-1,21
 110 -159 110 -159 115 -154 c 0,22,23
 138 -132 138 -132 154 -90.5 c 128,-1,24
 170 -49 170 -49 170 -16 c 0,25,26
 170 44 170 44 118 44 c 0,27,28
 110 44 110 44 55 11 c 0,29,30
 50 8 50 8 44 8 c 0,8,9
EndSplineSet
EndChar

StartChar: bracketleft
Encoding: 91 91 16
Width: 304
GlyphClass: 2
Flags: W
LayerCount: 2
Fore
SplineSet
69 -371 m 1,0,-1
 69 852 l 1,1,-1
 285 852 l 1,2,-1
 285 831 l 1,3,-1
 131 831 l 1,4,-1
 131 -350 l 1,5,-1
 285 -350 l 1,6,-1
 285 -371 l 1,7,-1
 69 -371 l 1,0,-1
EndSplineSet
EndChar

StartChar: bracketright
Encoding: 93 93 17
Width: 304
GlyphClass: 2
Flags: W
LayerCount: 2
Fore
SplineSet
19 -371 m 1,0,-1
 19 -350 l 1,1,-1
 173 -350 l 1,2,-1
 173 831 l 1,3,-1
 19 831 l 1,4,-1
 19 852 l 1,5,-1
 236 852 l 1,6,-1
 236 -371 l 1,7,-1
 19 -371 l 1,0,-1
EndSplineSet
EndChar

StartChar: grave
Encoding: 96 96 18
Width: 235
GlyphClass: 2
Flags: W
LayerCount: 2
Fore
SplineSet
146 469 m 128,-1,1
 157 458 157 458 157 454 c 128,-1,2
 157 450 157 450 152 451 c 0,3,4
 138 453 138 453 85.5 505 c 128,-1,5
 33 557 33 557 33 634.5 c 128,-1,6
 33 712 33 712 74 730 c 0,7,8
 81 733 81 733 95.5 733 c 128,-1,9
 110 733 110 733 150.5 702.5 c 128,-1,10
 191 672 191 672 207 625 c 0,11,12
 208 622 208 622 208 619 c 128,-1,13
 208 616 208 616 203.5 616 c 128,-1,14
 199 616 199 616 187.5 629.5 c 128,-1,15
 176 643 176 643 158 649.5 c 128,-1,16
 140 656 140 656 134 656 c 2,17,-1
 124 656 l 1,18,19
 89 648 89 648 89 596 c 0,20,21
 89 566 89 566 112 523 c 128,-1,0
 135 480 135 480 146 469 c 128,-1,1
EndSplineSet
EndChar

StartChar: guillemotleft
Encoding: 171 171 19
Width: 491
GlyphClass: 2
Flags: W
LayerCount: 2
Fore
SplineSet
234 -5 m 1,0,-1
 49 223 l 1,1,-1
 234 447 l 1,2,-1
 261 447 l 1,3,-1
 144 223 l 1,4,-1
 261 -5 l 1,5,-1
 234 -5 l 1,0,-1
450 -5 m 1,6,-1
 261 223 l 1,7,-1
 450 447 l 1,8,-1
 478 447 l 1,9,-1
 362 223 l 1,10,-1
 478 -5 l 1,11,-1
 450 -5 l 1,6,-1
EndSplineSet
EndChar

StartChar: logicalnot
Encoding: 172 172 20
Width: 408
GlyphClass: 2
Flags: W
LayerCount: 2
Fore
SplineSet
376 289 m 1,0,-1
 376 93 l 1,1,-1
 317 93 l 1,2,-1
 317 228 l 1,3,-1
 37 228 l 1,4,-1
 37 289 l 1,5,-1
 376 289 l 1,0,-1
EndSplineSet
EndChar

StartChar: defis
Encoding: 173 173 21
Width: 408
GlyphClass: 2
Flags: W
LayerCount: 2
Fore
SplineSet
36 195 m 1,0,-1
 36 250 l 1,1,-1
 377 250 l 1,2,-1
 377 195 l 1,3,-1
 36 195 l 1,0,-1
EndSplineSet
EndChar

StartChar: paragraph
Encoding: 182 182 22
Width: 628
GlyphClass: 2
Flags: W
LayerCount: 2
Fore
SplineSet
36 539 m 1,0,-1
 35 568 l 1,1,-1
 35 582 l 2,2,3
 35 587 35 587 36 584 c 1,4,5
 38 651 38 651 91 712 c 0,6,7
 140 769 140 769 241 775 c 1,8,-1
 323 775 l 1,9,-1
 323 -284 l 1,10,-1
 241 -284 l 1,11,-1
 241 360 l 1,12,13
 153 361 153 361 98 418 c 1,14,15
 48 472 48 472 36 539 c 1,0,-1
406 775 m 1,16,-1
 488 775 l 1,17,-1
 488 -284 l 1,18,-1
 406 -284 l 1,19,-1
 406 775 l 1,16,-1
EndSplineSet
EndChar

StartChar: periodcentered
Encoding: 183 183 23
Width: 162
GlyphClass: 2
Flags: W
LayerCount: 2
Fore
SplineSet
38 220 m 0,0,1
 38 240 38 240 51.5 253 c 128,-1,2
 65 266 65 266 83 266 c 256,3,4
 101 266 101 266 114.5 253 c 128,-1,5
 128 240 128 240 128 220 c 0,6,7
 128 201 128 201 114.5 187.5 c 128,-1,8
 101 174 101 174 83 174 c 256,9,10
 65 174 65 174 51.5 187.5 c 128,-1,11
 38 201 38 201 38 220 c 0,0,1
EndSplineSet
EndChar

StartChar: guillemotright
Encoding: 187 187 24
Width: 491
GlyphClass: 2
Flags: W
LayerCount: 2
Fore
SplineSet
257 447 m 1,0,-1
 442 221 l 1,1,-1
 257 -5 l 1,2,-1
 230 -5 l 1,3,-1
 347 221 l 1,4,-1
 230 447 l 1,5,-1
 257 447 l 1,0,-1
42 447 m 1,6,-1
 230 221 l 1,7,-1
 42 -5 l 1,8,-1
 13 -5 l 1,9,-1
 129 221 l 1,10,-1
 13 447 l 1,11,-1
 42 447 l 1,6,-1
EndSplineSet
EndChar

StartChar: oslash
Encoding: 248 248 25
Width: 381
GlyphClass: 2
Flags: W
LayerCount: 2
Fore
SplineSet
57 139 m 1,0,1
 8 189 8 189 8 261 c 128,-1,2
 8 333 8 333 57 383.5 c 128,-1,3
 106 434 106 434 179 434 c 128,-1,4
 252 434 252 434 302.5 383.5 c 128,-1,5
 353 333 353 333 353 261 c 128,-1,6
 353 189 353 189 301.5 139 c 128,-1,7
 250 89 250 89 180 89 c 128,-1,8
 110 89 110 89 57 139 c 1,0,1
95 154 m 1,9,10
 132 123 132 123 185 123 c 128,-1,11
 238 123 238 123 278 163.5 c 128,-1,12
 318 204 318 204 318 256 c 128,-1,13
 318 308 318 308 289 346 c 1,14,-1
 95 154 l 1,9,10
263 370 m 1,15,16
 229 399 229 399 176 399 c 128,-1,17
 123 399 123 399 82.5 358.5 c 128,-1,18
 42 318 42 318 42 260 c 0,19,20
 42 219 42 219 70 177 c 1,21,-1
 263 370 l 1,15,16
EndSplineSet
EndChar

StartChar: nadcherk
Encoding: 772 772 26
Width: 0
GlyphClass: 2
Flags: W
LayerCount: 2
Fore
SplineSet
-413 609 m 1,0,-1
 -75 609 l 1,1,-1
 -75 550 l 1,2,-1
 -413 550 l 1,3,-1
 -413 609 l 1,0,-1
EndSplineSet
EndChar

StartChar: krstkost
Encoding: 774 774 27
Width: 0
GlyphClass: 2
Flags: W
LayerCount: 2
Fore
SplineSet
-321 635 m 128,-1,1
 -321 674 -321 674 -309 703.5 c 128,-1,2
 -297 733 -297 733 -286.5 738.5 c 128,-1,3
 -276 744 -276 744 -272 744 c 128,-1,4
 -268 744 -268 744 -268 740.5 c 128,-1,5
 -268 737 -268 737 -270 734 c 0,6,7
 -283 716 -283 716 -283 681 c 128,-1,8
 -283 646 -283 646 -261 624.5 c 128,-1,9
 -239 603 -239 603 -216.5 603 c 128,-1,10
 -194 603 -194 603 -172.5 615 c 128,-1,11
 -151 627 -151 627 -136 654.5 c 128,-1,12
 -121 682 -121 682 -121 711 c 2,13,-1
 -121 729 l 2,14,15
 -121 752 -121 752 -109 752 c 0,16,17
 -88 752 -88 752 -88 709 c 2,18,-1
 -88 694 l 2,19,20
 -88 668 -88 668 -105 619.5 c 128,-1,21
 -122 571 -122 571 -168 545 c 0,22,23
 -187 534 -187 534 -197 534 c 2,24,-1
 -223 534 l 2,25,26
 -270 534 -270 534 -295.5 565 c 128,-1,0
 -321 596 -321 596 -321 635 c 128,-1,1
EndSplineSet
EndChar

StartChar: krapka
Encoding: 775 775 28
Width: 0
GlyphClass: 2
Flags: W
LayerCount: 2
Fore
SplineSet
-76 541 m 1,0,1
 -98 535 -98 535 -122 535 c 128,-1,2
 -146 535 -146 535 -163 539 c 1,3,4
 -172 559 -172 559 -175.5 598 c 128,-1,5
 -179 637 -179 637 -179 648 c 1,6,7
 -155 652 -155 652 -137 652 c 0,8,9
 -108 652 -108 652 -92 650 c 1,10,11
 -82 619 -82 619 -79.5 584.5 c 128,-1,12
 -77 550 -77 550 -76 541 c 1,0,1
EndSplineSet
EndChar

StartChar: dvokrapka
Encoding: 776 776 29
Width: 0
GlyphClass: 2
Flags: W
LayerCount: 2
Fore
SplineSet
-139 547 m 1,0,1
 -163 541 -163 541 -186.5 541 c 128,-1,2
 -210 541 -210 541 -226 545 c 1,3,4
 -229 552 -229 552 -232 566 c 2,5,-1
 -237 596 l 2,6,7
 -243 626 -243 626 -243 654 c 1,8,9
 -217 658 -217 658 -194.5 658 c 128,-1,10
 -172 658 -172 658 -156 656 c 1,11,12
 -144 621 -144 621 -142 588.5 c 128,-1,13
 -140 556 -140 556 -139 547 c 1,0,1
-280 541 m 1,14,15
 -302 535 -302 535 -326 535 c 128,-1,16
 -350 535 -350 535 -367 539 c 1,17,18
 -376 559 -376 559 -379.5 598 c 128,-1,19
 -383 637 -383 637 -383 648 c 1,20,21
 -359 652 -359 652 -335.5 652 c 128,-1,22
 -312 652 -312 652 -296 650 c 1,23,24
 -286 619 -286 619 -283.5 584.5 c 128,-1,25
 -281 550 -281 550 -280 541 c 1,14,15
EndSplineSet
EndChar

StartChar: dvoinoje_ostroje_udarenije
Encoding: 779 779 30
Width: 0
GlyphClass: 2
Flags: W
LayerCount: 2
Fore
SplineSet
-401 543 m 2,0,1
 -401 543 -401 543 -336 687 c 1,2,3
 -322 689 -322 689 -291.5 689 c 128,-1,4
 -261 689 -261 689 -261 682 c 0,5,6
 -261 681 -261 681 -262 679 c 2,7,-1
 -326 536 l 1,8,9
 -334 534 -334 534 -343 532 c 1,10,-1
 -362 532 l 2,11,12
 -389 532 -389 532 -396 535 c 128,-1,13
 -403 538 -403 538 -401 543 c 2,0,1
-246 538 m 2,14,-1
 -180 682 l 1,15,16
 -173 683 -173 683 -164 684 c 1,17,-1
 -127 684 l 2,18,19
 -111 684 -111 684 -107 681 c 128,-1,20
 -103 678 -103 678 -106 674 c 1,21,-1
 -170 530 l 1,22,23
 -182 527 -182 527 -208 527 c 128,-1,24
 -234 527 -234 527 -241 529.5 c 128,-1,25
 -248 532 -248 532 -246 538 c 2,14,-1
EndSplineSet
EndChar

StartChar: dvoinoje_tupoje_udarenije
Encoding: 783 783 31
Width: 0
GlyphClass: 2
Flags: W
LayerCount: 2
Fore
SplineSet
-97 543 m 2,0,1
 -97 542 -97 542 -97 541 c 0,2,3
 -97 532 -97 532 -136 532 c 2,4,-1
 -156 532 l 1,5,6
 -165 534 -165 534 -173 536 c 1,7,-1
 -237 679 l 2,8,9
 -238 681 -238 681 -234.5 685 c 128,-1,10
 -231 689 -231 689 -204 689 c 128,-1,11
 -177 689 -177 689 -163 687 c 1,12,-1
 -97 543 l 2,0,1
-253 538 m 2,13,14
 -251 532 -251 532 -257.5 529.5 c 128,-1,15
 -264 527 -264 527 -290 527 c 128,-1,16
 -316 527 -316 527 -329 530 c 1,17,-1
 -392 674 l 1,18,19
 -395 678 -395 678 -393 680 c 0,20,21
 -387 684 -387 684 -375 684 c 2,22,-1
 -335 684 l 1,23,24
 -326 683 -326 683 -318 682 c 1,25,-1
 -253 538 l 2,13,14
EndSplineSet
EndChar

StartChar: tupoje_udarenije
Encoding: 832 832 32
Width: 0
GlyphClass: 4
Flags: W
AnchorPoint: "+BBEENQQ3BEsEPARPBD0EPQQ+BDUA--0" -22 516 mark 0
LayerCount: 2
Fore
SplineSet
-42 551 m 1,0,-1
 -201 779 l 2,1,2
 -203 781 -203 781 -200.5 784.5 c 128,-1,3
 -198 788 -198 788 -195 788 c 2,4,-1
 -123 783 l 1,5,-1
 -2 560 l 2,6,7
 -1 558 -1 558 -2 554.5 c 128,-1,8
 -3 551 -3 551 -6 551 c 2,9,-1
 -42 551 l 1,0,-1
EndSplineSet
EndChar

StartChar: ostroje_udarenije
Encoding: 833 833 33
Width: 0
GlyphClass: 4
Flags: W
AnchorPoint: "+BBEENQQ3BEsEPARPBD0EPQQ+BDUA--1" -147 500 mark 0
LayerCount: 2
Fore
SplineSet
-163 528 m 2,0,1
 -166 528 -166 528 -167.5 531 c 128,-1,2
 -169 534 -169 534 -167 538 c 2,3,-1
 -46 752 l 1,4,-1
 22 756 l 2,5,6
 25 756 25 756 27.5 752.5 c 128,-1,7
 30 749 30 749 28 745 c 2,8,-1
 -129 528 l 1,9,-1
 -163 528 l 2,0,1
EndSplineSet
EndChar

StartChar: Dzelo
Encoding: 1029 1029 34
Width: 719
GlyphClass: 2
Flags: W
LayerCount: 2
Fore
SplineSet
514 766 m 2,0,1
 517 774 517 774 522 774 c 2,2,3
 522 774 522 774 529 774 c 0,4,5
 539 774 539 774 539 763 c 0,6,7
 539 760 539 760 529 742 c 128,-1,8
 519 724 519 724 515.5 706 c 128,-1,9
 512 688 512 688 504 656 c 0,10,11
 501 644 501 644 489.5 644 c 128,-1,12
 478 644 478 644 478 651.5 c 128,-1,13
 478 659 478 659 485 685 c 1,14,15
 449 722 449 722 391 737 c 0,16,17
 380 740 380 740 366 740 c 0,18,19
 311 740 311 740 270 706.5 c 128,-1,20
 229 673 229 673 229 620.5 c 128,-1,21
 229 568 229 568 265 528 c 128,-1,22
 301 488 301 488 343.5 488 c 128,-1,23
 386 488 386 488 425.5 507 c 128,-1,24
 465 526 465 526 479 538 c 1,25,-1
 499 553 l 2,26,27
 503 556 503 556 507 556 c 0,28,29
 518 556 518 556 518 542 c 0,30,31
 518 537 518 537 513 532 c 2,32,-1
 306 371 l 1,33,34
 365 392 365 392 438 392 c 0,35,36
 664 392 664 392 664 190 c 0,37,38
 664 83 664 83 592 33 c 0,39,40
 534 -8 534 -8 435 -8 c 128,-1,41
 336 -8 336 -8 222 88 c 0,42,43
 196 111 196 111 169 111 c 1,44,45
 176 95 176 95 176 75 c 128,-1,46
 176 55 176 55 157.5 31 c 128,-1,47
 139 7 139 7 110.5 7 c 128,-1,48
 82 7 82 7 58.5 25 c 128,-1,49
 35 43 35 43 35 70.5 c 128,-1,50
 35 98 35 98 46 116 c 1,51,52
 46 118 46 118 47 118.5 c 128,-1,53
 48 119 48 119 49 120.5 c 128,-1,54
 50 122 50 122 50.5 123 c 128,-1,55
 51 124 51 124 53 126 c 0,56,57
 82 159 82 159 120 159 c 128,-1,58
 158 159 158 159 189.5 142.5 c 128,-1,59
 221 126 221 126 238 111 c 1,60,61
 268 81 268 81 318 66 c 128,-1,62
 368 51 368 51 418.5 51 c 128,-1,63
 469 51 469 51 502 83 c 128,-1,64
 535 115 535 115 535 191 c 128,-1,65
 535 267 535 267 488.5 310 c 128,-1,66
 442 353 442 353 368.5 353 c 128,-1,67
 295 353 295 353 231 308 c 2,68,-1
 207 291 l 2,69,70
 201 287 201 287 196 287 c 0,71,72
 183 287 183 287 183 301 c 0,73,74
 183 306 183 306 188 310 c 2,75,-1
 383 463 l 1,76,77
 347 452 347 452 307 452 c 0,78,79
 223 452 223 452 168 494.5 c 128,-1,80
 113 537 113 537 113 617.5 c 128,-1,81
 113 698 113 698 164 747.5 c 128,-1,82
 215 797 215 797 299 797 c 0,83,84
 345 797 345 797 392.5 777 c 128,-1,85
 440 757 440 757 467 730 c 0,86,87
 470 727 470 727 478 727 c 128,-1,88
 486 727 486 727 505 745 c 1,89,90
 507 751 507 751 510 756 c 2,91,-1
 514 766 l 2,0,1
EndSplineSet
EndChar

StartChar: Az
Encoding: 1040 1040 36
Width: 581
GlyphClass: 2
Flags: W
LayerCount: 2
Fore
SplineSet
131 304 m 1,0,1
 86 322 86 322 86 375 c 0,2,3
 86 442 86 442 190 500 c 2,4,-1
 254 535 l 2,5,6
 295 557 295 557 318 586.5 c 128,-1,7
 341 616 341 616 341 644 c 2,8,-1
 341 646 l 1,9,10
 310 696 310 696 263 696 c 0,11,12
 259 696 259 696 256 695.5 c 128,-1,13
 253 695 253 695 250 695 c 1,14,15
 255 692 255 692 258 688 c 1,16,-1
 266 681 l 1,17,18
 280 665 280 665 280 637 c 128,-1,19
 280 609 280 609 252 589 c 0,20,21
 238 578 238 578 210 578 c 128,-1,22
 182 578 182 578 166.5 597.5 c 128,-1,23
 151 617 151 617 151 644 c 128,-1,24
 151 671 151 671 173 691 c 0,25,26
 174 691 174 691 183.5 698.5 c 128,-1,27
 193 706 193 706 216 713.5 c 128,-1,28
 239 721 239 721 272.5 721 c 128,-1,29
 306 721 306 721 333 696.5 c 128,-1,30
 360 672 360 672 375 638 c 1,31,-1
 375 764 l 1,32,-1
 313 764 l 1,33,-1
 313 788 l 1,34,-1
 559 788 l 1,35,-1
 559 764 l 1,36,-1
 498 764 l 1,37,-1
 498 25 l 1,38,-1
 559 25 l 1,39,-1
 559 0 l 1,40,-1
 313 0 l 1,41,-1
 313 25 l 1,42,-1
 375 25 l 1,43,-1
 375 472 l 1,44,45
 364 439 364 439 334 397 c 128,-1,46
 304 355 304 355 260 329 c 128,-1,47
 216 303 216 303 173 299 c 1,48,49
 198 291 198 291 211.5 270.5 c 128,-1,50
 225 250 225 250 225 237 c 0,51,52
 225 191 225 191 200.5 171 c 128,-1,53
 176 151 176 151 146 150 c 1,54,-1
 146 137 l 2,55,56
 146 102 146 102 164 76 c 0,57,58
 197 25 197 25 220 25 c 2,59,-1
 255 25 l 1,60,-1
 255 0 l 1,61,-1
 19 0 l 1,62,-1
 19 25 l 1,63,-1
 48 25 l 2,64,65
 76 25 76 25 97.5 65.5 c 128,-1,66
 119 106 119 106 119 141 c 2,67,-1
 119 153 l 1,68,69
 92 160 92 160 75.5 182.5 c 128,-1,70
 59 205 59 205 59 233.5 c 128,-1,71
 59 262 59 262 80.5 282 c 128,-1,72
 102 302 102 302 131 304 c 1,0,1
177 379 m 0,73,74
 177 344 177 344 213 344 c 0,75,76
 236 344 236 344 254 357 c 0,77,78
 365 436 365 436 365 566 c 0,79,80
 365 580 365 580 359 600 c 1,81,82
 348 561 348 561 314 527 c 128,-1,83
 280 493 280 493 248 467 c 0,84,85
 177 409 177 409 177 379 c 0,73,74
EndSplineSet
EndChar

StartChar: Buky
Encoding: 1041 1041 37
Width: 643
GlyphClass: 2
Flags: W
LayerCount: 2
Fore
SplineSet
241 516 m 1,0,1
 309 458 309 458 411 416 c 0,2,3
 423 411 423 411 438 408 c 2,4,-1
 475 402 l 2,5,6
 509 397 509 397 537 396 c 0,7,8
 546 396 546 396 546 386 c 2,9,-1
 546 25 l 1,10,-1
 587 25 l 1,11,-1
 587 0 l 1,12,-1
 56 0 l 1,13,-1
 56 25 l 1,14,-1
 118 25 l 1,15,-1
 118 764 l 1,16,-1
 56 764 l 1,17,-1
 56 788 l 1,18,-1
 500 788 l 2,19,20
 509 788 509 788 509 782 c 128,-1,21
 509 776 509 776 498 766 c 0,22,23
 456 729 456 729 437 618 c 0,24,25
 435 608 435 608 426 608 c 128,-1,26
 417 608 417 608 415 618 c 1,27,28
 411 660 411 660 391 696.5 c 128,-1,29
 371 733 371 733 356 748.5 c 128,-1,30
 341 764 341 764 326 764 c 2,31,-1
 241 764 l 1,32,-1
 241 516 l 1,0,1
321 431 m 1,33,-1
 278 458 l 2,34,35
 258 470 258 470 241 484 c 1,36,-1
 241 25 l 1,37,-1
 423 25 l 1,38,-1
 423 378 l 1,39,-1
 321 431 l 1,33,-1
EndSplineSet
EndChar

StartChar: Vede
Encoding: 1042 1042 38
Width: 624
GlyphClass: 2
Flags: W
LayerCount: 2
Fore
SplineSet
56 25 m 1,0,-1
 118 25 l 1,1,-1
 118 624 l 2,2,3
 118 691 118 691 163.5 730 c 128,-1,4
 209 769 209 769 288 790 c 0,5,6
 315 797 315 797 346 797 c 0,7,8
 420 797 420 797 482.5 762 c 128,-1,9
 545 727 545 727 545 662 c 0,10,11
 545 616 545 616 513.5 585 c 128,-1,12
 482 554 482 554 439 554 c 0,13,14
 417 554 417 554 395.5 561.5 c 128,-1,15
 374 569 374 569 347 575 c 1,16,-1
 258 411 l 1,17,18
 295 374 295 374 354 337 c 1,19,20
 442 280 442 280 540 280 c 2,21,-1
 568 280 l 1,22,-1
 568 255 l 1,23,-1
 532 255 l 1,24,-1
 532 25 l 1,25,-1
 568 25 l 1,26,-1
 568 0 l 1,27,-1
 56 0 l 1,28,-1
 56 25 l 1,0,-1
342 314 m 2,29,30
 293 344 293 344 241 391 c 1,31,-1
 241 25 l 1,32,-1
 420 25 l 1,33,-1
 420 270 l 1,34,35
 400 279 400 279 381 290 c 2,36,-1
 342 314 l 2,29,30
330 597 m 2,37,38
 333 602 333 602 341 602 c 2,39,-1
 343 602 l 1,40,41
 354 600 354 600 366.5 597 c 128,-1,42
 379 594 379 594 390 594 c 0,43,44
 419 594 419 594 434.5 613 c 128,-1,45
 450 632 450 632 450 658 c 2,46,-1
 450 683 l 2,47,48
 450 727 450 727 419.5 751.5 c 128,-1,49
 389 776 389 776 354 776 c 0,50,51
 297 776 297 776 269 735 c 128,-1,52
 241 694 241 694 241 640 c 2,53,-1
 241 432 l 1,54,-1
 330 597 l 2,37,38
EndSplineSet
EndChar

StartChar: Glagol
Encoding: 1043 1043 39
Width: 491
GlyphClass: 2
Flags: W
LayerCount: 2
Fore
SplineSet
429 613 m 2,0,1
 429 606 429 606 423.5 606 c 128,-1,2
 418 606 418 606 409 612.5 c 128,-1,3
 400 619 400 619 371 669.5 c 128,-1,4
 342 720 342 720 326 764 c 1,5,-1
 241 764 l 1,6,-1
 241 25 l 1,7,-1
 302 25 l 1,8,-1
 302 0 l 1,9,-1
 56 0 l 1,10,-1
 56 25 l 1,11,-1
 118 25 l 1,12,-1
 118 764 l 1,13,-1
 56 764 l 1,14,-1
 56 788 l 1,15,-1
 460 788 l 2,16,17
 465 788 465 788 465.5 782 c 128,-1,18
 466 776 466 776 463 771 c 0,19,20
 427 719 427 719 427 641 c 1,21,-1
 429 613 l 2,0,1
EndSplineSet
EndChar

StartChar: Dobro
Encoding: 1044 1044 40
Width: 665
GlyphClass: 2
Flags: W
LayerCount: 2
Fore
SplineSet
337 667 m 2,0,-1
 343 667 l 1,1,2
 408 662 408 662 431 617 c 1,3,-1
 431 764 l 1,4,-1
 370 764 l 1,5,-1
 370 788 l 1,6,-1
 615 788 l 1,7,-1
 615 764 l 1,8,-1
 554 764 l 1,9,-1
 554 25 l 1,10,-1
 637 25 l 2,11,12
 646 25 646 25 646 14 c 128,-1,13
 646 3 646 3 645 0 c 2,14,-1
 611 -73 l 2,15,16
 593 -114 593 -114 583 -152 c 0,17,18
 581 -157 581 -157 578 -157 c 0,19,20
 569 -157 569 -157 553 -123 c 2,21,-1
 514 -41 l 1,22,23
 514 -41 514 -41 496 0 c 1,24,-1
 170 0 l 1,25,26
 170 0 170 0 113 -123 c 1,27,28
 94 -157 94 -157 89 -157 c 128,-1,29
 84 -157 84 -157 83 -152 c 0,30,31
 75 -123 75 -123 53.5 -73 c 128,-1,32
 32 -23 32 -23 25 -9.5 c 128,-1,33
 18 4 18 4 18 14.5 c 128,-1,34
 18 25 18 25 29 25 c 2,35,-1
 114 25 l 1,36,37
 103 66 103 66 103 124 c 0,38,39
 103 262 103 262 255 389 c 2,40,-1
 337 457 l 2,41,42
 371 484 371 484 392.5 517 c 128,-1,43
 414 550 414 550 414 574 c 128,-1,44
 414 598 414 598 401 615 c 1,45,46
 403 609 403 609 403 604 c 2,47,-1
 403 592 l 1,48,49
 401 564 401 564 380.5 547.5 c 128,-1,50
 360 531 360 531 332.5 531 c 128,-1,51
 305 531 305 531 286.5 552.5 c 128,-1,52
 268 574 268 574 268 603.5 c 128,-1,53
 268 633 268 633 290 650 c 128,-1,54
 312 667 312 667 337 667 c 2,0,-1
230 25 m 1,55,-1
 431 25 l 1,56,-1
 431 535 l 1,57,58
 420 507 420 507 398.5 483.5 c 128,-1,59
 377 460 377 460 354 428 c 2,60,-1
 301 351 l 2,61,62
 245 269 245 269 229.5 217 c 128,-1,63
 214 165 214 165 214 110.5 c 128,-1,64
 214 56 214 56 230 25 c 1,55,-1
EndSplineSet
EndChar

StartChar: Est
Encoding: 1045 1045 41
Width: 675
GlyphClass: 2
Flags: W
LayerCount: 2
Fore
SplineSet
390 626 m 2,0,1
 379 626 379 626 379 638 c 128,-1,2
 379 650 379 650 388 650 c 2,3,-1
 455 654 l 1,4,5
 456 663 456 663 456 675 c 0,6,7
 456 712 456 712 422.5 743 c 128,-1,8
 389 774 389 774 337 774 c 0,9,10
 245 774 245 774 207 709 c 0,11,12
 182 666 182 666 182 566 c 0,13,14
 182 530 182 530 190 487 c 1,15,-1
 210 395 l 1,16,17
 303 505 303 505 373 539 c 0,18,19
 409 556 409 556 445 556 c 2,20,-1
 462 556 l 2,21,22
 476 556 476 556 500 546 c 128,-1,23
 524 536 524 536 543 520 c 0,24,25
 582 487 582 487 592 451 c 0,26,27
 607 394 607 394 607 350 c 0,28,29
 607 345 607 345 607 340 c 1,30,-1
 630 341 l 2,31,32
 640 341 640 341 640 328.5 c 128,-1,33
 640 316 640 316 630 316 c 2,34,-1
 440 312 l 2,35,36
 430 312 430 312 430 324.5 c 128,-1,37
 430 337 430 337 440 337 c 2,38,-1
 488 338 l 1,39,40
 488 379 488 379 482 411 c 128,-1,41
 476 443 476 443 452.5 463.5 c 128,-1,42
 429 484 429 484 402 484 c 0,43,44
 352 484 352 484 305 447 c 1,45,-1
 262 411 l 1,46,-1
 216 367 l 1,47,48
 233 270 233 270 233 108 c 0,49,50
 233 84 233 84 227 59 c 128,-1,51
 221 34 221 34 213 22 c 1,52,53
 242 17 242 17 267 17 c 128,-1,54
 292 17 292 17 322.5 33 c 128,-1,55
 353 49 353 49 377 74 c 0,56,57
 427 126 427 126 429 180 c 1,58,-1
 379 196 l 2,59,60
 371 198 371 198 371 203 c 2,61,-1
 371 206 l 2,62,63
 371 220 371 220 383 220 c 0,64,65
 384 220 384 220 385 220 c 2,66,-1
 599 158 l 2,67,68
 607 155 607 155 607 148 c 2,69,-1
 607 145 l 2,70,71
 607 132 607 132 596 132 c 0,72,73
 595 132 595 132 593 133 c 2,74,-1
 553 144 l 1,75,76
 532 89 532 89 445 40.5 c 128,-1,77
 358 -8 358 -8 261.5 -8 c 128,-1,78
 165 -8 165 -8 162 4 c 0,79,80
 161 8 161 8 161 14 c 128,-1,81
 161 20 161 20 170.5 39.5 c 128,-1,82
 180 59 180 59 180 101 c 128,-1,83
 180 143 180 143 152 204 c 1,84,-1
 128 254 l 2,85,86
 116 278 116 278 106 301 c 1,87,-1
 86 357 l 2,88,89
 56 440 56 440 56 510 c 0,90,91
 56 638 56 638 139 717.5 c 128,-1,92
 222 797 222 797 338 797 c 0,93,94
 501 797 501 797 555 712 c 0,95,96
 571 687 571 687 580 662 c 1,97,-1
 618 665 l 2,98,99
 629 665 629 665 629 652.5 c 128,-1,100
 629 640 629 640 621 640 c 2,101,-1
 390 626 l 2,0,1
EndSplineSet
EndChar

StartChar: Zhivete
Encoding: 1046 1046 42
Width: 983
GlyphClass: 2
Flags: W
LayerCount: 2
Fore
SplineSet
756 788 m 1,0,1
 777 800 777 800 821 800 c 128,-1,2
 865 800 865 800 888 788 c 0,3,4
 890 787 890 787 889.5 783.5 c 128,-1,5
 889 780 889 780 883 777 c 0,6,7
 856 764 856 764 849 737 c 128,-1,8
 842 710 842 710 842 677 c 2,9,-1
 842 665 l 2,10,11
 842 655 842 655 838 655 c 0,12,13
 830 656 830 656 812.5 664 c 128,-1,14
 795 672 795 672 760.5 672 c 128,-1,15
 726 672 726 672 708 654 c 128,-1,16
 690 636 690 636 676 610 c 2,17,-1
 644 553 l 2,18,19
 608 488 608 488 580 460 c 1,20,21
 638 446 638 446 696 403 c 0,22,23
 819 313 819 313 868 157 c 0,24,25
 888 94 888 94 888 34 c 2,26,-1
 888 25 l 1,27,-1
 932 25 l 1,28,-1
 932 0 l 1,29,-1
 686 0 l 1,30,-1
 686 25 l 1,31,-1
 749 25 l 1,32,33
 749 162 749 162 707 256 c 0,34,35
 666 350 666 350 602 408 c 0,36,37
 580 428 580 428 553 436 c 1,38,-1
 553 25 l 1,39,-1
 614 25 l 1,40,-1
 614 0 l 1,41,-1
 369 0 l 1,42,-1
 369 25 l 1,43,-1
 430 25 l 1,44,-1
 430 436 l 1,45,46
 382 422 382 422 337 362 c 0,47,48
 234 227 234 227 234 25 c 1,49,-1
 297 25 l 1,50,-1
 297 0 l 1,51,-1
 51 0 l 1,52,-1
 51 25 l 1,53,-1
 95 25 l 1,54,-1
 95 43 l 2,55,56
 95 92 95 92 116 162 c 128,-1,57
 137 232 137 232 183 297 c 128,-1,58
 229 362 229 362 287 404 c 128,-1,59
 345 446 345 446 402 460 c 1,60,61
 376 486 376 486 339 553 c 2,62,-1
 307 610 l 2,63,64
 293 636 293 636 275 654 c 128,-1,65
 257 672 257 672 219.5 672 c 128,-1,66
 182 672 182 672 154 657 c 0,67,68
 150 655 150 655 145.5 655 c 128,-1,69
 141 655 141 655 141 665 c 2,70,-1
 141 690 l 2,71,72
 141 708 141 708 135 734 c 128,-1,73
 129 760 129 760 100 777 c 0,74,75
 95 780 95 780 95 788.5 c 128,-1,76
 95 797 95 797 101 797 c 1,77,78
 112 799 112 799 123 799 c 2,79,-1
 170 799 l 1,80,81
 207 798 207 798 226 788 c 1,82,83
 299 754 299 754 344 621 c 0,84,85
 377 526 377 526 430 476 c 1,86,-1
 430 764 l 1,87,-1
 369 764 l 1,88,-1
 369 788 l 1,89,-1
 614 788 l 1,90,-1
 614 764 l 1,91,-1
 553 764 l 1,92,-1
 553 476 l 1,93,94
 607 530 607 530 639 623 c 0,95,96
 683 751 683 751 756 788 c 1,0,1
EndSplineSet
EndChar

StartChar: Zemlja
Encoding: 1047 1047 43
Width: 750
GlyphClass: 2
Flags: W
LayerCount: 2
Fore
SplineSet
105 139 m 2,0,-1
 118 139 l 2,1,2
 142 139 142 139 184 115 c 2,3,-1
 259 71 l 2,4,5
 337 25 337 25 404.5 25 c 128,-1,6
 472 25 472 25 518 84 c 128,-1,7
 564 143 564 143 564 215 c 128,-1,8
 564 287 564 287 538.5 334 c 128,-1,9
 513 381 513 381 468 392 c 1,10,11
 464 390 464 390 455 390 c 2,12,-1
 449 390 l 1,13,14
 403 373 403 373 379 352 c 1,15,-1
 325 308 l 2,16,17
 321 305 321 305 317 305 c 1,18,-1
 310 308 l 1,19,-1
 260 352 l 2,20,21
 252 359 252 359 211 400 c 0,22,23
 208 403 208 403 208 409 c 128,-1,24
 208 415 208 415 244 444 c 2,25,-1
 306 496 l 2,26,27
 313 502 313 502 317.5 502 c 128,-1,28
 322 502 322 502 379 467 c 128,-1,29
 436 432 436 432 453 427 c 1,30,31
 531 464 531 464 531 586 c 2,32,-1
 531 610 l 2,33,34
 531 627 531 627 517.5 659 c 128,-1,35
 504 691 504 691 479 712 c 0,36,37
 425 758 425 758 360 758 c 128,-1,38
 295 758 295 758 241 707 c 0,39,40
 234 700 234 700 174 610 c 0,41,42
 170 604 170 604 164.5 604 c 128,-1,43
 159 604 159 604 157 613 c 128,-1,44
 155 622 155 622 155 697 c 128,-1,45
 155 772 155 772 162 801 c 0,46,47
 163 805 163 805 170.5 805 c 128,-1,48
 178 805 178 805 179 801 c 0,49,50
 188 738 188 738 211 722 c 1,51,52
 266 768 266 768 350 788 c 0,53,54
 384 797 384 797 421.5 797 c 128,-1,55
 459 797 459 797 504.5 783 c 128,-1,56
 550 769 550 769 585 743 c 0,57,58
 663 685 663 685 663 594 c 0,59,60
 663 465 663 465 529 411 c 1,61,62
 643 376 643 376 683 287 c 0,63,64
 698 253 698 253 698 202.5 c 128,-1,65
 698 152 698 152 678 111 c 0,66,67
 618 -8 618 -8 452 -8 c 0,68,69
 356 -8 356 -8 277.5 33 c 128,-1,70
 199 74 199 74 164 80 c 1,71,72
 165 75 165 75 165 66 c 0,73,74
 165 27 165 27 133 0 c 0,75,76
 116 -14 116 -14 94 -14 c 0,77,78
 59 -14 59 -14 43 11 c 128,-1,79
 27 36 27 36 27 51 c 0,80,81
 28 96 28 96 57 123 c 1,82,83
 76 139 76 139 105 139 c 2,0,-1
EndSplineSet
EndChar

StartChar: Izhe
Encoding: 1048 1048 44
Width: 686
GlyphClass: 2
Flags: W
LayerCount: 2
Fore
SplineSet
56 0 m 1,0,-1
 56 25 l 1,1,-1
 118 25 l 1,2,-1
 118 764 l 1,3,-1
 56 764 l 1,4,-1
 56 788 l 1,5,-1
 302 788 l 1,6,-1
 302 764 l 1,7,-1
 241 764 l 1,8,-1
 241 408 l 1,9,-1
 445 507 l 1,10,-1
 445 764 l 1,11,-1
 384 764 l 1,12,-1
 384 788 l 1,13,-1
 630 788 l 1,14,-1
 630 764 l 1,15,-1
 568 764 l 1,16,-1
 568 25 l 1,17,-1
 630 25 l 1,18,-1
 630 0 l 1,19,-1
 384 0 l 1,20,-1
 384 25 l 1,21,-1
 445 25 l 1,22,-1
 445 479 l 1,23,-1
 241 380 l 1,24,-1
 241 25 l 1,25,-1
 302 25 l 1,26,-1
 302 0 l 1,27,-1
 56 0 l 1,0,-1
EndSplineSet
EndChar

StartChar: Kako
Encoding: 1050 1050 46
Width: 701
GlyphClass: 2
Flags: W
LayerCount: 2
Fore
SplineSet
465 25 m 1,0,1
 480 101 480 101 480 155 c 0,2,3
 480 288 480 288 439.5 339 c 128,-1,4
 399 390 399 390 353 409 c 1,5,6
 300 401 300 401 241 399 c 1,7,-1
 241 25 l 1,8,-1
 302 25 l 1,9,-1
 302 0 l 1,10,-1
 56 0 l 1,11,-1
 56 25 l 1,12,-1
 118 25 l 1,13,-1
 118 764 l 1,14,-1
 56 764 l 1,15,-1
 56 788 l 1,16,-1
 302 788 l 1,17,-1
 302 764 l 1,18,-1
 241 764 l 1,19,-1
 241 424 l 1,20,21
 330 427 330 427 369 447 c 1,22,23
 388 458 388 458 400 476 c 0,24,25
 457 561 457 561 457 673 c 0,26,27
 457 728 457 728 445 764 c 1,28,-1
 387 764 l 1,29,-1
 387 788 l 1,30,-1
 624 788 l 1,31,-1
 624 764 l 1,32,-1
 571 764 l 1,33,34
 574 736 574 736 574 640 c 0,35,36
 574 471 574 471 409 421 c 1,37,38
 511 404 511 404 555.5 339 c 128,-1,39
 600 274 600 274 600 184 c 2,40,-1
 600 143 l 1,41,-1
 598 92 l 1,42,-1
 596 25 l 1,43,-1
 645 25 l 1,44,-1
 645 0 l 1,45,-1
 408 0 l 1,46,-1
 408 25 l 1,47,-1
 465 25 l 1,0,1
EndSplineSet
EndChar

StartChar: Ljudi
Encoding: 1051 1051 47
Width: 680
GlyphClass: 2
Flags: W
LayerCount: 2
Fore
SplineSet
266 246 m 1,0,1
 230 170 230 170 230 85 c 0,2,3
 230 47 230 47 253 25 c 1,4,-1
 301 25 l 1,5,-1
 301 0 l 1,6,-1
 41 0 l 1,7,-1
 41 25 l 1,8,-1
 105 25 l 1,9,10
 94 53 94 53 94 92 c 0,11,12
 94 192 94 192 227 331 c 1,13,-1
 323 421 l 1,14,15
 376 474 376 474 403.5 535.5 c 128,-1,16
 431 597 431 597 440 651 c 1,17,-1
 440 764 l 1,18,-1
 379 764 l 1,19,-1
 379 788 l 1,20,-1
 625 788 l 1,21,-1
 625 764 l 1,22,-1
 563 764 l 1,23,-1
 563 25 l 1,24,-1
 625 25 l 1,25,-1
 625 0 l 1,26,-1
 379 0 l 1,27,-1
 379 25 l 1,28,-1
 440 25 l 1,29,-1
 440 551 l 1,30,31
 420 498 420 498 387 450 c 2,32,-1
 352 398 l 2,33,34
 322 354 322 354 301 314 c 2,35,-1
 266 246 l 1,0,1
EndSplineSet
EndChar

StartChar: Myslete
Encoding: 1052 1052 48
Width: 933
GlyphClass: 2
Flags: W
LayerCount: 2
Fore
SplineSet
98 25 m 1,0,1
 82 46 82 46 82 94 c 0,2,3
 82 176 82 176 110.5 236.5 c 128,-1,4
 139 297 139 297 205 374 c 0,5,6
 222 394 222 394 241 413 c 2,7,-1
 274 446 l 2,8,9
 346 518 346 518 366 586 c 0,10,11
 375 618 375 618 380 654 c 1,12,-1
 380 764 l 1,13,-1
 318 764 l 1,14,-1
 318 788 l 1,15,-1
 564 788 l 1,16,-1
 564 764 l 1,17,-1
 503 764 l 1,18,-1
 503 186 l 1,19,-1
 693 624 l 1,20,-1
 693 764 l 1,21,-1
 632 764 l 1,22,-1
 632 788 l 1,23,-1
 878 788 l 1,24,-1
 878 764 l 1,25,-1
 816 764 l 1,26,-1
 816 25 l 1,27,-1
 878 25 l 1,28,-1
 878 0 l 1,29,-1
 632 0 l 1,30,-1
 632 25 l 1,31,-1
 693 25 l 1,32,-1
 693 559 l 1,33,-1
 503 122 l 1,34,-1
 503 25 l 1,35,-1
 564 25 l 1,36,-1
 564 0 l 1,37,-1
 318 0 l 1,38,-1
 318 25 l 1,39,-1
 380 25 l 1,40,-1
 380 543 l 1,41,42
 357 479 357 479 306.5 390.5 c 128,-1,43
 256 302 256 302 232.5 241 c 128,-1,44
 209 180 209 180 209 127.5 c 128,-1,45
 209 75 209 75 239 38 c 0,46,47
 247 28 247 28 255 25 c 1,48,-1
 294 25 l 1,49,-1
 294 0 l 1,50,-1
 41 0 l 1,51,-1
 41 25 l 1,52,-1
 98 25 l 1,0,1
EndSplineSet
EndChar

StartChar: Nash
Encoding: 1053 1053 49
Width: 685
GlyphClass: 2
Flags: W
LayerCount: 2
Fore
SplineSet
56 0 m 1,0,-1
 56 25 l 1,1,-1
 118 25 l 1,2,-1
 118 764 l 1,3,-1
 56 764 l 1,4,-1
 56 788 l 1,5,-1
 302 788 l 1,6,-1
 302 764 l 1,7,-1
 241 764 l 1,8,-1
 241 431 l 1,9,-1
 444 381 l 1,10,-1
 444 764 l 1,11,-1
 383 764 l 1,12,-1
 383 788 l 1,13,-1
 629 788 l 1,14,-1
 629 764 l 1,15,-1
 567 764 l 1,16,-1
 567 25 l 1,17,-1
 629 25 l 1,18,-1
 629 0 l 1,19,-1
 383 0 l 1,20,-1
 383 25 l 1,21,-1
 444 25 l 1,22,-1
 444 355 l 1,23,-1
 241 406 l 1,24,-1
 241 25 l 1,25,-1
 302 25 l 1,26,-1
 302 0 l 1,27,-1
 56 0 l 1,0,-1
EndSplineSet
EndChar

StartChar: On
Encoding: 1054 1054 50
Width: 628
GlyphClass: 2
Flags: W
LayerCount: 2
Fore
SplineSet
392 797 m 2,0,1
 404 797 404 797 404 786 c 2,2,-1
 404 744 l 2,3,4
 404 692 404 692 477 604 c 0,5,6
 505 570 505 570 528.5 527.5 c 128,-1,7
 552 485 552 485 562 454 c 128,-1,8
 572 423 572 423 572 369 c 0,9,10
 572 221 572 221 469 115 c 0,11,12
 396 40 396 40 346 18 c 128,-1,13
 296 -4 296 -4 256 -8 c 0,14,15
 251 -9 251 -9 247 -5.5 c 128,-1,16
 243 -2 243 -2 243 2 c 2,17,-1
 243 31 l 2,18,19
 243 66 243 66 181 150 c 1,20,-1
 152 191 l 1,21,22
 56 322 56 322 56 428 c 0,23,24
 56 492 56 492 73.5 537.5 c 128,-1,25
 91 583 91 583 117 623 c 0,26,27
 191 737 191 737 296 780 c 0,28,29
 336 797 336 797 382 797 c 2,30,-1
 392 797 l 2,0,1
439 322 m 0,31,32
 439 395 439 395 432.5 442 c 128,-1,33
 426 489 426 489 411.5 542.5 c 128,-1,34
 397 596 397 596 388 635 c 128,-1,35
 379 674 379 674 379 712 c 2,36,-1
 379 771 l 1,37,38
 303 769 303 769 249 724 c 0,39,40
 225 705 225 705 209.5 618.5 c 128,-1,41
 194 532 194 532 194 465 c 0,42,43
 194 311 194 311 207 244.5 c 128,-1,44
 220 178 220 178 240 129 c 2,45,-1
 253 96 l 2,46,47
 267 60 267 60 267 41 c 2,48,-1
 267 18 l 1,49,50
 324 23 324 23 386 75 c 1,51,52
 439 151 439 151 439 322 c 0,31,32
EndSplineSet
EndChar

StartChar: Pokoj
Encoding: 1055 1055 51
Width: 706
GlyphClass: 2
Flags: W
LayerCount: 2
Fore
SplineSet
241 25 m 1,0,-1
 302 25 l 1,1,-1
 302 0 l 1,2,-1
 56 0 l 1,3,-1
 56 25 l 1,4,-1
 118 25 l 1,5,-1
 118 764 l 1,6,-1
 56 764 l 1,7,-1
 56 788 l 1,8,-1
 650 788 l 1,9,-1
 650 764 l 1,10,-1
 589 764 l 1,11,-1
 589 25 l 1,12,-1
 650 25 l 1,13,-1
 650 0 l 1,14,-1
 404 0 l 1,15,-1
 404 25 l 1,16,-1
 466 25 l 1,17,-1
 466 764 l 1,18,-1
 241 764 l 1,19,-1
 241 25 l 1,0,-1
EndSplineSet
EndChar

StartChar: Rtsy
Encoding: 1056 1056 52
Width: 631
GlyphClass: 2
Flags: W
LayerCount: 2
Fore
SplineSet
347 486 m 1,0,-1
 225 342 l 1,1,-1
 225 25 l 1,2,-1
 287 25 l 1,3,-1
 287 0 l 1,4,-1
 41 0 l 1,5,-1
 41 25 l 1,6,-1
 102 25 l 1,7,-1
 102 630 l 2,8,9
 102 672 102 672 133 694 c 0,10,11
 273 797 273 797 378.5 797 c 128,-1,12
 484 797 484 797 545 750 c 128,-1,13
 606 703 606 703 606 626.5 c 128,-1,14
 606 550 606 550 567 498.5 c 128,-1,15
 528 447 528 447 465 447 c 128,-1,16
 402 447 402 447 347 486 c 1,0,-1
349 515 m 1,17,-1
 353 514 l 1,18,19
 380 493 380 493 402 493 c 0,20,21
 442 493 442 493 465.5 536.5 c 128,-1,22
 489 580 489 580 489 617 c 0,23,24
 489 687 489 687 458 726.5 c 128,-1,25
 427 766 427 766 364 766 c 0,26,27
 332 766 332 766 300 750 c 0,28,29
 236 717 236 717 227 688 c 0,30,31
 225 679 225 679 225 670 c 2,32,-1
 225 380 l 1,33,-1
 338 513 l 2,34,35
 341 517 341 517 344 517 c 128,-1,36
 347 517 347 517 349 515 c 1,17,-1
EndSplineSet
EndChar

StartChar: Slovo
Encoding: 1057 1057 53
Width: 643
GlyphClass: 2
Flags: W
LayerCount: 2
Fore
SplineSet
607 331 m 128,-1,1
 607 318 607 318 597 318 c 2,2,-1
 575 318 l 1,3,4
 569 215 569 215 505 129 c 0,5,6
 474 88 474 88 426.5 53 c 128,-1,7
 379 18 379 18 301 -1 c 0,8,9
 281 -6 281 -6 229 -6 c 0,10,11
 213 -6 213 -6 213 10 c 1,12,-1
 217 45 l 1,13,14
 217 95 217 95 194 136.5 c 128,-1,15
 171 178 171 178 135 223 c 0,16,17
 56 322 56 322 56 441.5 c 128,-1,18
 56 561 56 561 133 668 c 0,19,20
 168 716 168 716 221.5 756.5 c 128,-1,21
 275 797 275 797 330 797 c 1,22,-1
 351 794 l 1,23,24
 429 773 429 773 493 701.5 c 128,-1,25
 557 630 557 630 565 555 c 1,26,-1
 588 555 l 2,27,28
 598 555 598 555 598 542 c 128,-1,29
 598 529 598 529 588 529 c 2,30,-1
 385 529 l 2,31,32
 374 529 374 529 374 542 c 128,-1,33
 374 555 374 555 385 555 c 2,34,-1
 437 555 l 1,35,36
 426 668 426 668 375 735 c 0,37,38
 359 756 359 756 343 765.5 c 128,-1,39
 327 775 327 775 323 775 c 0,40,41
 306 773 306 773 300 770 c 0,42,43
 248 743 248 743 220.5 650.5 c 128,-1,44
 193 558 193 558 193 446 c 128,-1,45
 193 334 193 334 219 225 c 2,46,-1
 230 180 l 2,47,48
 246 117 246 117 249 52 c 1,49,-1
 248 30 l 2,50,51
 248 25 248 25 249 19 c 1,52,53
 254 18 254 18 260 18 c 0,54,55
 315 24 315 24 338 43 c 0,56,57
 431 123 431 123 441 286 c 1,58,-1
 441 318 l 1,59,-1
 394 318 l 2,60,61
 383 318 383 318 383 331 c 128,-1,62
 383 344 383 344 394 344 c 2,63,-1
 597 344 l 2,64,0
 607 344 607 344 607 331 c 128,-1,1
EndSplineSet
EndChar

StartChar: Tverdo
Encoding: 1058 1058 54
Width: 733
GlyphClass: 2
Flags: W
LayerCount: 2
Fore
SplineSet
698 788 m 2,0,1
 706 788 706 788 706 779.5 c 128,-1,2
 706 771 706 771 701 769 c 0,3,4
 667 752 667 752 641 694 c 0,5,6
 630 670 630 670 622.5 637.5 c 128,-1,7
 615 605 615 605 615 595 c 128,-1,8
 615 585 615 585 610.5 585 c 128,-1,9
 606 585 606 585 604 589 c 2,10,-1
 586 635 l 1,11,12
 553 713 553 713 519 764 c 1,13,-1
 427 764 l 1,14,-1
 427 25 l 1,15,-1
 488 25 l 1,16,-1
 488 0 l 1,17,-1
 243 0 l 1,18,-1
 243 25 l 1,19,-1
 304 25 l 1,20,-1
 304 764 l 1,21,-1
 212 764 l 1,22,23
 183 725 183 725 145 635 c 1,24,-1
 127 589 l 2,25,26
 125 585 125 585 120.5 585 c 128,-1,27
 116 585 116 585 116 588 c 2,28,-1
 116 597 l 2,29,30
 116 604 116 604 109 637 c 0,31,32
 86 741 86 741 30 769 c 0,33,34
 26 771 26 771 26 779.5 c 128,-1,35
 26 788 26 788 33 788 c 2,36,-1
 698 788 l 2,0,1
EndSplineSet
EndChar

StartChar: Fert
Encoding: 1060 1060 55
Width: 862
GlyphClass: 2
Flags: W
LayerCount: 2
Fore
SplineSet
584 127 m 0,0,1
 537 127 537 127 493 151 c 1,2,-1
 493 25 l 1,3,-1
 554 25 l 1,4,-1
 554 0 l 1,5,-1
 308 0 l 1,6,-1
 308 25 l 1,7,-1
 370 25 l 1,8,-1
 370 151 l 1,9,10
 323 127 323 127 278 127 c 0,11,12
 177 127 177 127 116.5 175 c 128,-1,13
 56 223 56 223 56 305.5 c 128,-1,14
 56 388 56 388 124 449 c 1,15,16
 154 474 154 474 189.5 496 c 128,-1,17
 225 518 225 518 258.5 541 c 128,-1,18
 292 564 292 564 320 585.5 c 128,-1,19
 348 607 348 607 370 635 c 1,20,-1
 370 764 l 1,21,-1
 308 764 l 1,22,-1
 308 788 l 1,23,-1
 554 788 l 1,24,-1
 554 764 l 1,25,-1
 493 764 l 1,26,-1
 493 635 l 1,27,28
 513 607 513 607 542 586 c 2,29,-1
 603 542 l 2,30,31
 637 518 637 518 673 496 c 128,-1,32
 709 474 709 474 738 449 c 0,33,34
 806 388 806 388 806 304 c 128,-1,35
 806 220 806 220 741 172 c 1,36,37
 683 127 683 127 584 127 c 0,0,1
493 177 m 1,38,39
 537 162 537 162 569 162 c 0,40,41
 626 162 626 162 650.5 206 c 128,-1,42
 675 250 675 250 675 295.5 c 128,-1,43
 675 341 675 341 661 380 c 128,-1,44
 647 419 647 419 602 471 c 1,45,-1
 525 557 l 2,46,47
 507 578 507 578 493 598 c 1,48,-1
 493 177 l 1,38,39
242 174 m 0,49,50
 261 162 261 162 293.5 162 c 128,-1,51
 326 162 326 162 370 177 c 1,52,-1
 370 598 l 1,53,54
 355 578 355 578 337 557 c 2,55,-1
 260 471 l 1,56,57
 187 391 187 391 187 299.5 c 128,-1,58
 187 208 187 208 242 174 c 0,49,50
EndSplineSet
EndChar

StartChar: Kher
Encoding: 1061 1061 56
Width: 724
GlyphClass: 2
Flags: W
LayerCount: 2
Fore
SplineSet
656 616 m 0,0,1
 656 609 656 609 650.5 609 c 128,-1,2
 645 609 645 609 633 626.5 c 128,-1,3
 621 644 621 644 593.5 665 c 128,-1,4
 566 686 566 686 538 686 c 128,-1,5
 510 686 510 686 496.5 670 c 128,-1,6
 483 654 483 654 472 633 c 2,7,-1
 390 475 l 1,8,-1
 610 25 l 1,9,-1
 674 25 l 1,10,-1
 674 0 l 1,11,-1
 394 0 l 1,12,-1
 394 25 l 1,13,-1
 474 25 l 1,14,-1
 321 340 l 1,15,-1
 271 245 l 1,16,17
 298 224 298 224 298 188 c 0,18,19
 298 172 298 172 291 158 c 0,20,21
 272 120 272 120 229 120 c 0,22,23
 219 120 219 120 209 123 c 1,24,-1
 158 25 l 1,25,-1
 241 25 l 1,26,-1
 241 0 l 1,27,-1
 66 0 l 1,28,-1
 66 25 l 1,29,-1
 129 25 l 1,30,-1
 185 135 l 1,31,32
 159 157 159 157 159 191 c 0,33,34
 159 207 159 207 168.5 226.5 c 128,-1,35
 178 246 178 246 196.5 252.5 c 128,-1,36
 215 259 215 259 227 259 c 128,-1,37
 239 259 239 259 249 256 c 1,38,-1
 306 369 l 1,39,-1
 115 764 l 1,40,-1
 51 764 l 1,41,-1
 51 788 l 1,42,-1
 331 788 l 1,43,-1
 331 764 l 1,44,-1
 251 764 l 1,45,-1
 377 504 l 1,46,-1
 449 643 l 2,47,48
 458 660 458 660 469 678 c 2,49,-1
 489 713 l 1,50,51
 515 751 515 751 528 762 c 0,52,53
 565 794 565 794 619 794 c 128,-1,54
 673 794 673 794 673 778 c 0,55,56
 673 772 673 772 666 764 c 0,57,58
 640 734 640 734 640 701 c 128,-1,59
 640 668 640 668 648 643 c 128,-1,60
 656 618 656 618 656 616 c 0,0,1
EndSplineSet
EndChar

StartChar: Tsy
Encoding: 1062 1062 57
Width: 690
GlyphClass: 2
Flags: W
LayerCount: 2
Fore
SplineSet
56 0 m 1,0,-1
 56 25 l 1,1,-1
 118 25 l 1,2,-1
 118 764 l 1,3,-1
 56 764 l 1,4,-1
 56 788 l 1,5,-1
 302 788 l 1,6,-1
 302 764 l 1,7,-1
 241 764 l 1,8,-1
 241 25 l 1,9,-1
 439 25 l 1,10,-1
 439 764 l 1,11,-1
 378 764 l 1,12,-1
 378 788 l 1,13,-1
 624 788 l 1,14,-1
 624 764 l 1,15,-1
 562 764 l 1,16,-1
 562 25 l 1,17,-1
 648 25 l 1,18,-1
 648 -123 l 1,19,20
 617 -151 617 -151 528 -201 c 2,21,-1
 455 -242 l 1,22,23
 417 -261 417 -261 389 -273 c 1,24,25
 376 -263 376 -263 348 -244 c 2,26,-1
 228 -164 l 2,27,28
 198 -144 198 -144 178 -134 c 1,29,30
 163 -145 163 -145 150 -158 c 1,31,-1
 121 -181 l 1,32,33
 114 -177 114 -177 105 -163 c 1,34,35
 126 -139 126 -139 165 -108 c 2,36,-1
 203 -78 l 2,37,38
 221 -63 221 -63 237 -53 c 1,39,40
 258 -62 258 -62 291 -82 c 2,41,-1
 358 -125 l 1,42,-1
 472 -204 l 1,43,-1
 539 -166 l 1,44,-1
 539 0 l 1,45,-1
 56 0 l 1,0,-1
EndSplineSet
EndChar

StartChar: Cherv
Encoding: 1063 1063 58
Width: 684
GlyphClass: 2
Flags: W
LayerCount: 2
Fore
SplineSet
241 416 m 1,0,1
 258 410 258 410 285 399 c 2,2,-1
 333 381 l 2,3,4
 361 370 361 370 389 357 c 2,5,-1
 443 333 l 1,6,-1
 443 764 l 1,7,-1
 382 764 l 1,8,-1
 382 788 l 1,9,-1
 628 788 l 1,10,-1
 628 764 l 1,11,-1
 566 764 l 1,12,-1
 566 20 l 1,13,-1
 628 20 l 1,14,-1
 628 0 l 1,15,-1
 382 0 l 1,16,-1
 382 20 l 1,17,-1
 443 20 l 1,18,-1
 443 305 l 1,19,20
 336 361 336 361 225 379 c 1,21,22
 172 386 172 386 127 391 c 0,23,24
 118 392 118 392 118 402 c 2,25,-1
 118 764 l 1,26,-1
 56 764 l 1,27,-1
 56 788 l 1,28,-1
 302 788 l 1,29,-1
 302 764 l 1,30,-1
 241 764 l 1,31,-1
 241 416 l 1,0,1
EndSplineSet
EndChar

StartChar: Sha
Encoding: 1064 1064 59
Width: 993
GlyphClass: 2
Flags: W
LayerCount: 2
Fore
SplineSet
56 25 m 1,0,-1
 118 25 l 1,1,-1
 118 764 l 1,2,-1
 56 764 l 1,3,-1
 56 788 l 1,4,-1
 302 788 l 1,5,-1
 302 764 l 1,6,-1
 241 764 l 1,7,-1
 241 25 l 1,8,-1
 435 25 l 1,9,-1
 435 764 l 1,10,-1
 374 764 l 1,11,-1
 374 788 l 1,12,-1
 620 788 l 1,13,-1
 620 764 l 1,14,-1
 558 764 l 1,15,-1
 558 25 l 1,16,-1
 753 25 l 1,17,-1
 753 764 l 1,18,-1
 691 764 l 1,19,-1
 691 788 l 1,20,-1
 937 788 l 1,21,-1
 937 764 l 1,22,-1
 876 764 l 1,23,-1
 876 25 l 1,24,-1
 937 25 l 1,25,-1
 937 0 l 1,26,-1
 56 0 l 1,27,-1
 56 25 l 1,0,-1
EndSplineSet
EndChar

StartChar: afii10044
Encoding: 1066 1066 61
Width: 698
GlyphClass: 2
Flags: W
LayerCount: 2
Fore
SplineSet
155 609 m 2,0,1
 153 606 153 606 143 606 c 128,-1,2
 133 606 133 606 133 612 c 2,3,-1
 133 629 l 2,4,5
 133 663 133 663 121 704 c 128,-1,6
 109 745 109 745 83 764 c 0,7,8
 76 769 76 769 76 779 c 1,9,10
 77 788 77 788 90 788 c 2,11,-1
 573 788 l 1,12,-1
 573 764 l 1,13,-1
 511 764 l 1,14,-1
 379 401 l 1,15,-1
 562 401 l 1,16,-1
 562 377 l 1,17,-1
 501 377 l 1,18,-1
 585 25 l 1,19,-1
 647 25 l 1,20,-1
 647 0 l 1,21,-1
 51 0 l 1,22,-1
 51 25 l 1,23,-1
 114 25 l 1,24,-1
 382 764 l 1,25,-1
 269 764 l 1,26,27
 269 764 269 764 211 682 c 1,28,-1
 155 609 l 2,0,1
371 377 m 1,29,-1
 243 25 l 1,30,-1
 459 25 l 1,31,-1
 375 377 l 1,32,-1
 371 377 l 1,29,-1
EndSplineSet
EndChar

StartChar: Ery
Encoding: 1067 1067 62
Width: 890
GlyphClass: 2
Flags: W
LayerCount: 2
Fore
SplineSet
302 788 m 1,0,-1
 302 764 l 1,1,-1
 241 764 l 1,2,-1
 241 463 l 1,3,4
 292 424 292 424 380 387 c 0,5,6
 392 382 392 382 408 379 c 2,7,-1
 444 374 l 2,8,9
 478 369 478 369 506 368 c 0,10,11
 515 368 515 368 515 357 c 2,12,-1
 515 25 l 1,13,-1
 556 25 l 1,14,-1
 556 0 l 1,15,-1
 56 0 l 1,16,-1
 56 25 l 1,17,-1
 118 25 l 1,18,-1
 118 764 l 1,19,-1
 56 764 l 1,20,-1
 56 788 l 1,21,-1
 302 788 l 1,0,-1
589 0 m 1,22,-1
 589 25 l 1,23,-1
 650 25 l 1,24,-1
 650 764 l 1,25,-1
 589 764 l 1,26,-1
 589 788 l 1,27,-1
 835 788 l 1,28,-1
 835 764 l 1,29,-1
 773 764 l 1,30,-1
 773 25 l 1,31,-1
 835 25 l 1,32,-1
 835 0 l 1,33,-1
 589 0 l 1,22,-1
290 401 m 1,34,-1
 264 416 l 2,35,36
 252 423 252 423 241 431 c 1,37,-1
 241 25 l 1,38,-1
 392 25 l 1,39,-1
 392 348 l 1,40,-1
 290 401 l 1,34,-1
EndSplineSet
EndChar

StartChar: Ere
Encoding: 1068 1068 63
Width: 612
GlyphClass: 2
Flags: W
LayerCount: 2
Fore
SplineSet
302 788 m 1,0,-1
 302 764 l 1,1,-1
 241 764 l 1,2,-1
 241 463 l 1,3,4
 292 424 292 424 380 387 c 0,5,6
 392 382 392 382 408 379 c 2,7,-1
 444 374 l 2,8,9
 478 369 478 369 506 368 c 0,10,11
 515 368 515 368 515 357 c 2,12,-1
 515 25 l 1,13,-1
 556 25 l 1,14,-1
 556 0 l 1,15,-1
 56 0 l 1,16,-1
 56 25 l 1,17,-1
 118 25 l 1,18,-1
 118 764 l 1,19,-1
 56 764 l 1,20,-1
 56 788 l 1,21,-1
 302 788 l 1,0,-1
290 401 m 1,22,-1
 264 416 l 2,23,24
 252 423 252 423 241 431 c 1,25,-1
 241 25 l 1,26,-1
 392 25 l 1,27,-1
 392 348 l 1,28,-1
 290 401 l 1,22,-1
EndSplineSet
EndChar

StartChar: Jus
Encoding: 1070 1070 64
Width: 873
GlyphClass: 2
Flags: W
LayerCount: 2
Fore
SplineSet
56 0 m 1,0,-1
 56 25 l 1,1,-1
 118 25 l 1,2,-1
 118 764 l 1,3,-1
 56 764 l 1,4,-1
 56 788 l 1,5,-1
 302 788 l 1,6,-1
 302 764 l 1,7,-1
 241 764 l 1,8,-1
 241 434 l 1,9,-1
 354 473 l 1,10,11
 355 539 355 539 389 597.5 c 128,-1,12
 423 656 423 656 472 700 c 128,-1,13
 521 744 521 744 578.5 770.5 c 128,-1,14
 636 797 636 797 685 797 c 0,15,16
 697 797 697 797 697 784 c 0,17,18
 697 780 697 780 691.5 757 c 128,-1,19
 686 734 686 734 686 713 c 2,20,-1
 686 682 l 2,21,22
 686 658 686 658 735 598 c 128,-1,23
 784 538 784 538 805.5 482 c 128,-1,24
 827 426 827 426 827 350.5 c 128,-1,25
 827 275 827 275 795.5 199 c 128,-1,26
 764 123 764 123 710 69 c 0,27,28
 634 -7 634 -7 505 -7 c 0,29,30
 490 -7 490 -7 490 7 c 0,31,32
 490 17 490 17 494 35.5 c 128,-1,33
 498 54 498 54 498 74.5 c 128,-1,34
 498 95 498 95 489.5 115.5 c 128,-1,35
 481 136 481 136 456 172 c 0,36,37
 357 310 357 310 353 449 c 1,38,-1
 241 408 l 1,39,-1
 241 25 l 1,40,-1
 302 25 l 1,41,-1
 302 0 l 1,42,-1
 56 0 l 1,0,-1
519 18 m 1,43,44
 578 19 578 19 624.5 42 c 128,-1,45
 671 65 671 65 695 123 c 0,46,47
 711 160 711 160 711 201 c 0,48,49
 711 314 711 314 686 426 c 0,50,51
 666 519 666 519 658 616 c 0,52,53
 657 626 657 626 657 635 c 2,54,-1
 657 653 l 2,55,56
 657 724 657 724 670 771 c 1,57,58
 599 766 599 766 553.5 723.5 c 128,-1,59
 508 681 508 681 496.5 632.5 c 128,-1,60
 485 584 485 584 485 539 c 2,61,-1
 485 509 l 2,62,63
 485 410 485 410 509.5 313.5 c 128,-1,64
 534 217 534 217 534 144.5 c 128,-1,65
 534 72 534 72 519 18 c 1,43,44
EndSplineSet
EndChar

StartChar: az
Encoding: 1072 1072 65
Width: 405
GlyphClass: 2
Flags: W
LayerCount: 2
Fore
SplineSet
191 451 m 1,0,1
 191 451 191 451 233 451 c 0,2,3
 265 451 265 451 303 444 c 1,4,5
 303 371 303 371 313 282 c 1,6,-1
 322 224 l 1,7,8
 331 157 331 157 342 98 c 1,9,-1
 364 -3 l 1,10,-1
 309 -3 l 2,11,12
 288 -3 288 -3 257 3 c 1,13,14
 243 59 243 59 233 126 c 1,15,16
 179 81 179 81 156 37 c 2,17,-1
 139 3 l 1,18,19
 105 -3 105 -3 75 -3 c 2,20,-1
 59 -3 l 2,21,22
 51 -3 51 -3 44 -1 c 1,23,24
 43 8 43 8 43 17 c 0,25,26
 43 75 43 75 119 209 c 1,27,-1
 147 260 l 1,28,29
 174 305 174 305 196 378 c 1,30,31
 191 415 191 415 191 451 c 1,0,1
227 161 m 1,32,-1
 220 213 l 1,33,-1
 204 314 l 1,34,35
 183 269 183 269 152 215.5 c 128,-1,36
 121 162 121 162 98 104 c 1,37,38
 104 79 104 79 117 67 c 1,39,40
 120 66 120 66 129 67 c 128,-1,41
 138 68 138 68 142 70 c 1,42,43
 146 75 146 75 156 85 c 2,44,-1
 227 161 l 1,32,-1
EndSplineSet
EndChar

StartChar: buky
Encoding: 1073 1073 66
Width: 465
GlyphClass: 2
Flags: W
LayerCount: 2
Fore
SplineSet
383 447 m 2,0,1
 399 447 399 447 399 433 c 0,2,3
 399 429 399 429 394.5 419.5 c 128,-1,4
 390 410 390 410 387 401 c 2,5,-1
 375 362 l 1,6,-1
 370 341 l 2,7,8
 368 333 368 333 358 333 c 128,-1,9
 348 333 348 333 346 341 c 0,10,11
 334 391 334 391 302 423 c 1,12,-1
 189 423 l 1,13,14
 183 357 183 357 182 342 c 2,15,-1
 178 285 l 2,16,17
 174 227 174 227 174 216 c 128,-1,18
 174 205 174 205 173 197 c 1,19,-1
 204 203 l 1,20,-1
 297 227 l 2,21,22
 299 228 299 228 314 228 c 128,-1,23
 329 228 329 228 338 210 c 0,24,25
 389 106 389 106 412 0 c 1,26,-1
 63 0 l 1,27,-1
 63 43 l 1,28,-1
 66 173 l 2,29,30
 67 220 67 220 71 289 c 2,31,-1
 75 353 l 2,32,33
 79 411 79 411 85 447 c 1,34,-1
 383 447 l 2,0,1
171 70 m 2,35,-1
 172 25 l 1,36,-1
 305 25 l 1,37,38
 294 62 294 62 252 132 c 1,39,-1
 230 166 l 2,40,41
 225 174 225 174 218.5 174 c 128,-1,42
 212 174 212 174 209 173.5 c 128,-1,43
 206 173 206 173 195 171.5 c 128,-1,44
 184 170 184 170 173 168 c 1,45,46
 171 115 171 115 171 70 c 2,35,-1
EndSplineSet
EndChar

StartChar: vede
Encoding: 1074 1074 67
Width: 496
GlyphClass: 2
Flags: W
LayerCount: 2
Fore
SplineSet
369 447 m 2,0,1
 379 447 379 447 379 436 c 128,-1,2
 379 425 379 425 375 421 c 2,3,-1
 234 253 l 1,4,-1
 336 253 l 2,5,6
 350 253 350 253 356 238 c 2,7,-1
 442 31 l 2,8,9
 446 23 446 23 446 11.5 c 128,-1,10
 446 0 446 0 431 0 c 2,11,-1
 61 0 l 1,12,13
 61 0 61 0 61 38 c 2,14,-1
 69 351 l 1,15,16
 69 403 69 403 71 447 c 1,17,-1
 369 447 l 2,0,1
214 228 m 1,18,-1
 173 178 l 1,19,20
 172 132 172 132 172 93 c 2,21,-1
 172 25 l 1,22,-1
 323 25 l 2,23,24
 332 25 332 25 332 30.5 c 128,-1,25
 332 36 332 36 329 43 c 2,26,-1
 251 228 l 1,27,-1
 214 228 l 1,18,-1
176 422 m 1,28,-1
 176 244 l 1,29,-1
 330 422 l 1,30,-1
 176 422 l 1,28,-1
EndSplineSet
EndChar

StartChar: glagol
Encoding: 1075 1075 68
Width: 421
GlyphClass: 2
Flags: W
LayerCount: 2
Fore
SplineSet
174 137 m 128,-1,1
 174 85 174 85 184 -3 c 1,2,3
 172 -4 172 -4 141.5 -4 c 128,-1,4
 111 -4 111 -4 71 3 c 1,5,6
 67 50 67 50 67 163 c 2,7,-1
 67 205 l 1,8,9
 69 326 69 326 79 444 c 1,10,11
 203 452 203 452 385 452 c 1,12,13
 390 451 390 451 390 442.5 c 128,-1,14
 390 434 390 434 372 409.5 c 128,-1,15
 354 385 354 385 354 342 c 1,16,-1
 355 329 l 2,17,18
 355 317 355 317 344 317 c 128,-1,19
 333 317 333 317 312 344 c 128,-1,20
 291 371 291 371 272 426 c 1,21,-1
 254 426 l 1,22,-1
 185 423 l 1,23,24
 175 338 175 338 174.5 263.5 c 128,-1,0
 174 189 174 189 174 137 c 128,-1,1
EndSplineSet
EndChar

StartChar: dobro
Encoding: 1076 1076 69
Width: 440
GlyphClass: 2
Flags: W
LayerCount: 2
Fore
SplineSet
415 25 m 2,0,1
 427 25 427 25 427 9.5 c 128,-1,2
 427 -6 427 -6 423 -13 c 2,3,-1
 404 -45 l 1,4,5
 374 -101 374 -101 362 -172 c 0,6,7
 361 -178 361 -178 355 -177 c 128,-1,8
 349 -176 349 -176 344 -164.5 c 128,-1,9
 339 -153 339 -153 328.5 -83.5 c 128,-1,10
 318 -14 318 -14 317 -10 c 2,11,-1
 313 0 l 1,12,-1
 118 0 l 1,13,14
 116 -5 116 -5 116 -12 c 128,-1,15
 116 -19 116 -19 114 -29 c 2,16,-1
 103 -96 l 1,17,18
 101 -116 101 -116 96 -136.5 c 128,-1,19
 91 -157 91 -157 87 -177 c 0,20,21
 86 -182 86 -182 80 -180 c 128,-1,22
 74 -178 74 -178 73 -174 c 0,23,24
 66 -116 66 -116 53 -82 c 2,25,-1
 35 -31 l 2,26,27
 30 -15 30 -15 20 -3.5 c 128,-1,28
 10 8 10 8 10 16.5 c 128,-1,29
 10 25 10 25 20 25 c 2,30,-1
 91 25 l 1,31,32
 97 48 97 48 109 76 c 2,33,-1
 159 186 l 1,34,35
 174 215 174 215 186 272 c 2,36,-1
 193 303 l 1,37,-1
 182 387 l 2,38,39
 178 425 178 425 176 451 c 1,40,-1
 201 451 l 1,41,-1
 232 449 l 1,42,43
 270 449 270 449 289 444 c 1,44,45
 298 271 298 271 334 122 c 0,46,47
 346 69 346 69 368 25 c 1,48,-1
 415 25 l 2,0,1
256 25 m 1,49,50
 226 118 226 118 206 219 c 1,51,52
 205 218 205 218 189 189 c 0,53,54
 143 103 143 103 122 25 c 1,55,-1
 256 25 l 1,49,50
EndSplineSet
EndChar

StartChar: est
Encoding: 1077 1077 70
Width: 337
GlyphClass: 2
Flags: W
LayerCount: 2
Fore
SplineSet
265 125 m 0,0,1
 273 125 273 125 273 105 c 0,2,3
 273 103 273 103 273 101 c 0,4,5
 273 78 273 78 247.5 50.5 c 128,-1,6
 222 23 222 23 175 10.5 c 128,-1,7
 128 -2 128 -2 106.5 -2 c 128,-1,8
 85 -2 85 -2 78 -1.5 c 128,-1,9
 71 -1 71 -1 71 24 c 2,10,-1
 71 32 l 1,11,12
 73 51 73 51 73 68.5 c 128,-1,13
 73 86 73 86 64.5 141 c 128,-1,14
 56 196 56 196 56 235.5 c 128,-1,15
 56 275 56 275 60.5 312.5 c 128,-1,16
 65 350 65 350 85 379 c 1,17,18
 124 418 124 418 177 436.5 c 128,-1,19
 230 455 230 455 256.5 455 c 128,-1,20
 283 455 283 455 293 454 c 1,21,22
 295 434 295 434 295 421 c 0,23,24
 295 387 295 387 280 384 c 0,25,26
 188 366 188 366 158 329 c 1,27,-1
 154 315 l 2,28,29
 152 309 152 309 152 301 c 2,30,-1
 152 242 l 1,31,32
 201 272 201 272 280 300 c 1,33,34
 282 286 282 286 282 260 c 128,-1,35
 282 234 282 234 278 218 c 1,36,37
 208 195 208 195 154 148 c 1,38,-1
 154 78 l 1,39,40
 218 80 218 80 261 123 c 0,41,42
 263 125 263 125 265 125 c 0,0,1
EndSplineSet
EndChar

StartChar: zhivete
Encoding: 1078 1078 71
Width: 768
GlyphClass: 2
Flags: W
LayerCount: 2
Fore
SplineSet
703 447 m 1,0,1
 703 444 703 444 705 435 c 1,2,3
 670 390 670 390 670 324 c 0,4,5
 670 312 670 312 671 302 c 1,6,7
 669 298 669 298 666 300 c 0,8,9
 643 316 643 316 633 334 c 128,-1,10
 623 352 623 352 610 362 c 1,11,-1
 586 384 l 2,12,13
 574 394 574 394 568.5 394 c 128,-1,14
 563 394 563 394 552 393 c 0,15,16
 530 391 530 391 438 325 c 1,17,18
 506 290 506 290 567 249 c 0,19,20
 642 200 642 200 690 84 c 0,21,22
 711 35 711 35 711 21 c 128,-1,23
 711 7 711 7 709 0 c 1,24,25
 688 -3 688 -3 651.5 -3 c 128,-1,26
 615 -3 615 -3 594 0 c 1,27,28
 594 62 594 62 563 117 c 2,29,-1
 541 155 l 1,30,31
 514 197 514 197 433 257 c 1,32,-1
 433 203 l 2,33,34
 433 55 433 55 436 0 c 1,35,36
 412 -3 412 -3 375 -3 c 128,-1,37
 338 -3 338 -3 317 0 c 1,38,39
 317 100 317 100 327 262 c 1,40,41
 242 216 242 216 186 110 c 1,42,43
 171 66 171 66 171 0 c 1,44,45
 147 -3 147 -3 115.5 -3 c 128,-1,46
 84 -3 84 -3 58 0 c 1,47,48
 56 7 56 7 56 14 c 2,49,-1
 56 32 l 2,50,51
 56 59 56 59 75 95.5 c 128,-1,52
 94 132 94 132 105 146 c 0,53,54
 131 179 131 179 215 233 c 2,55,-1
 279 274 l 1,56,-1
 328 303 l 1,57,-1
 328 308 l 1,58,-1
 260 348 l 1,59,-1
 197 382 l 2,60,61
 195 383 195 383 190.5 383 c 128,-1,62
 186 383 186 383 179 379.5 c 128,-1,63
 172 376 172 376 172 360 c 2,64,-1
 174 262 l 1,65,66
 167 262 167 262 124 256 c 2,67,-1
 95 252 l 2,68,69
 87 251 87 251 71 246 c 1,70,-1
 67 423 l 2,71,72
 67 434 67 434 79.5 440.5 c 128,-1,73
 92 447 92 447 106 447 c 2,74,-1
 180 447 l 2,75,76
 202 447 202 447 244 419 c 1,77,-1
 272 399 l 1,78,-1
 303 381 l 1,79,80
 317 371 317 371 330 364 c 1,81,82
 332 417 332 417 332 447 c 1,83,84
 354 450 354 450 385 450 c 256,85,86
 416 450 416 450 438 447 c 1,87,-1
 436 401 l 2,88,89
 435 379 435 379 435 355 c 1,90,-1
 544 422 l 1,91,-1
 574 439 l 2,92,93
 587 446 587 446 598 446 c 2,94,-1
 611 446 l 1,95,-1
 643 445 l 1,96,-1
 683 445 l 2,97,98
 692 445 692 445 703 447 c 1,0,1
EndSplineSet
EndChar

StartChar: zemlja
Encoding: 1079 1079 72
Width: 616
GlyphClass: 2
Flags: W
LayerCount: 2
Fore
SplineSet
18 -194 m 2,0,1
 18 -194 18 -194 18 -168 c 1,2,3
 19 -146 19 -146 39 -123 c 1,4,-1
 52 -105 l 1,5,6
 70 -84 70 -84 111 -84 c 128,-1,7
 152 -84 152 -84 180.5 -92 c 128,-1,8
 209 -100 209 -100 214 -101 c 1,9,-1
 268 -141 l 2,10,11
 287 -155 287 -155 299 -174 c 1,12,13
 328 -187 328 -187 336 -187 c 2,14,-1
 354 -187 l 2,15,16
 403 -187 403 -187 449 -136 c 0,17,18
 474 -108 474 -108 474 -38 c 0,19,20
 474 -11 474 -11 464 17 c 128,-1,21
 454 45 454 45 445 58 c 1,22,-1
 403 88 l 1,23,-1
 378 103 l 2,24,25
 357 116 357 116 344.5 116 c 128,-1,26
 332 116 332 116 324 109 c 1,27,-1
 300 73 l 1,28,29
 284 47 284 47 278 35 c 1,30,31
 273 34 273 34 260 34 c 128,-1,32
 247 34 247 34 212 49.5 c 128,-1,33
 177 65 177 65 170 87 c 1,34,35
 183 121 183 121 214 162 c 2,36,-1
 266 230 l 2,37,38
 271 237 271 237 276.5 237 c 128,-1,39
 282 237 282 237 313 229 c 128,-1,40
 344 221 344 221 376 209 c 1,41,42
 430 283 430 283 430 316 c 0,43,44
 430 373 430 373 393 403.5 c 128,-1,45
 356 434 356 434 304 434 c 128,-1,46
 252 434 252 434 212 396.5 c 128,-1,47
 172 359 172 359 168 316 c 0,48,49
 166 295 166 295 166 279.5 c 128,-1,50
 166 264 166 264 165 259 c 1,51,52
 140 255 140 255 109 255 c 128,-1,53
 78 255 78 255 52 258 c 1,54,55
 51 262 51 262 51 269 c 2,56,-1
 51 301 l 2,57,58
 51 313 51 313 58 329 c 2,59,-1
 73 360 l 1,60,-1
 85 382 l 2,61,62
 104 416 104 416 166.5 436.5 c 128,-1,63
 229 457 229 457 302 457 c 128,-1,64
 375 457 375 457 426 444 c 128,-1,65
 477 431 477 431 496 419.5 c 128,-1,66
 515 408 515 408 521.5 396.5 c 128,-1,67
 528 385 528 385 528 383 c 2,68,-1
 534 372 l 2,69,70
 536 368 536 368 537.5 356 c 128,-1,71
 539 344 539 344 540.5 335 c 128,-1,72
 542 326 542 326 542 308 c 128,-1,73
 542 290 542 290 539 266 c 0,74,75
 537 252 537 252 521 237 c 128,-1,76
 505 222 505 222 489 214 c 1,77,78
 445 211 445 211 422 207 c 1,79,-1
 414 194 l 1,80,81
 505 153 505 153 536 113 c 1,82,83
 578 38 578 38 578 -43 c 0,84,85
 578 -167 578 -167 484 -207 c 0,86,87
 432 -229 432 -229 397 -229 c 128,-1,88
 362 -229 362 -229 329 -215 c 2,89,-1
 256 -184 l 2,90,91
 217 -168 217 -168 172 -168 c 2,92,-1
 145 -168 l 2,93,94
 99 -168 99 -168 44 -223 c 0,95,96
 39 -228 39 -228 34 -228 c 0,97,98
 18 -228 18 -228 18 -194 c 2,0,1
EndSplineSet
EndChar

StartChar: izhe
Encoding: 1080 1080 73
Width: 496
GlyphClass: 2
Flags: W
LayerCount: 2
Fore
SplineSet
176 0 m 1,0,1
 147 -4 147 -4 120.5 -4 c 128,-1,2
 94 -4 94 -4 71 0 c 1,3,4
 68 31 68 31 68 80 c 0,5,6
 68 214 68 214 81 440 c 1,7,8
 114 451 114 451 185 454 c 1,9,10
 183 418 183 418 182 368 c 128,-1,11
 181 318 181 318 179 263 c 1,12,-1
 326 327 l 1,13,14
 328 415 328 415 332 441 c 1,15,16
 373 453 373 453 436 453 c 1,17,18
 431 350 431 350 431 197 c 128,-1,19
 431 44 431 44 436 0 c 1,20,21
 422 -2 422 -2 410 -2 c 2,22,-1
 354 -2 l 2,23,24
 341 -2 341 -2 328 0 c 1,25,26
 324 53 324 53 324 167 c 2,27,-1
 324 233 l 2,28,29
 324 266 324 266 325 298 c 1,30,-1
 179 234 l 1,31,32
 176 130 176 130 176 0 c 1,0,1
EndSplineSet
EndChar

StartChar: kako
Encoding: 1082 1082 75
Width: 517
GlyphClass: 2
Flags: W
LayerCount: 2
Fore
SplineSet
136 -2 m 2,0,-1
 112 -2 l 2,1,2
 97 -2 97 -2 65 0 c 1,3,4
 64 14 64 14 64 33 c 2,5,-1
 64 75 l 2,6,7
 64 159 64 159 66.5 243 c 128,-1,8
 69 327 69 327 70 368.5 c 128,-1,9
 71 410 71 410 72 429 c 1,10,11
 116 440 116 440 144 440 c 2,12,13
 144 440 144 440 178 440 c 1,14,15
 178 384 178 384 175 318 c 2,16,-1
 170 204 l 2,17,18
 165 89 165 89 162 51 c 2,19,-1
 158 0 l 1,20,21
 146 -2 146 -2 136 -2 c 2,0,-1
228 212 m 2,22,-1
 227 233 l 1,23,24
 267 331 267 331 328 392 c 1,25,-1
 354 417 l 1,26,27
 397 445 397 445 455 445 c 2,28,29
 455 445 455 445 460 445 c 1,30,31
 466 441 466 441 465 436 c 1,32,33
 439 412 439 412 434 393 c 128,-1,34
 429 374 429 374 429 358.5 c 128,-1,35
 429 343 429 343 432 331 c 1,36,37
 430 325 430 325 424 326 c 1,38,39
 410 336 410 336 382 343 c 128,-1,40
 354 350 354 350 343.5 350 c 128,-1,41
 333 350 333 350 320 341 c 1,42,43
 270 285 270 285 257 233 c 1,44,45
 260 223 260 223 263 220 c 128,-1,46
 266 217 266 217 274 215.5 c 128,-1,47
 282 214 282 214 295.5 212 c 128,-1,48
 309 210 309 210 324 207 c 2,49,-1
 354 201 l 2,50,51
 370 198 370 198 382 195 c 1,52,53
 455 99 455 99 463 0 c 1,54,55
 442 -3 442 -3 414.5 -3 c 128,-1,56
 387 -3 387 -3 357 0 c 1,57,58
 344 116 344 116 276 184 c 1,59,60
 269 186 269 186 265.5 186 c 128,-1,61
 262 186 262 186 255 187.5 c 128,-1,62
 248 189 248 189 238 196.5 c 128,-1,63
 228 204 228 204 228 212 c 2,22,-1
EndSplineSet
EndChar

StartChar: ljudi
Encoding: 1083 1083 76
Width: 450
GlyphClass: 2
Flags: W
LayerCount: 2
Fore
SplineSet
141 41 m 1,0,-1
 147 0 l 1,1,2
 131 -3 131 -3 94 -3 c 128,-1,3
 57 -3 57 -3 45 0 c 1,4,5
 43 6 43 6 43 12 c 0,6,7
 45 47 45 47 83 104 c 1,8,-1
 209 282 l 1,9,10
 230 316 230 316 236 384 c 1,11,12
 234 399 234 399 233.5 413 c 128,-1,13
 233 427 233 427 232 441 c 1,14,15
 257 440 257 440 285 439 c 128,-1,16
 313 438 313 438 337 433 c 1,17,18
 352 267 352 267 371 162 c 128,-1,19
 390 57 390 57 398 0 c 1,20,21
 375 -3 375 -3 345.5 -3 c 128,-1,22
 316 -3 316 -3 294 0 c 1,23,24
 278 55 278 55 265 145 c 2,25,-1
 250 254 l 2,26,27
 247 273 247 273 245 291 c 1,28,-1
 214 246 l 1,29,30
 167 181 167 181 154 124.5 c 128,-1,31
 141 68 141 68 141 41 c 1,0,-1
EndSplineSet
EndChar

StartChar: myslete
Encoding: 1084 1084 77
Width: 701
GlyphClass: 2
Flags: W
LayerCount: 2
Fore
SplineSet
162 0 m 1,0,1
 146 -3 146 -3 108 -3 c 0,2,3
 69 -3 69 -3 49 0 c 1,4,5
 44 12 44 12 44 24 c 128,-1,6
 44 36 44 36 63.5 85.5 c 128,-1,7
 83 135 83 135 129 201 c 1,8,-1
 187 291 l 2,9,10
 203 316 203 316 209 333 c 2,11,-1
 220 364 l 1,12,-1
 216 404 l 2,13,14
 214 423 214 423 213 440 c 1,15,16
 224 441 224 441 237.5 441 c 128,-1,17
 251 441 251 441 273.5 438.5 c 128,-1,18
 296 436 296 436 324 434 c 1,19,20
 331 314 331 314 362 172 c 1,21,-1
 372 123 l 1,22,23
 387 173 387 173 407 220 c 1,24,-1
 436 284 l 2,25,26
 444 301 444 301 454 319 c 2,27,-1
 491 386 l 1,28,-1
 487 440 l 1,29,30
 500 442 500 442 513 442 c 128,-1,31
 526 442 526 442 547 439 c 2,32,-1
 594 434 l 1,33,34
 597 311 597 311 636 82 c 0,35,36
 645 29 645 29 651 0 c 1,37,38
 627 -3 627 -3 601.5 -3 c 128,-1,39
 576 -3 576 -3 548 0 c 1,40,41
 528 38 528 38 496 332 c 1,42,43
 457 274 457 274 441 235 c 0,44,45
 399 131 399 131 384 66 c 1,46,47
 390 31 390 31 396 0 c 1,48,49
 370 -3 370 -3 342.5 -3 c 128,-1,50
 315 -3 315 -3 285 0 c 1,51,52
 281 54 281 54 259.5 153 c 128,-1,53
 238 252 238 252 228 313 c 1,54,55
 219 300 219 300 210 284 c 2,56,-1
 192 251 l 1,57,58
 143 151 143 151 143 82 c 0,59,60
 143 57 143 57 152.5 39 c 128,-1,61
 162 21 162 21 162 12 c 2,62,-1
 162 0 l 1,0,1
EndSplineSet
EndChar

StartChar: nash
Encoding: 1085 1085 78
Width: 508
GlyphClass: 2
Flags: W
LayerCount: 2
Fore
SplineSet
172 0 m 1,0,1
 143 -4 143 -4 120 -4 c 0,2,3
 95 -4 95 -4 65 0 c 1,4,5
 63 12 63 12 63 27 c 2,6,-1
 63 55 l 2,7,8
 63 242 63 242 84 385 c 0,9,10
 90 428 90 428 97 442 c 1,11,12
 137 452 137 452 161 452 c 128,-1,13
 185 452 185 452 195 451 c 1,14,15
 186 394 186 394 182 308 c 1,16,17
 200 305 200 305 214.5 300.5 c 128,-1,18
 229 296 229 296 250 291 c 2,19,-1
 281 283 l 2,20,21
 298 278 298 278 317 275 c 1,22,23
 317 341 317 341 326.5 383.5 c 128,-1,24
 336 426 336 426 341 439 c 1,25,26
 381 452 381 452 405 452 c 128,-1,27
 429 452 429 452 437 451 c 1,28,29
 427 367 427 367 427 256.5 c 128,-1,30
 427 146 427 146 455 0 c 1,31,32
 431 -3 431 -3 404.5 -3 c 128,-1,33
 378 -3 378 -3 352 0 c 1,34,35
 331 50 331 50 321 172 c 1,36,37
 317 208 317 208 317 248 c 1,38,39
 296 250 296 250 278 255 c 128,-1,40
 260 260 260 260 243.5 264 c 128,-1,41
 227 268 227 268 212 273.5 c 128,-1,42
 197 279 197 279 180 282 c 1,43,-1
 176 197 l 2,44,45
 172 109 172 109 172 45 c 2,46,-1
 172 0 l 1,0,1
EndSplineSet
EndChar

StartChar: on
Encoding: 1086 1086 79
Width: 491
GlyphClass: 2
Flags: W
LayerCount: 2
Fore
SplineSet
416 119.5 m 128,-1,1
 387 72 387 72 334.5 39.5 c 128,-1,2
 282 7 282 7 193 -12 c 0,3,4
 190 -12 190 -12 176 -6 c 0,5,6
 145 7 145 7 111 50 c 128,-1,7
 77 93 77 93 61.5 129 c 128,-1,8
 46 165 46 165 46 222 c 128,-1,9
 46 279 46 279 76 331 c 0,10,11
 118 404 118 404 231 442 c 0,12,13
 278 458 278 458 289 458 c 1,14,15
 290 459 290 459 291.5 459 c 128,-1,16
 293 459 293 459 304 453 c 0,17,18
 358 422 358 422 389 378 c 2,19,-1
 414 342 l 2,20,21
 445 296 445 296 445 231.5 c 128,-1,0
 445 167 445 167 416 119.5 c 128,-1,1
190 129 m 0,22,23
 239 51 239 51 291 51 c 0,24,25
 309 51 309 51 329 61 c 0,26,27
 366 81 366 81 366 121 c 128,-1,28
 366 161 366 161 350.5 201 c 128,-1,29
 335 241 335 241 323 268 c 0,30,31
 265 396 265 396 198 396 c 0,32,33
 182 396 182 396 162 386 c 0,34,35
 123 367 123 367 123 302 c 128,-1,36
 123 237 123 237 190 129 c 0,22,23
EndSplineSet
EndChar

StartChar: pokoj
Encoding: 1087 1087 80
Width: 522
GlyphClass: 2
Flags: W
LayerCount: 2
Fore
SplineSet
186 0 m 1,0,1
 158 -4 158 -4 132 -4 c 0,2,3
 109 -4 109 -4 80 0 c 1,4,5
 67 67 67 67 67 220.5 c 128,-1,6
 67 374 67 374 75 447 c 1,7,-1
 455 447 l 1,8,9
 450 340 450 340 450 195.5 c 128,-1,10
 450 51 450 51 460 0 c 1,11,12
 431 -6 431 -6 407.5 -6 c 128,-1,13
 384 -6 384 -6 353 0 c 1,14,15
 342 43 342 43 342 174.5 c 128,-1,16
 342 306 342 306 348 423 c 1,17,-1
 181 423 l 1,18,19
 175 366 175 366 175 230 c 128,-1,20
 175 94 175 94 186 0 c 1,0,1
EndSplineSet
EndChar

StartChar: rtsy
Encoding: 1088 1088 81
Width: 359
GlyphClass: 2
Flags: W
LayerCount: 2
Fore
SplineSet
279 456 m 1,0,-1
 283 456 l 2,1,2
 286 456 286 456 286 452 c 2,3,-1
 286 445 l 1,4,-1
 283 389 l 1,5,-1
 283 377 l 2,6,7
 283 367 283 367 289 279 c 2,8,-1
 292 232 l 2,9,10
 294 199 294 199 294 191 c 2,11,-1
 293 147 l 2,12,13
 291 58 291 58 252 23 c 1,14,15
 227 -1 227 -1 147 -12 c 1,16,17
 159 -96 159 -96 159 -168 c 0,18,19
 159 -367 159 -367 94 -419 c 0,20,21
 78 -432 78 -432 66.5 -432 c 128,-1,22
 55 -432 55 -432 55 -429.5 c 128,-1,23
 55 -427 55 -427 56 -426 c 0,24,25
 88 -394 88 -394 88 -337.5 c 128,-1,26
 88 -281 88 -281 81 -205 c 2,27,-1
 76 -151 l 1,28,-1
 72 -97 l 2,29,30
 71 -71 71 -71 69 -43 c 2,31,-1
 61 74 l 2,32,33
 59 114 59 114 59 157 c 128,-1,34
 59 200 59 200 74 259 c 0,35,36
 116 433 116 433 279 456 c 1,0,-1
218 331 m 1,37,38
 181 325 181 325 153.5 285 c 128,-1,39
 126 245 126 245 126 204 c 128,-1,40
 126 163 126 163 135 79 c 1,41,42
 163 85 163 85 192 101.5 c 128,-1,43
 221 118 221 118 236 156 c 1,44,-1
 236 182 l 2,45,46
 236 204 236 204 229 248 c 2,47,-1
 222 293 l 2,48,49
 219 314 219 314 218 331 c 1,37,38
EndSplineSet
EndChar

StartChar: slovo
Encoding: 1089 1089 82
Width: 325
GlyphClass: 2
Flags: W
LayerCount: 2
Fore
SplineSet
262 132 m 2,0,-1
 262 126 l 2,1,2
 262 70 262 70 211 32 c 128,-1,3
 160 -6 160 -6 97 -6 c 0,4,5
 81 -6 81 -6 81 -2 c 2,6,-1
 84 28 l 1,7,8
 84 28 84 28 84 36 c 256,9,10
 84 44 84 44 75.5 137 c 128,-1,11
 67 230 67 230 67 318 c 0,12,13
 67 385 67 385 124 421.5 c 128,-1,14
 181 458 181 458 244 458 c 2,15,-1
 257 458 l 1,16,17
 263 430 263 430 263 386 c 2,18,-1
 263 364 l 2,19,20
 263 357 263 357 242 357 c 128,-1,21
 221 357 221 357 177 324 c 1,22,23
 165 304 165 304 163.5 285 c 128,-1,24
 162 266 162 266 161 178 c 2,25,-1
 160 100 l 1,26,-1
 183 102 l 1,27,28
 191 108 191 108 199 115 c 1,29,-1
 247 167 l 2,30,31
 248 168 248 168 250 168 c 1,32,33
 262 157 262 157 262 132 c 2,0,-1
EndSplineSet
EndChar

StartChar: tverdo
Encoding: 1090 1090 83
Width: 667
GlyphClass: 2
Flags: W
LayerCount: 2
Fore
SplineSet
410 0 m 1,0,1
 381 -4 381 -4 358 -4 c 256,2,3
 335 -4 335 -4 306 0 c 1,4,5
 300 43 300 43 300 203.5 c 128,-1,6
 300 364 300 364 304 423 c 1,7,-1
 182 423 l 1,8,-1
 182 374 l 1,9,-1
 180 309 l 1,10,11
 180 250 180 250 177 198 c 1,12,13
 148 194 148 194 124.5 194 c 128,-1,14
 101 194 101 194 73 198 c 1,15,16
 75 220 75 220 75 285 c 2,17,-1
 75 328 l 1,18,-1
 73 423 l 1,19,-1
 31 423 l 2,20,21
 23 423 23 423 23 435 c 128,-1,22
 23 447 23 447 31 447 c 2,23,-1
 630 447 l 2,24,25
 640 447 640 447 640 439 c 0,26,27
 640 428 640 428 633 421 c 0,28,29
 607 395 607 395 582 293 c 0,30,31
 581 289 581 289 575 288 c 1,32,33
 565 288 565 288 549.5 321.5 c 128,-1,34
 534 355 534 355 524 391 c 2,35,-1
 516 423 l 1,36,-1
 411 423 l 1,37,-1
 408 163 l 1,38,-1
 408 108 l 2,39,40
 408 70 408 70 410 0 c 1,0,1
EndSplineSet
EndChar

StartChar: uk
Encoding: 1091 1091 84
Width: 557
GlyphClass: 2
Flags: W
LayerCount: 2
Fore
SplineSet
266 30 m 1,0,-1
 290 29 l 1,1,2
 298 160 298 160 304 195 c 2,3,-1
 317 262 l 2,4,5
 322 286 322 286 330.5 314 c 128,-1,6
 339 342 339 342 342.5 355.5 c 128,-1,7
 346 369 346 369 359.5 394.5 c 128,-1,8
 373 420 373 420 395 436.5 c 128,-1,9
 417 453 417 453 444 454 c 1,10,-1
 475 454 l 2,11,12
 528 454 528 454 530 445 c 0,13,14
 531 441 531 441 527.5 437 c 128,-1,15
 524 433 524 433 515 413.5 c 128,-1,16
 506 394 506 394 506 360 c 1,17,18
 508 348 508 348 508 339.5 c 128,-1,19
 508 331 508 331 503 331 c 0,20,21
 478 334 478 334 455 334 c 128,-1,22
 432 334 432 334 416 326.5 c 128,-1,23
 400 319 400 319 384 274 c 128,-1,24
 368 229 368 229 365 214.5 c 128,-1,25
 362 200 362 200 360 162.5 c 128,-1,26
 358 125 358 125 356 101.5 c 128,-1,27
 354 78 354 78 354 66 c 2,28,-1
 350 -49 l 1,29,-1
 349 -98 l 1,30,-1
 347 -145 l 1,31,32
 344 -182 344 -182 344 -189 c 0,33,34
 334 -408 334 -408 298 -446 c 0,35,36
 276 -470 276 -470 262.5 -470 c 128,-1,37
 249 -470 249 -470 249 -465.5 c 128,-1,38
 249 -461 249 -461 257 -450 c 128,-1,39
 265 -439 265 -439 269 -423 c 1,40,-1
 275 -384 l 2,41,42
 276 -381 276 -381 280 -345 c 128,-1,43
 284 -309 284 -309 284 -305 c 2,44,-1
 286 -260 l 2,45,46
 287 -237 287 -237 287 -216 c 2,47,-1
 287 -56 l 2,48,49
 287 -26 287 -26 288 4 c 1,50,51
 230 0 230 0 155 -9 c 1,52,-1
 136 80 l 1,53,54
 110 216 110 216 81 307.5 c 128,-1,55
 52 399 52 399 43 417.5 c 128,-1,56
 34 436 34 436 34 438.5 c 128,-1,57
 34 441 34 441 37 447 c 1,58,59
 53 451 53 451 87.5 451 c 128,-1,60
 122 451 122 451 155 446 c 1,61,62
 168 411 168 411 178 380 c 2,63,-1
 200 307 l 1,64,-1
 243 141 l 1,65,66
 261 66 261 66 266 30 c 1,0,-1
EndSplineSet
EndChar

StartChar: fert
Encoding: 1092 1092 85
Width: 729
GlyphClass: 2
Flags: W
LayerCount: 2
Fore
SplineSet
475 582 m 2,0,-1
 475 572 l 2,1,2
 475 567 475 567 454.5 566 c 128,-1,3
 434 565 434 565 419 564 c 1,4,-1
 419 433 l 1,5,6
 459 374 459 374 528 323 c 2,7,-1
 582 284 l 2,8,9
 683 210 683 210 683 124 c 0,10,11
 683 65 683 65 647 29 c 128,-1,12
 611 -7 611 -7 570 -7 c 0,13,14
 481 -7 481 -7 418 31 c 1,15,-1
 427 -203 l 1,16,17
 443 -201 443 -201 458 -201 c 128,-1,18
 473 -201 473 -201 473 -212 c 128,-1,19
 473 -223 473 -223 462 -223 c 0,20,21
 395 -228 395 -228 317 -228 c 2,22,-1
 266 -228 l 2,23,24
 255 -228 255 -228 255 -217 c 128,-1,25
 255 -206 255 -206 266 -206 c 2,26,-1
 308 -206 l 1,27,-1
 316 34 l 1,28,29
 261 -11 261 -11 191.5 -11 c 128,-1,30
 122 -11 122 -11 85 24 c 128,-1,31
 48 59 48 59 48 124 c 0,32,33
 48 207 48 207 156 281 c 1,34,-1
 211 318 l 1,35,36
 282 367 282 367 312 455 c 1,37,-1
 312 559 l 1,38,39
 306 558 306 558 302 558 c 2,40,-1
 282 559 l 2,41,42
 270 560 270 560 270 571 c 128,-1,43
 270 582 270 582 285 582 c 2,44,-1
 319 582 l 2,45,46
 346 582 346 582 391 586 c 1,47,-1
 414 586 l 1,48,-1
 436 588 l 2,49,50
 450 589 450 589 456 590 c 128,-1,51
 462 591 462 591 465 591 c 0,52,53
 475 591 475 591 475 582 c 2,0,-1
260 42 m 0,54,55
 296 42 296 42 325 78 c 1,56,57
 325 106 325 106 324 153 c 1,58,-1
 324 247 l 1,59,60
 323 295 323 295 323 338 c 2,61,-1
 323 407 l 1,62,63
 267 313 267 313 222.5 260.5 c 128,-1,64
 178 208 178 208 170.5 186.5 c 128,-1,65
 163 165 163 165 163 143 c 0,66,67
 163 99 163 99 185.5 70.5 c 128,-1,68
 208 42 208 42 260 42 c 0,54,55
412 67 m 1,69,70
 451 37 451 37 492 37 c 0,71,72
 526 37 526 37 548 64.5 c 128,-1,73
 570 92 570 92 570 119 c 0,74,75
 570 175 570 175 522 242 c 1,76,-1
 498 279 l 1,77,-1
 410 402 l 1,78,-1
 410 364 l 1,79,-1
 412 111 l 1,80,-1
 412 67 l 1,69,70
EndSplineSet
EndChar

StartChar: kher
Encoding: 1093 1093 86
Width: 485
GlyphClass: 2
Flags: W
LayerCount: 2
Fore
SplineSet
0 -455 m 0,0,1
 -28 -455 -28 -455 -28 -430 c 0,2,3
 -28 -412 -28 -412 -6.5 -372.5 c 128,-1,4
 15 -333 15 -333 37 -270 c 1,5,-1
 165 120 l 1,6,-1
 56 438 l 2,7,8
 54 441 54 441 54 444 c 128,-1,9
 54 447 54 447 62 447 c 2,10,-1
 98 449 l 1,11,12
 156 449 156 449 169 440 c 1,13,-1
 227 271 l 1,14,15
 232 286 232 286 239 299 c 1,16,-1
 250 328 l 2,17,18
 270 380 270 380 292 410 c 0,19,20
 323 453 323 453 385 453 c 0,21,22
 419 453 419 453 434 456 c 0,23,24
 439 457 439 457 441 449 c 1,25,-1
 441 435 l 1,26,-1
 429 400 l 1,27,28
 424 400 424 400 424 365.5 c 128,-1,29
 424 331 424 331 430 315 c 0,30,31
 432 310 432 310 424 311 c 0,32,33
 415 312 415 312 411 315 c 0,34,35
 366 351 366 351 328 351 c 128,-1,36
 290 351 290 351 270 307 c 1,37,38
 258 284 258 284 241 230 c 1,39,-1
 439 -356 l 2,40,41
 439 -357 439 -357 439 -358 c 0,42,43
 439 -373 439 -373 397 -373 c 128,-1,44
 355 -373 355 -373 333 -369 c 1,45,46
 333 -369 333 -369 304 -289 c 1,47,-1
 179 76 l 1,48,-1
 95 -243 l 1,49,50
 81 -292 81 -292 71 -332.5 c 128,-1,51
 61 -373 61 -373 50.5 -403 c 128,-1,52
 40 -433 40 -433 24 -444 c 128,-1,53
 8 -455 8 -455 0 -455 c 0,0,1
EndSplineSet
EndChar

StartChar: tsy
Encoding: 1094 1094 87
Width: 562
GlyphClass: 2
Flags: W
LayerCount: 2
Fore
SplineSet
502 -390 m 1,0,-1
 503 -408 l 2,1,2
 503 -416 503 -416 493.5 -416 c 128,-1,3
 484 -416 484 -416 479 -410 c 0,4,5
 454 -380 454 -380 454 -317 c 128,-1,6
 454 -254 454 -254 462 -180 c 128,-1,7
 470 -106 470 -106 470 -99 c 2,8,-1
 470 -59 l 2,9,10
 470 -42 470 -42 460 0 c 1,11,-1
 80 0 l 1,12,13
 68 111 68 111 68 235 c 128,-1,14
 68 359 68 359 79 442 c 1,15,16
 120 453 120 453 184 453 c 1,17,18
 176 368 176 368 176 263 c 2,19,-1
 176 221 l 1,20,21
 181 65 181 65 191 25 c 1,22,-1
 342 25 l 1,23,24
 333 66 333 66 333 141.5 c 128,-1,25
 333 217 333 217 335 256 c 128,-1,26
 337 295 337 295 340 330.5 c 128,-1,27
 343 366 343 366 346 395 c 128,-1,28
 349 424 349 424 350 442 c 1,29,30
 396 453 396 453 421.5 453 c 128,-1,31
 447 453 447 453 458 452 c 1,32,33
 440 318 440 318 440 222 c 128,-1,34
 440 126 440 126 447.5 80 c 128,-1,35
 455 34 455 34 458 25 c 1,36,-1
 531 25 l 1,37,38
 548 -17 548 -17 548 -71.5 c 128,-1,39
 548 -126 548 -126 526.5 -210.5 c 128,-1,40
 505 -295 505 -295 504 -325 c 2,41,-1
 502 -369 l 1,42,43
 502 -369 502 -369 502 -390 c 1,0,-1
EndSplineSet
EndChar

StartChar: cherv
Encoding: 1095 1095 88
Width: 462
GlyphClass: 2
Flags: W
LayerCount: 2
Fore
SplineSet
393 262 m 2,0,1
 391 224 391 224 391 148 c 128,-1,2
 391 72 391 72 397 0 c 1,3,4
 397 0 397 0 290 0 c 1,5,6
 287 49 287 49 287 96 c 1,7,-1
 285 158 l 1,8,-1
 285 259 l 1,9,-1
 256 259 l 2,10,11
 228 259 228 259 198 261 c 1,12,13
 136 261 136 261 94 305 c 128,-1,14
 52 349 52 349 50 416 c 0,15,16
 50 426 50 426 53 443 c 1,17,18
 67 444 67 444 86 448 c 128,-1,19
 105 452 105 452 127.5 452 c 128,-1,20
 150 452 150 452 157 451 c 1,21,-1
 158 419 l 1,22,-1
 158 399 l 2,23,24
 158 358 158 358 194.5 321.5 c 128,-1,25
 231 285 231 285 264 285 c 1,26,27
 266 284 266 284 270 284 c 2,28,-1
 285 284 l 1,29,30
 292 396 292 396 303 445 c 1,31,32
 342 451 342 451 401 451 c 1,33,34
 399 397 399 397 395 336 c 1,35,-1
 393 262 l 2,0,1
EndSplineSet
EndChar

StartChar: sha
Encoding: 1096 1096 89
Width: 880
GlyphClass: 2
Flags: W
LayerCount: 2
Fore
SplineSet
810 451 m 1,0,1
 802 374 802 374 802 252 c 128,-1,2
 802 130 802 130 814 0 c 1,3,-1
 80 0 l 1,4,-1
 74 102 l 2,5,6
 72 140 72 140 72 184 c 128,-1,7
 72 228 72 228 72.5 291.5 c 128,-1,8
 73 355 73 355 84 442 c 1,9,10
 111 452 111 452 150 452 c 2,11,-1
 199 452 l 1,12,13
 181 347 181 347 181 216.5 c 128,-1,14
 181 86 181 86 190 25 c 1,15,-1
 388 25 l 1,16,17
 380 115 380 115 380 226.5 c 128,-1,18
 380 338 380 338 393 441 c 1,19,20
 427 452 427 452 507 452 c 1,21,22
 497 380 497 380 495 239 c 1,23,-1
 495 200 l 2,24,25
 495 87 495 87 504 25 c 1,26,-1
 705 25 l 1,27,28
 695 137 695 137 693 239 c 1,29,-1
 693 269 l 2,30,31
 693 343 693 343 699 441 c 1,32,33
 721 449 721 449 751 449 c 1,34,-1
 782 451 l 1,35,-1
 810 451 l 1,0,1
EndSplineSet
EndChar

StartChar: afii10092
Encoding: 1098 1098 91
Width: 479
GlyphClass: 2
Flags: W
LayerCount: 2
Fore
SplineSet
72 0 m 1,0,-1
 72 14 l 2,1,2
 72 27 72 27 127 122 c 2,3,-1
 188 229 l 1,4,-1
 252 334 l 1,5,-1
 305 416 l 1,6,-1
 305 423 l 1,7,-1
 168 423 l 1,8,9
 166 409 166 409 166 391 c 2,10,-1
 166 356 l 2,11,12
 166 301 166 301 168 264 c 1,13,14
 147 260 147 260 120.5 260 c 128,-1,15
 94 260 94 260 72 264 c 1,16,17
 70 278 70 278 70 300 c 2,18,-1
 70 399 l 2,19,20
 70 426 70 426 72 447 c 1,21,-1
 415 447 l 2,22,23
 421 447 421 447 421.5 442 c 128,-1,24
 422 437 422 437 420 434 c 2,25,-1
 358 334 l 1,26,-1
 283 201 l 1,27,-1
 289 201 l 2,28,29
 293 201 293 201 320.5 207.5 c 128,-1,30
 348 214 348 214 361 214 c 128,-1,31
 374 214 374 214 376 212 c 0,32,33
 394 194 394 194 418 50 c 0,34,35
 423 23 423 23 425 0 c 1,36,-1
 72 0 l 1,0,-1
312 25 m 1,37,38
 312 82 312 82 287 172 c 1,39,-1
 267 172 l 1,40,-1
 223 90 l 2,41,42
 204 54 204 54 196 36 c 1,43,-1
 196 25 l 1,44,-1
 312 25 l 1,37,38
EndSplineSet
EndChar

StartChar: ere
Encoding: 1100 1100 93
Width: 450
GlyphClass: 2
Flags: W
LayerCount: 2
Fore
SplineSet
70 0 m 1,0,1
 70 168 70 168 80 291 c 128,-1,2
 90 414 90 414 94 440 c 1,3,4
 148 453 148 453 172 453 c 2,5,-1
 204 453 l 1,6,7
 194 381 194 381 182 221 c 1,8,9
 240 221 240 221 262 229.5 c 128,-1,10
 284 238 284 238 296 241 c 1,11,12
 296 241 296 241 309 243 c 1,13,14
 324 243 324 243 366 144 c 128,-1,15
 408 45 408 45 408 11 c 2,16,-1
 408 0 l 1,17,-1
 70 0 l 1,0,1
290 25 m 1,18,19
 263 137 263 137 216 197 c 1,20,21
 208 196 208 196 198.5 196 c 128,-1,22
 189 196 189 196 180 195 c 1,23,24
 176 123 176 123 176 54 c 2,25,-1
 176 25 l 1,26,-1
 290 25 l 1,18,19
EndSplineSet
EndChar

StartChar: jus
Encoding: 1102 1102 94
Width: 564
GlyphClass: 2
Flags: W
LayerCount: 2
Fore
SplineSet
176 113 m 0,0,1
 176 39 176 39 178 0 c 1,2,3
 151 -3 151 -3 123.5 -3 c 128,-1,4
 96 -3 96 -3 71 0 c 1,5,6
 70 14 70 14 70 35 c 2,7,-1
 70 78 l 2,8,9
 70 258 70 258 76 340 c 128,-1,10
 82 422 82 422 86 439 c 1,11,12
 129 451 129 451 154 451 c 2,13,-1
 184 451 l 1,14,15
 181 388 181 388 179 289 c 1,16,17
 221 301 221 301 260.5 306 c 128,-1,18
 300 311 300 311 316 323 c 1,19,20
 345 415 345 415 403 449 c 0,21,22
 411 453 411 453 418 453 c 128,-1,23
 425 453 425 453 435 444 c 0,24,25
 462 421 462 421 490 357.5 c 128,-1,26
 518 294 518 294 518 237 c 128,-1,27
 518 180 518 180 508 139.5 c 128,-1,28
 498 99 498 99 481.5 67 c 128,-1,29
 465 35 465 35 444.5 14.5 c 128,-1,30
 424 -6 424 -6 404 -6 c 0,31,32
 366 -6 366 -6 333.5 63.5 c 128,-1,33
 301 133 301 133 301 209 c 0,34,35
 301 254 301 254 308 288 c 1,36,37
 281 285 281 285 251 278 c 2,38,-1
 207 268 l 2,39,40
 193 265 193 265 178 261 c 1,41,42
 176 185 176 185 176 113 c 0,0,1
416 334 m 0,43,44
 393 334 393 334 380.5 297.5 c 128,-1,45
 368 261 368 261 368 218 c 128,-1,46
 368 175 368 175 380.5 140 c 128,-1,47
 393 105 393 105 416 105 c 0,48,49
 437 105 437 105 450.5 138.5 c 128,-1,50
 464 172 464 172 464 216 c 128,-1,51
 464 260 464 260 451 297 c 128,-1,52
 438 334 438 334 416 334 c 0,43,44
EndSplineSet
EndChar

StartChar: est_shirokij
Encoding: 1108 1108 95
Width: 616
GlyphClass: 2
Flags: W
LayerCount: 2
Fore
SplineSet
396 316 m 2,0,1
 393 315 393 315 389.5 321 c 128,-1,2
 386 327 386 327 386 332.5 c 128,-1,3
 386 338 386 338 395 338 c 1,4,5
 382 386 382 386 306 386 c 0,6,7
 283 386 283 386 264.5 377 c 128,-1,8
 246 368 246 368 225 353 c 1,9,10
 163 270 163 270 163 135 c 0,11,12
 163 82 163 82 168 58 c 1,13,-1
 399 213 l 2,14,15
 409 220 409 220 423 220 c 128,-1,16
 437 220 437 220 444 208 c 0,17,18
 492 127 492 127 574 44 c 0,19,20
 578 41 578 41 578.5 35.5 c 128,-1,21
 579 30 579 30 574 30 c 0,22,23
 566 30 566 30 558 30 c 2,24,-1
 463 25 l 2,25,26
 452 25 452 25 439 26 c 1,27,28
 413 43 413 43 398 62 c 2,29,-1
 372 97 l 2,30,31
 359 113 359 113 350 119 c 128,-1,32
 341 125 341 125 327 132 c 1,33,34
 317 127 317 127 300 115 c 2,35,-1
 174 31 l 1,36,37
 200 -73 200 -73 291 -178 c 1,38,-1
 318 -196 l 1,39,40
 332 -204 332 -204 350 -209 c 1,41,42
 383 -198 383 -198 432 -153 c 2,43,-1
 451 -136 l 2,44,45
 453 -134 453 -134 456 -134 c 128,-1,46
 459 -134 459 -134 466 -140 c 128,-1,47
 473 -146 473 -146 473 -150 c 128,-1,48
 473 -154 473 -154 472 -155 c 0,49,50
 426 -201 426 -201 363.5 -232 c 128,-1,51
 301 -263 301 -263 232 -263 c 1,52,53
 164 -221 164 -221 110 -106.5 c 128,-1,54
 56 8 56 8 56 118 c 0,55,56
 56 185 56 185 89 251.5 c 128,-1,57
 122 318 122 318 186 374 c 1,58,59
 280 454 280 454 348 454 c 0,60,61
 445 454 445 454 503 402 c 2,62,-1
 538 371 l 1,63,-1
 546 372 l 2,64,65
 554 372 554 372 554 362 c 128,-1,66
 554 352 554 352 551 351 c 2,67,-1
 514 344 l 1,68,-1
 470 334 l 1,69,70
 447 330 447 330 428 325 c 2,71,-1
 396 316 l 2,0,1
EndSplineSet
EndChar

StartChar: dzelo
Encoding: 1109 1109 96
Width: 603
GlyphClass: 2
Flags: W
LayerCount: 2
Fore
SplineSet
268 446 m 1,0,-1
 326 446 l 1,1,2
 357 449 357 449 382 449 c 0,3,4
 386 449 386 449 388 442.5 c 128,-1,5
 390 436 390 436 387 434 c 0,6,7
 367 423 367 423 355.5 396 c 128,-1,8
 344 369 344 369 340 360.5 c 128,-1,9
 336 352 336 352 329.5 352 c 128,-1,10
 323 352 323 352 322 356 c 0,11,12
 306 398 306 398 280 419 c 1,13,14
 267 428 267 428 255 428 c 2,15,-1
 222 428 l 2,16,17
 205 428 205 428 179 407.5 c 128,-1,18
 153 387 153 387 153 356 c 2,19,-1
 153 339 l 2,20,21
 153 282 153 282 185.5 255.5 c 128,-1,22
 218 229 218 229 246 227 c 1,23,24
 261 232 261 232 276 239 c 1,25,-1
 387 282 l 1,26,27
 501 282 501 282 538 213 c 0,28,29
 552 186 552 186 552 151 c 0,30,31
 552 66 552 66 509 35 c 0,32,33
 447 -9 447 -9 365 -9 c 128,-1,34
 283 -9 283 -9 236.5 7 c 128,-1,35
 190 23 190 23 178.5 25 c 128,-1,36
 167 27 167 27 142 27 c 128,-1,37
 117 27 117 27 102.5 20 c 128,-1,38
 88 13 88 13 59 -8 c 0,39,40
 55 -11 55 -11 50.5 -8.5 c 128,-1,41
 46 -6 46 -6 46 0 c 128,-1,42
 46 6 46 6 57 16 c 2,43,-1
 84 39 l 2,44,45
 112 62 112 62 143.5 62 c 128,-1,46
 175 62 175 62 239.5 45.5 c 128,-1,47
 304 29 304 29 323 29 c 0,48,49
 397 29 397 29 420 59.5 c 128,-1,50
 443 90 443 90 443 119 c 0,51,52
 443 173 443 173 414 202 c 128,-1,53
 385 231 385 231 353.5 231 c 128,-1,54
 322 231 322 231 295 218 c 0,55,56
 224 183 224 183 184 174 c 1,57,58
 146 176 146 176 109 208 c 1,59,60
 53 254 53 254 53 317 c 2,61,-1
 53 336 l 2,62,63
 53 352 53 352 60 373 c 1,64,65
 98 429 98 429 179 444 c 0,66,67
 204 449 204 449 216 449 c 2,68,-1
 268 446 l 1,0,-1
EndSplineSet
EndChar

StartChar: NameMe.1110
Encoding: 1110 1110 97
Width: 485
GlyphClass: 2
Flags: W
LayerCount: 2
Fore
SplineSet
0 -455 m 0,0,1
 -28 -455 -28 -455 -28 -430 c 0,2,3
 -28 -412 -28 -412 -6 -372 c 0,4,5
 18 -327 18 -327 37 -270 c 2,6,-1
 165 120 l 1,7,-1
 56 438 l 2,8,9
 54 441 54 441 54 444 c 256,10,11
 54 447 54 447 62 447 c 2,12,-1
 98 449 l 2,13,14
 152 452 152 452 169 440 c 1,15,-1
 227 271 l 1,16,17
 232 286 232 286 239 299 c 1,18,-1
 250 328 l 2,19,20
 269 379 269 379 292 410 c 0,21,22
 323 453 323 453 385 453 c 0,23,24
 419 453 419 453 434 456 c 0,25,26
 439 457 439 457 441 449 c 1,27,-1
 441 435 l 1,28,-1
 429 400 l 1,29,30
 424 400 424 400 424 365.5 c 128,-1,31
 424 331 424 331 430 315 c 0,32,33
 432 310 432 310 424 311 c 0,34,35
 415 312 415 312 411 315 c 0,36,37
 366 351 366 351 328 351 c 0,38,39
 293 351 293 351 270 307 c 0,40,41
 258 284 258 284 241 230 c 1,42,-1
 439 -58 l 2,43,44
 439 -59 439 -59 439 -60 c 0,45,46
 439 -75 439 -75 397 -75 c 128,-1,47
 355 -75 355 -75 333 -71 c 1,48,-1
 304 9 l 1,49,-1
 179 76 l 1,50,-1
 95 -243 l 1,51,52
 81 -292 81 -292 71 -332.5 c 128,-1,53
 61 -373 61 -373 50.5 -403 c 128,-1,54
 40 -433 40 -433 24 -444 c 128,-1,55
 8 -455 8 -455 0 -455 c 0,0,1
EndSplineSet
EndChar

StartChar: Omegha
Encoding: 1120 1120 99
Width: 960
GlyphClass: 2
Flags: W
LayerCount: 2
Fore
SplineSet
441 178 m 1,0,1
 370 304 370 304 370 492 c 0,2,3
 370 582 370 582 394 665 c 128,-1,4
 418 748 418 748 454 788 c 1,5,-1
 589 788 l 2,6,7
 594 788 594 788 596.5 783 c 128,-1,8
 599 778 599 778 597 774 c 0,9,10
 519 623 519 623 519 399 c 0,11,12
 519 217 519 217 589 118 c 0,13,14
 607 91 607 91 633.5 71.5 c 128,-1,15
 660 52 660 52 678 46 c 1,16,17
 724 81 724 81 739 128 c 0,18,19
 781 257 781 257 781 409 c 0,20,21
 781 514 781 514 764 596 c 0,22,23
 733 739 733 739 701 776 c 0,24,25
 699 779 699 779 701 783.5 c 128,-1,26
 703 788 703 788 708 788 c 2,27,-1
 830 788 l 1,28,29
 904 715 904 715 904 483 c 0,30,31
 904 327 904 327 834 192 c 128,-1,32
 764 57 764 57 651 -12 c 0,33,34
 648 -14 648 -14 641.5 -14 c 128,-1,35
 635 -14 635 -14 632 -12 c 0,36,37
 525 44 525 44 456 155 c 1,38,-1
 305 16 l 1,39,40
 269 -14 269 -14 264.5 -14 c 128,-1,41
 260 -14 260 -14 256 -10 c 0,42,43
 140 105 140 105 102 203 c 0,44,45
 56 325 56 325 56 469.5 c 128,-1,46
 56 614 56 614 98 727 c 0,47,48
 112 763 112 763 128 788 c 1,49,-1
 259 788 l 2,50,51
 263 788 263 788 265 783.5 c 128,-1,52
 267 779 267 779 265 776 c 0,53,54
 185 623 185 623 185 435 c 128,-1,55
 185 247 185 247 252 117 c 0,56,57
 273 75 273 75 300 47 c 1,58,-1
 441 178 l 1,0,1
EndSplineSet
EndChar

StartChar: omegha
Encoding: 1121 1121 100
Width: 776
GlyphClass: 2
Flags: W
LayerCount: 2
Fore
SplineSet
433 348 m 2,0,-1
 433 316 l 2,1,2
 433 252 433 252 456.5 175 c 128,-1,3
 480 98 480 98 523 49 c 1,4,5
 565 66 565 66 599 101.5 c 128,-1,6
 633 137 633 137 646 186 c 1,7,8
 648 205 648 205 648 227 c 0,9,10
 648 287 648 287 628 321 c 2,11,12
 628 321 628 321 606 360 c 0,13,14
 590 390 590 390 580.5 399.5 c 128,-1,15
 571 409 571 409 571 413 c 0,16,17
 571 421 571 421 590 427 c 1,18,19
 657 452 657 452 703 459 c 1,20,21
 723 395 723 395 723 291 c 0,22,23
 723 252 723 252 705 207 c 0,24,25
 665 109 665 109 583 39 c 0,26,27
 554 13 554 13 502 -7 c 0,28,29
 497 -9 497 -9 494.5 -9 c 128,-1,30
 492 -9 492 -9 486 -6 c 0,31,32
 401 42 401 42 357 126 c 1,33,34
 276 35 276 35 233 11 c 2,35,-1
 213 0 l 2,36,37
 201 -6 201 -6 197 -6 c 0,38,39
 182 -6 182 -6 154 28 c 128,-1,40
 126 62 126 62 113 88 c 0,41,42
 55 204 55 204 55 312 c 0,43,44
 55 368 55 368 61 394.5 c 128,-1,45
 67 421 67 421 84 441 c 1,46,47
 128 454 128 454 184 454 c 2,48,-1
 196 454 l 2,49,50
 203 454 203 454 201 449 c 0,51,52
 166 362 166 362 166 321 c 0,53,54
 166 225 166 225 190.5 161 c 128,-1,55
 215 97 215 97 257 67 c 1,56,57
 301 97 301 97 351 155 c 1,58,59
 318 242 318 242 318 347 c 0,60,61
 318 392 318 392 334 443 c 1,62,63
 387 456 387 456 452 456 c 0,64,65
 455 456 455 456 455 450.5 c 128,-1,66
 455 445 455 445 444 415 c 128,-1,67
 433 385 433 385 433 348 c 2,0,-1
EndSplineSet
EndChar

StartChar: Ed
Encoding: 1122 1122 101
Width: 859
GlyphClass: 2
Flags: W
LayerCount: 2
Fore
SplineSet
717 662 m 2,0,1
 725 662 725 662 725 651 c 128,-1,2
 725 640 725 640 715 634 c 128,-1,3
 705 628 705 628 694 612 c 0,4,5
 670 574 670 574 662 505 c 1,6,7
 660 497 660 497 647.5 497 c 128,-1,8
 635 497 635 497 634 505 c 0,9,10
 629 544 629 544 608 577 c 1,11,12
 568 636 568 636 537 636 c 2,13,-1
 459 636 l 1,14,-1
 459 445 l 1,15,16
 515 419 515 419 620 396 c 0,17,18
 643 391 643 391 658.5 390 c 128,-1,19
 674 389 674 389 693 387 c 128,-1,20
 712 385 712 385 727.5 384.5 c 128,-1,21
 743 384 743 384 758 383 c 1,22,-1
 803 383 l 1,23,-1
 803 358 l 1,24,-1
 767 358 l 1,25,-1
 767 25 l 1,26,-1
 803 25 l 1,27,-1
 803 0 l 1,28,-1
 274 0 l 1,29,-1
 274 25 l 1,30,-1
 336 25 l 1,31,-1
 336 636 l 1,32,-1
 205 636 l 1,33,-1
 205 412 l 1,34,-1
 87 412 l 1,35,-1
 87 636 l 1,36,-1
 46 636 l 1,37,-1
 46 662 l 1,38,-1
 336 662 l 1,39,-1
 336 764 l 1,40,-1
 274 764 l 1,41,-1
 274 788 l 1,42,-1
 520 788 l 1,43,-1
 520 764 l 1,44,-1
 459 764 l 1,45,-1
 459 662 l 1,46,-1
 717 662 l 2,0,1
644 368 m 1,47,48
 540 383 540 383 459 418 c 1,49,-1
 459 25 l 1,50,-1
 644 25 l 1,51,-1
 644 368 l 1,47,48
EndSplineSet
EndChar

StartChar: ed
Encoding: 1123 1123 102
Width: 672
GlyphClass: 2
Flags: W
LayerCount: 2
Fore
SplineSet
159 186 m 1,0,1
 130 182 130 182 104 182 c 128,-1,2
 78 182 78 182 55 186 c 1,3,4
 55 246 55 246 60 332.5 c 128,-1,5
 65 419 65 419 68 447 c 1,6,-1
 295 447 l 1,7,-1
 308 623 l 2,8,9
 314 708 314 708 321 772 c 1,10,11
 362 782 362 782 385.5 782 c 128,-1,12
 409 782 409 782 424 781 c 1,13,-1
 401 447 l 1,14,-1
 622 447 l 2,15,16
 630 447 630 447 629.5 441.5 c 128,-1,17
 629 436 629 436 616.5 418 c 128,-1,18
 604 400 604 400 586 366 c 2,19,-1
 557 313 l 2,20,21
 553 307 553 307 546 307 c 128,-1,22
 539 307 539 307 522 362 c 2,23,-1
 504 423 l 1,24,-1
 400 423 l 1,25,-1
 393 300 l 2,26,27
 389 241 389 241 387 188 c 1,28,-1
 461 207 l 1,29,-1
 498 215 l 1,30,-1
 518 220 l 2,31,32
 523 222 523 222 528.5 222 c 128,-1,33
 534 222 534 222 538 213 c 2,34,-1
 573 133 l 2,35,36
 608 53 608 53 608 22 c 0,37,38
 608 9 608 9 607 0 c 1,39,-1
 271 0 l 1,40,41
 271 53 271 53 279 182 c 1,42,-1
 285 299 l 1,43,-1
 293 423 l 1,44,-1
 171 423 l 1,45,46
 169 398 169 398 168 365 c 2,47,-1
 164 297 l 1,48,49
 162 243 162 243 159 186 c 1,0,1
438 175 m 1,50,51
 408 169 408 169 399.5 165 c 128,-1,52
 391 161 391 161 385 151 c 1,53,-1
 381 76 l 2,54,55
 380 43 380 43 379 25 c 1,56,-1
 504 25 l 1,57,58
 493 82 493 82 457 147 c 0,59,60
 446 166 446 166 438 175 c 1,50,51
EndSplineSet
EndChar

StartChar: Jest
Encoding: 1124 1124 103
Width: 953
GlyphClass: 2
Flags: W
LayerCount: 2
Fore
SplineSet
659 626 m 2,0,1
 649 626 649 626 649 638 c 128,-1,2
 649 650 649 650 657 650 c 2,3,-1
 724 654 l 1,4,5
 725 663 725 663 725 675 c 0,6,7
 725 711 725 711 691.5 742.5 c 128,-1,8
 658 774 658 774 606 774 c 0,9,10
 514 774 514 774 476 709 c 0,11,12
 452 666 452 666 452 566 c 0,13,14
 452 530 452 530 461 487 c 2,15,-1
 479 395 l 1,16,17
 570 503 570 503 643 539 c 0,18,19
 678 556 678 556 715 556 c 2,20,21
 715 556 715 556 734 556 c 0,22,23
 745 556 745 556 771 545.5 c 128,-1,24
 797 535 797 535 813 520 c 0,25,26
 851 487 851 487 861 451 c 0,27,28
 877 394 877 394 877 350 c 0,29,30
 877 345 877 345 877 340 c 1,31,-1
 899 341 l 2,32,33
 909 341 909 341 909 328.5 c 128,-1,34
 909 316 909 316 899 316 c 2,35,-1
 710 312 l 2,36,37
 699 312 699 312 699 324.5 c 128,-1,38
 699 337 699 337 710 337 c 2,39,-1
 758 338 l 1,40,41
 758 379 758 379 751.5 411 c 128,-1,42
 745 443 745 443 721.5 463.5 c 128,-1,43
 698 484 698 484 669 484 c 0,44,45
 621 484 621 484 574 449 c 1,46,47
 574 449 574 449 531 411 c 1,48,-1
 485 367 l 1,49,50
 503 270 503 270 503 108 c 0,51,52
 503 84 503 84 496.5 59 c 128,-1,53
 490 34 490 34 482 22 c 1,54,55
 511 17 511 17 536 17 c 128,-1,56
 561 17 561 17 592 33 c 128,-1,57
 623 49 623 49 645 74 c 1,58,59
 696 126 696 126 698 180 c 1,60,-1
 648 196 l 2,61,62
 641 199 641 199 641 205 c 0,63,64
 641 206 641 206 641 207 c 0,65,66
 641 220 641 220 652 220 c 0,67,68
 653 220 653 220 654 220 c 2,69,-1
 868 158 l 2,70,71
 877 155 877 155 877 148 c 2,72,-1
 877 145 l 2,73,74
 877 133 877 133 865 133 c 2,75,76
 865 133 865 133 862 133 c 2,77,-1
 822 144 l 1,78,79
 803 89 803 89 713.5 40.5 c 128,-1,80
 624 -8 624 -8 531 -8 c 128,-1,81
 438 -8 438 -8 432 4 c 0,82,83
 430 8 430 8 430 14 c 128,-1,84
 430 20 430 20 440 39.5 c 128,-1,85
 450 59 450 59 450 100 c 128,-1,86
 450 141 450 141 422 204 c 1,87,-1
 397 254 l 2,88,89
 383 281 383 281 368 322.5 c 128,-1,90
 353 364 353 364 350 376 c 128,-1,91
 347 388 347 388 341.5 406.5 c 128,-1,92
 336 425 336 425 332 441 c 1,93,-1
 220 400 l 1,94,-1
 220 25 l 1,95,-1
 261 25 l 1,96,-1
 261 0 l 1,97,-1
 56 0 l 1,98,-1
 56 25 l 1,99,-1
 97 25 l 1,100,-1
 97 764 l 1,101,-1
 56 764 l 1,102,-1
 56 788 l 1,103,-1
 261 788 l 1,104,-1
 261 764 l 1,105,-1
 220 764 l 1,106,-1
 220 430 l 1,107,-1
 328 469 l 1,108,109
 326 492 326 492 326 519 c 0,110,111
 326 638 326 638 409 717.5 c 128,-1,112
 492 797 492 797 607 797 c 0,113,114
 770 797 770 797 825 712 c 0,115,116
 841 687 841 687 849 662 c 1,117,-1
 888 665 l 2,118,119
 899 665 899 665 899 652.5 c 128,-1,120
 899 640 899 640 890 640 c 2,121,-1
 659 626 l 2,0,1
EndSplineSet
EndChar

StartChar: jest
Encoding: 1125 1125 104
Width: 530
GlyphClass: 2
Flags: W
LayerCount: 2
Fore
SplineSet
176 453 m 1,0,1
 172 371 172 371 172 308 c 1,2,3
 249 336 249 336 251.5 337.5 c 128,-1,4
 254 339 254 339 280 379 c 1,5,6
 318 418 318 418 371.5 436.5 c 128,-1,7
 425 455 425 455 451 455 c 128,-1,8
 477 455 477 455 487 454 c 1,9,10
 489 434 489 434 489 421 c 0,11,12
 489 387 489 387 474 384 c 0,13,14
 383 366 383 366 352 329 c 1,15,-1
 348 315 l 2,16,17
 346 309 346 309 346 301 c 2,18,-1
 346 242 l 1,19,20
 395 272 395 272 474 300 c 1,21,22
 476 286 476 286 476 260 c 128,-1,23
 476 234 476 234 472 218 c 1,24,25
 402 195 402 195 348 148 c 1,26,-1
 348 78 l 1,27,28
 413 80 413 80 456 123 c 0,29,30
 458 125 458 125 461 125 c 0,31,32
 468 125 468 125 468 105 c 0,33,34
 468 103 468 103 468 101 c 0,35,36
 468 80 468 80 443.5 52.5 c 128,-1,37
 419 25 419 25 389 16 c 1,38,39
 328 0 328 0 303 0 c 2,40,-1
 271 0 l 2,41,42
 265 0 265 0 265 24 c 2,43,-1
 265 32 l 1,44,45
 267 51 267 51 267 68.5 c 128,-1,46
 267 86 267 86 259 141 c 128,-1,47
 251 196 251 196 251 251 c 2,48,-1
 252 309 l 1,49,-1
 171 280 l 1,50,-1
 170 246 l 2,51,52
 169 211 169 211 169 202 c 2,53,-1
 169 166 l 2,54,55
 169 93 169 93 176 0 c 1,56,57
 154 -4 154 -4 124 -4 c 256,58,59
 94 -4 94 -4 66 0 c 1,60,61
 61 53 61 53 61 156 c 2,62,-1
 61 193 l 2,63,64
 61 282 61 282 73 443 c 1,65,66
 124 453 124 453 145 453 c 2,67,-1
 176 453 l 1,0,1
EndSplineSet
EndChar

StartChar: Us_malyj
Encoding: 1126 1126 105
Width: 909
GlyphClass: 2
Flags: W
LayerCount: 2
Fore
SplineSet
823 134 m 0,0,1
 823 70 823 70 807 25 c 1,2,-1
 848 25 l 1,3,-1
 848 0 l 1,4,-1
 629 0 l 1,5,-1
 629 25 l 1,6,-1
 670 25 l 1,7,8
 701 68 701 68 701 143 c 1,9,-1
 700 145 l 1,10,11
 700 221 700 221 671 303 c 128,-1,12
 642 385 642 385 594 454 c 1,13,-1
 512 454 l 1,14,-1
 512 25 l 1,15,-1
 553 25 l 1,16,-1
 553 0 l 1,17,-1
 348 0 l 1,18,-1
 348 25 l 1,19,-1
 389 25 l 1,20,-1
 389 454 l 1,21,-1
 290 454 l 1,22,-1
 253 376 l 1,23,24
 190 228 190 228 190 146.5 c 128,-1,25
 190 65 190 65 232 25 c 1,26,-1
 273 25 l 1,27,-1
 273 0 l 1,28,-1
 61 0 l 1,29,-1
 61 25 l 1,30,-1
 102 25 l 1,31,32
 99 31 99 31 96 43 c 2,33,-1
 88 71 l 2,34,35
 79 105 79 105 79 150.5 c 128,-1,36
 79 196 79 196 99 246 c 128,-1,37
 119 296 119 296 147 339 c 128,-1,38
 175 382 175 382 206 418.5 c 128,-1,39
 237 455 237 455 271 500 c 128,-1,40
 305 545 305 545 340.5 626 c 128,-1,41
 376 707 376 707 390 764 c 1,42,-1
 289 764 l 2,43,44
 283 764 283 764 279.5 767.5 c 128,-1,45
 276 771 276 771 276 775.5 c 128,-1,46
 276 780 276 780 279.5 784 c 128,-1,47
 283 788 283 788 289 788 c 2,48,-1
 590 788 l 2,49,50
 602 788 602 788 602 776 c 128,-1,51
 602 764 602 764 590 764 c 2,52,-1
 509 764 l 1,53,54
 516 723 516 723 549 671 c 128,-1,55
 582 619 582 619 608 587 c 2,56,-1
 660 524 l 1,57,58
 823 340 823 340 823 134 c 0,0,1
577 478 m 1,59,60
 523 548 523 548 475 602.5 c 128,-1,61
 427 657 427 657 400 707 c 1,62,63
 372 613 372 613 302 478 c 1,64,-1
 577 478 l 1,59,60
EndSplineSet
EndChar

StartChar: us_malyj
Encoding: 1127 1127 106
Width: 637
GlyphClass: 2
Flags: W
LayerCount: 2
Fore
SplineSet
148 0 m 1,0,1
 128 -4 128 -4 101.5 -4 c 128,-1,2
 75 -4 75 -4 58 0 c 1,3,4
 49 20 49 20 49 46 c 0,5,6
 49 110 49 110 119 195 c 1,7,-1
 157 238 l 2,8,9
 222 311 222 311 247 386 c 0,10,11
 248 389 248 389 248 391 c 128,-1,12
 248 393 248 393 249 395 c 1,13,14
 242 404 242 404 239.5 414 c 128,-1,15
 237 424 237 424 234 431.5 c 128,-1,16
 231 439 231 439 231 451 c 1,17,18
 239 452 239 452 246.5 452 c 128,-1,19
 254 452 254 452 264 451 c 2,20,-1
 307 449 l 2,21,22
 339 447 339 447 372 442 c 1,23,24
 374 435 374 435 374 430 c 2,25,-1
 374 421 l 2,26,27
 374 416 374 416 375 409 c 1,28,29
 391 367 391 367 422 325 c 1,30,-1
 487 233 l 2,31,32
 522 185 522 185 553 135 c 128,-1,33
 584 85 584 85 594 35 c 0,34,35
 597 19 597 19 597 12 c 2,36,-1
 597 0 l 1,37,38
 579 -4 579 -4 544 -4 c 0,39,40
 507 -4 507 -4 484 0 c 1,41,42
 483 5 483 5 483 10 c 2,43,-1
 484 16 l 1,44,45
 484 23 484 23 471 62 c 0,46,47
 448 132 448 132 392 205 c 1,48,-1
 362 205 l 1,49,-1
 362 0 l 1,50,51
 336 -3 336 -3 306 -3 c 128,-1,52
 276 -3 276 -3 245 0 c 1,53,-1
 245 205 l 1,54,-1
 200 205 l 1,55,56
 198 203 198 203 198 202 c 0,57,58
 174 163 174 163 159 117 c 128,-1,59
 144 71 144 71 144 34 c 0,60,61
 144 33 144 33 148 0 c 1,0,1
373 229 m 1,62,-1
 319 296 l 1,63,64
 319 296 319 296 275 356 c 1,65,66
 265 309 265 309 215 229 c 1,67,-1
 373 229 l 1,62,-1
EndSplineSet
EndChar

StartChar: Jus_malyj
Encoding: 1128 1128 107
Width: 1130
GlyphClass: 2
Flags: W
LayerCount: 2
Fore
SplineSet
446 136 m 0,0,1
 446 65 446 65 488 25 c 1,2,-1
 529 25 l 1,3,-1
 529 0 l 1,4,-1
 317 0 l 1,5,-1
 317 25 l 1,6,-1
 358 25 l 1,7,8
 355 31 355 31 352 43 c 2,9,-1
 344 71 l 2,10,11
 335 105 335 105 335 151 c 0,12,13
 335 233 335 233 395 325.5 c 128,-1,14
 455 418 455 418 462 418 c 1,15,16
 297 413 297 413 225 408 c 1,17,-1
 225 25 l 1,18,-1
 287 25 l 1,19,-1
 287 0 l 1,20,-1
 41 0 l 1,21,-1
 41 25 l 1,22,-1
 102 25 l 1,23,-1
 102 764 l 1,24,-1
 41 764 l 1,25,-1
 41 788 l 1,26,-1
 287 788 l 1,27,-1
 287 764 l 1,28,-1
 225 764 l 1,29,-1
 225 434 l 1,30,-1
 489 452 l 1,31,-1
 514 483 l 1,32,33
 559 542 559 542 595 621.5 c 128,-1,34
 631 701 631 701 646 764 c 1,35,-1
 545 764 l 2,36,37
 532 764 532 764 532 776 c 128,-1,38
 532 788 532 788 545 788 c 2,39,-1
 846 788 l 2,40,41
 858 788 858 788 858 776 c 128,-1,42
 858 764 858 764 846 764 c 2,43,-1
 765 764 l 1,44,45
 772 722 772 722 805.5 670 c 128,-1,46
 839 618 839 618 864 587 c 2,47,-1
 916 524 l 1,48,49
 1026 399 1026 399 1065 252 c 0,50,51
 1079 198 1079 198 1079 134.5 c 128,-1,52
 1079 71 1079 71 1063 25 c 1,53,-1
 1104 25 l 1,54,-1
 1104 0 l 1,55,-1
 885 0 l 1,56,-1
 885 25 l 1,57,-1
 926 25 l 1,58,59
 957 69 957 69 957 143 c 1,60,-1
 956 145 l 1,61,62
 956 221 956 221 927 303 c 128,-1,63
 898 385 898 385 850 454 c 1,64,-1
 768 454 l 1,65,-1
 768 25 l 1,66,-1
 809 25 l 1,67,-1
 809 0 l 1,68,-1
 604 0 l 1,69,-1
 604 25 l 1,70,-1
 645 25 l 1,71,-1
 645 454 l 1,72,-1
 546 454 l 1,73,-1
 510 376 l 2,74,75
 446 236 446 236 446 136 c 0,0,1
833 478 m 1,76,77
 779 548 779 548 731 602.5 c 128,-1,78
 683 657 683 657 656 707 c 1,79,80
 626 609 626 609 558 478 c 1,81,-1
 833 478 l 1,76,77
EndSplineSet
EndChar

StartChar: jus_malyj
Encoding: 1129 1129 108
Width: 762
GlyphClass: 2
Flags: W
LayerCount: 2
Fore
SplineSet
147 113 m 0,0,1
 147 39 147 39 150 0 c 1,2,3
 122 -3 122 -3 95 -3 c 128,-1,4
 68 -3 68 -3 42 0 c 1,5,6
 41 14 41 14 41 35 c 2,7,-1
 41 78 l 2,8,9
 41 258 41 258 47 340 c 128,-1,10
 53 422 53 422 57 439 c 1,11,12
 100 451 100 451 125 451 c 2,13,-1
 156 451 l 1,14,15
 153 388 153 388 151 289 c 1,16,17
 197 302 197 302 230.5 306 c 128,-1,18
 264 310 264 310 292.5 316 c 128,-1,19
 321 322 321 322 332 322 c 128,-1,20
 343 322 343 322 346 319 c 1,21,22
 362 328 362 328 365 336 c 0,23,24
 371 357 371 357 378.5 372.5 c 128,-1,25
 386 388 386 388 386 390.5 c 128,-1,26
 386 393 386 393 387 395 c 1,27,28
 380 404 380 404 377.5 414 c 128,-1,29
 375 424 375 424 372.5 431.5 c 128,-1,30
 370 439 370 439 370 451 c 1,31,32
 377 452 377 452 384 452 c 2,33,-1
 403 452 l 1,34,35
 466 449 466 449 510 442 c 1,36,37
 512 435 512 435 512 430 c 2,38,-1
 512 421 l 2,39,40
 512 416 512 416 513 409 c 1,41,42
 529 367 529 367 559 325 c 2,43,-1
 626 233 l 2,44,45
 663 182 663 182 699 122 c 128,-1,46
 735 62 735 62 735 6 c 0,47,48
 735 3 735 3 735 0 c 1,49,50
 717 -4 717 -4 682 -4 c 0,51,52
 645 -4 645 -4 623 0 c 1,53,54
 622 5 622 5 622 10 c 2,55,-1
 623 16 l 1,56,57
 623 23 623 23 604 78 c 128,-1,58
 585 133 585 133 530 205 c 1,59,-1
 501 205 l 1,60,-1
 501 0 l 1,61,62
 474 -3 474 -3 444.5 -3 c 128,-1,63
 415 -3 415 -3 383 0 c 1,64,-1
 383 205 l 1,65,-1
 338 205 l 1,66,67
 336 203 336 203 336 202 c 0,68,69
 312 163 312 163 297.5 117 c 128,-1,70
 283 71 283 71 283 34 c 0,71,72
 283 33 283 33 287 0 c 1,73,74
 266 -4 266 -4 239.5 -4 c 128,-1,75
 213 -4 213 -4 197 0 c 1,76,77
 187 20 187 20 187 46 c 0,78,79
 187 112 187 112 258 195 c 2,80,-1
 295 238 l 2,81,82
 339 288 339 288 339 293 c 1,83,-1
 332 293 l 2,84,85
 325 293 325 293 285 289 c 1,86,-1
 246 283 l 2,87,88
 229 280 229 280 211 275 c 1,89,-1
 178 268 l 2,90,91
 164 265 164 265 150 261 c 1,92,93
 147 185 147 185 147 113 c 0,0,1
511 229 m 1,94,-1
 459 296 l 2,95,96
 434 327 434 327 414 356 c 1,97,98
 403 309 403 309 353 229 c 1,99,-1
 511 229 l 1,94,-1
EndSplineSet
EndChar

StartChar: Us_bolshoj
Encoding: 1130 1130 109
Width: 890
GlyphClass: 2
Flags: W
LayerCount: 2
Fore
SplineSet
344 737 m 1,0,-1
 482 545 l 1,1,-1
 499 523 l 1,2,3
 504 526 504 526 515 543 c 2,4,-1
 652 738 l 1,5,-1
 668 759 l 1,6,7
 668 759 668 759 327 759 c 1,8,-1
 344 737 l 1,0,-1
190 136 m 0,9,10
 190 65 190 65 232 25 c 1,11,-1
 273 25 l 1,12,-1
 273 0 l 1,13,-1
 61 0 l 1,14,-1
 61 25 l 1,15,-1
 102 25 l 1,16,17
 99 31 99 31 93.5 49.5 c 128,-1,18
 88 68 88 68 88 77.5 c 128,-1,19
 88 87 88 87 83.5 99 c 128,-1,20
 79 111 79 111 79 143 c 0,21,22
 79 245 79 245 178 361 c 0,23,24
 241 435 241 435 298 464 c 0,25,26
 302 466 302 466 372 503 c 1,27,-1
 194 758 l 1,28,29
 189 762 189 762 189 773 c 128,-1,30
 189 784 189 784 200 784 c 2,31,-1
 705 784 l 2,32,33
 715 784 715 784 715 774 c 128,-1,34
 715 764 715 764 711 758 c 2,35,-1
 528 504 l 1,36,37
 608 467 608 467 654.5 429.5 c 128,-1,38
 701 392 701 392 744 332 c 128,-1,39
 787 272 787 272 803 221 c 128,-1,40
 819 170 819 170 819 115 c 128,-1,41
 819 60 819 60 807 25 c 1,42,-1
 848 25 l 1,43,-1
 848 0 l 1,44,-1
 629 0 l 1,45,-1
 629 25 l 1,46,-1
 670 25 l 1,47,48
 685 46 685 46 698 88.5 c 128,-1,49
 711 131 711 131 711 162 c 0,50,51
 711 250 711 250 648 333.5 c 128,-1,52
 585 417 585 417 512 459 c 1,53,-1
 512 25 l 1,54,-1
 553 25 l 1,55,-1
 553 0 l 1,56,-1
 348 0 l 1,57,-1
 348 25 l 1,58,-1
 389 25 l 1,59,-1
 389 458 l 1,60,61
 318 411 318 411 301 393 c 0,62,63
 190 283 190 283 190 136 c 0,9,10
EndSplineSet
EndChar

StartChar: us_bolshoj
Encoding: 1131 1131 110
Width: 637
GlyphClass: 2
Flags: W
LayerCount: 2
Fore
SplineSet
248 400 m 1,0,1
 248 400 248 400 286 350 c 1,2,3
 286 350 286 350 345 281 c 1,4,5
 340 298 340 298 340 313 c 0,6,7
 340 366 340 366 403 389 c 1,8,-1
 248 400 l 1,0,1
158 450 m 1,9,10
 189 454 189 454 255 454 c 128,-1,11
 321 454 321 454 380.5 444 c 128,-1,12
 440 434 440 434 447.5 430 c 128,-1,13
 455 426 455 426 455 422 c 0,14,15
 455 400 455 400 440.5 381 c 128,-1,16
 426 362 426 362 406 344 c 128,-1,17
 386 326 386 326 386 303.5 c 128,-1,18
 386 281 386 281 409 273.5 c 128,-1,19
 432 266 432 266 462 237.5 c 128,-1,20
 492 209 492 209 500 200 c 0,21,22
 555 144 555 144 589 48 c 0,23,24
 597 25 597 25 597 13 c 2,25,-1
 597 0 l 1,26,27
 579 -4 579 -4 544 -4 c 0,28,29
 507 -4 507 -4 484 0 c 1,30,31
 483 2 483 2 483 17.5 c 128,-1,32
 483 33 483 33 466 84 c 2,33,-1
 446 144 l 1,34,35
 416 190 416 190 362 228 c 1,36,-1
 362 0 l 1,37,38
 336 -3 336 -3 306 -3 c 128,-1,39
 276 -3 276 -3 245 0 c 1,40,-1
 245 228 l 1,41,42
 216 210 216 210 192 178 c 0,43,44
 144 114 144 114 144 36 c 0,45,46
 144 35 144 35 144 34 c 128,-1,47
 144 33 144 33 148 0 c 1,48,49
 128 -4 128 -4 101.5 -4 c 128,-1,50
 75 -4 75 -4 58 0 c 1,51,52
 49 21 49 21 49 41 c 0,53,54
 49 112 49 112 110 170 c 2,55,-1
 180 236 l 1,56,-1
 234 280 l 1,57,-1
 245 312 l 1,58,59
 245 328 245 328 224 344 c 0,60,61
 181 376 181 376 171 402 c 128,-1,62
 161 428 161 428 158 450 c 1,9,10
EndSplineSet
EndChar

StartChar: Jus_bolshoj
Encoding: 1132 1132 111
Width: 890
GlyphClass: 2
Flags: W
LayerCount: 2
Fore
SplineSet
593 759 m 1,0,-1
 765 523 l 1,1,2
 770 526 770 526 781 543 c 2,3,-1
 934 759 l 1,4,-1
 593 759 l 1,0,-1
457 136 m 0,5,6
 457 65 457 65 499 25 c 1,7,-1
 540 25 l 1,8,-1
 540 0 l 1,9,-1
 328 0 l 1,10,-1
 328 25 l 1,11,-1
 369 25 l 1,12,13
 366 31 366 31 360 49.5 c 128,-1,14
 354 68 354 68 354 77.5 c 128,-1,15
 354 87 354 87 349.5 99 c 128,-1,16
 345 111 345 111 345 144.5 c 128,-1,17
 345 178 345 178 357 215 c 0,18,19
 388 306 388 306 438 354 c 0,20,21
 513 426 513 426 513 430 c 1,22,-1
 225 406 l 1,23,-1
 225 25 l 1,24,-1
 287 25 l 1,25,-1
 287 0 l 1,26,-1
 41 0 l 1,27,-1
 41 25 l 1,28,-1
 102 25 l 1,29,-1
 102 764 l 1,30,-1
 41 764 l 1,31,-1
 41 788 l 1,32,-1
 287 788 l 1,33,-1
 287 764 l 1,34,-1
 225 764 l 1,35,-1
 225 434 l 1,36,-1
 564 464 l 1,37,38
 568 466 568 466 638 503 c 1,39,-1
 460 758 l 2,40,41
 456 762 456 762 456 773 c 128,-1,42
 456 784 456 784 466 784 c 2,43,-1
 971 784 l 2,44,45
 981 784 981 784 981 773.5 c 128,-1,46
 981 763 981 763 977 758 c 2,47,-1
 795 504 l 1,48,49
 874 467 874 467 921 429.5 c 128,-1,50
 968 392 968 392 1011 331.5 c 128,-1,51
 1054 271 1054 271 1069.5 221.5 c 128,-1,52
 1085 172 1085 172 1085 116 c 128,-1,53
 1085 60 1085 60 1073 25 c 1,54,-1
 1114 25 l 1,55,-1
 1114 0 l 1,56,-1
 895 0 l 1,57,-1
 895 25 l 1,58,-1
 936 25 l 1,59,60
 953 49 953 49 965 86.5 c 128,-1,61
 977 124 977 124 977 143 c 0,62,63
 977 250 977 250 897 354 c 0,64,65
 849 417 849 417 778 459 c 1,66,-1
 778 25 l 1,67,-1
 819 25 l 1,68,-1
 819 0 l 1,69,-1
 614 0 l 1,70,-1
 614 25 l 1,71,-1
 655 25 l 1,72,-1
 655 458 l 1,73,74
 585 411 585 411 567 393 c 0,75,76
 457 283 457 283 457 136 c 0,5,6
EndSplineSet
EndChar

StartChar: jus_bolshoj
Encoding: 1133 1133 112
Width: 769
GlyphClass: 2
Flags: W
LayerCount: 2
Fore
SplineSet
291 450 m 1,0,1
 322 454 322 454 388 454 c 128,-1,2
 454 454 454 454 513.5 444 c 128,-1,3
 573 434 573 434 580.5 430 c 128,-1,4
 588 426 588 426 588 422 c 0,5,6
 588 400 588 400 573.5 381 c 128,-1,7
 559 362 559 362 539 344 c 128,-1,8
 519 326 519 326 519 303.5 c 128,-1,9
 519 281 519 281 542 273.5 c 128,-1,10
 565 266 565 266 588 244 c 2,11,12
 588 244 588 244 633 200 c 0,13,14
 687 146 687 146 722 48 c 0,15,16
 730 25 730 25 730 13 c 2,17,-1
 730 0 l 1,18,19
 712 -4 712 -4 676 -4 c 128,-1,20
 640 -4 640 -4 617 0 c 1,21,22
 616 2 616 2 616 17.5 c 128,-1,23
 616 33 616 33 599 84 c 2,24,-1
 579 144 l 1,25,26
 549 190 549 190 495 228 c 1,27,-1
 495 0 l 1,28,29
 469 -3 469 -3 439 -3 c 128,-1,30
 409 -3 409 -3 378 0 c 1,31,-1
 378 228 l 1,32,33
 349 210 349 210 325 178 c 0,34,35
 277 114 277 114 277 36 c 2,36,-1
 277 34 l 2,37,38
 277 33 277 33 281 0 c 1,39,40
 261 -4 261 -4 234.5 -4 c 128,-1,41
 208 -4 208 -4 191 0 c 1,42,43
 182 21 182 21 182 41 c 0,44,45
 182 112 182 112 243 170 c 2,46,-1
 313 236 l 1,47,-1
 367 280 l 1,48,-1
 372 294 l 1,49,50
 372 294 372 294 340 294 c 0,51,52
 316 294 316 294 285 289 c 2,53,-1
 246 283 l 2,54,55
 232 281 232 281 211 275 c 1,56,-1
 178 268 l 2,57,58
 164 265 164 265 150 261 c 1,59,60
 147 185 147 185 147 112 c 128,-1,61
 147 39 147 39 150 0 c 1,62,63
 122 -3 122 -3 95 -3 c 128,-1,64
 68 -3 68 -3 42 0 c 1,65,66
 41 14 41 14 41 35 c 2,67,-1
 41 78 l 2,68,69
 41 258 41 258 47 340 c 128,-1,70
 53 422 53 422 57 439 c 1,71,72
 100 451 100 451 125 451 c 2,73,-1
 156 451 l 1,74,75
 153 388 153 388 151 289 c 1,76,77
 174 296 174 296 206 302 c 1,78,79
 221 302 221 302 253 310.5 c 128,-1,80
 285 319 285 319 375 324 c 1,81,82
 370 334 370 334 357 344 c 0,83,84
 313 378 313 378 303.5 403 c 128,-1,85
 294 428 294 428 291 450 c 1,0,1
381 400 m 1,86,-1
 419 350 l 1,87,-1
 478 281 l 1,88,89
 473 298 473 298 473 313 c 0,90,91
 473 366 473 366 536 389 c 1,92,-1
 381 400 l 1,86,-1
EndSplineSet
EndChar

StartChar: Ksy
Encoding: 1134 1134 113
Width: 715
GlyphClass: 2
Flags: W
LayerCount: 2
Fore
SplineSet
450 -163 m 2,0,1
 450 -163 450 -163 479 -163 c 0,2,3
 551 -163 551 -163 600 -215 c 0,4,5
 617 -233 617 -233 619.5 -255.5 c 128,-1,6
 622 -278 622 -278 622 -289 c 128,-1,7
 622 -300 622 -300 618 -317 c 1,8,9
 603 -323 603 -323 573 -323 c 128,-1,10
 543 -323 543 -323 495 -309 c 1,11,12
 501 -287 501 -287 501 -254 c 0,13,14
 501 -216 501 -216 422 -208 c 0,15,16
 412 -207 412 -207 396 -207 c 0,17,18
 364 -207 364 -207 332 -237 c 0,19,20
 269 -295 269 -295 164 -295 c 0,21,22
 110 -295 110 -295 74 -255.5 c 128,-1,23
 38 -216 38 -216 38 -158 c 0,24,25
 38 -4 38 -4 206 -4 c 0,26,27
 230 -4 230 -4 266 -13 c 1,28,-1
 298 -22 l 2,29,30
 310 -25 310 -25 333.5 -32 c 128,-1,31
 357 -39 357 -39 391 -39 c 0,32,33
 452 -39 452 -39 487 6.5 c 128,-1,34
 522 52 522 52 522 115 c 0,35,36
 522 227 522 227 434 268 c 0,37,38
 402 283 402 283 363 283 c 128,-1,39
 324 283 324 283 295 266 c 0,40,41
 239 234 239 234 215 178 c 0,42,43
 202 146 202 146 202 128.5 c 128,-1,44
 202 111 202 111 203 98 c 2,45,-1
 205 75 l 1,46,-1
 230 74 l 2,47,48
 242 74 242 74 242 61.5 c 128,-1,49
 242 49 242 49 230 49 c 0,50,51
 229 49 229 49 228 49 c 2,52,-1
 42 59 l 2,53,54
 31 60 31 60 31 72 c 128,-1,55
 31 84 31 84 42 84 c 0,56,57
 43 84 43 84 44 84 c 2,58,-1
 69 82 l 1,59,60
 70 92 70 92 71 107 c 128,-1,61
 72 122 72 122 74 137 c 0,62,63
 89 250 89 250 184 293 c 0,64,65
 250 323 250 323 354 323 c 0,66,67
 383 323 383 323 414 318 c 1,68,69
 467 331 467 331 489.5 365 c 128,-1,70
 512 399 512 399 512 437 c 0,71,72
 512 509 512 509 476.5 550.5 c 128,-1,73
 441 592 441 592 368.5 592 c 128,-1,74
 296 592 296 592 256 528 c 0,75,76
 228 484 228 484 228 438 c 0,77,78
 228 430 228 430 229 423 c 1,79,-1
 248 423 l 2,80,81
 260 423 260 423 260 410.5 c 128,-1,82
 260 398 260 398 248 398 c 2,83,-1
 74 396 l 2,84,85
 61 396 61 396 61 408.5 c 128,-1,86
 61 421 61 421 74 421 c 2,87,-1
 94 421 l 1,88,89
 98 583 98 583 251 617 c 1,90,-1
 157 786 l 1,91,-1
 126 791 l 2,92,93
 114 793 114 793 114 804 c 128,-1,94
 114 815 114 815 124 815 c 0,95,96
 125 815 125 815 126 815 c 2,97,-1
 270 799 l 2,98,99
 283 797 283 797 283 787 c 2,100,-1
 283 784 l 1,101,-1
 327 652 l 1,102,-1
 336 680 l 2,103,104
 345 709 345 709 358.5 726 c 128,-1,105
 372 743 372 743 377 746 c 0,106,107
 443 786 443 786 464 796.5 c 128,-1,108
 485 807 485 807 502.5 811.5 c 128,-1,109
 520 816 520 816 521 816 c 0,110,111
 529 816 529 816 529 798.5 c 128,-1,112
 529 781 529 781 517 759.5 c 128,-1,113
 505 738 505 738 489 733 c 1,114,115
 445 727 445 727 394 694 c 1,116,-1
 375 664 l 2,117,118
 362 645 362 645 355 629 c 1,119,120
 540 629 540 629 602 541 c 0,121,122
 626 508 626 508 626 447.5 c 128,-1,123
 626 387 626 387 592 351.5 c 128,-1,124
 558 316 558 316 484 302 c 1,125,126
 646 245 646 245 646 89 c 0,127,128
 646 -1 646 -1 576 -57 c 128,-1,129
 506 -113 506 -113 414 -113 c 0,130,131
 384 -113 384 -113 358 -103 c 1,132,-1
 266 -72 l 1,133,134
 244 -66 244 -66 212.5 -66 c 128,-1,135
 181 -66 181 -66 159.5 -94.5 c 128,-1,136
 138 -123 138 -123 138 -162 c 128,-1,137
 138 -201 138 -201 162.5 -222 c 128,-1,138
 187 -243 187 -243 213 -243 c 128,-1,139
 239 -243 239 -243 261.5 -234.5 c 128,-1,140
 284 -226 284 -226 328 -194.5 c 128,-1,141
 372 -163 372 -163 450 -163 c 2,0,1
EndSplineSet
EndChar

StartChar: ksy
Encoding: 1135 1135 114
Width: 483
GlyphClass: 2
Flags: W
LayerCount: 2
Fore
SplineSet
264 20 m 0,0,1
 336 20 336 20 336 110 c 0,2,3
 336 146 336 146 322 170 c 1,4,5
 294 213 294 213 258.5 213 c 128,-1,6
 223 213 223 213 208 197.5 c 128,-1,7
 193 182 193 182 182 162 c 1,8,9
 177 146 177 146 177 133 c 2,10,-1
 177 108 l 1,11,12
 151 103 151 103 120 103 c 256,13,14
 89 103 89 103 67 108 c 1,15,-1
 67 153 l 2,16,17
 67 195 67 195 102 217 c 0,18,19
 160 253 160 253 201 253 c 0,20,21
 221 253 221 253 249 242 c 1,22,-1
 267 244 l 1,23,-1
 279 244 l 2,24,25
 289 244 289 244 299 242 c 1,26,27
 300 247 300 247 301 251.5 c 128,-1,28
 302 256 302 256 303 261 c 1,29,30
 329 301 329 301 329 339.5 c 128,-1,31
 329 378 329 378 305 402.5 c 128,-1,32
 281 427 281 427 245.5 427 c 128,-1,33
 210 427 210 427 187 398.5 c 128,-1,34
 164 370 164 370 164 333 c 2,35,-1
 164 296 l 1,36,37
 137 292 137 292 105 292 c 128,-1,38
 73 292 73 292 56 296 c 1,39,-1
 56 337 l 2,40,41
 56 354 56 354 70 379 c 0,42,43
 103 440 103 440 185 451 c 1,44,45
 164 526 164 526 113 591 c 0,46,47
 109 596 109 596 115 598 c 0,48,49
 125 601 125 601 149 601 c 128,-1,50
 173 601 173 601 187 598 c 1,51,52
 222 568 222 568 245 485 c 1,53,54
 254 525 254 525 264 553 c 1,55,56
 284 580 284 580 299 594 c 1,57,58
 313 595 313 595 326.5 597 c 128,-1,59
 340 599 340 599 355 599 c 128,-1,60
 370 599 370 599 370 589 c 0,61,62
 370 587 370 587 368 585 c 2,63,-1
 294 523 l 1,64,65
 281 496 281 496 274 453 c 1,66,67
 352 449 352 449 384 419 c 0,68,69
 419 386 419 386 419 345 c 128,-1,70
 419 304 419 304 408 280 c 1,71,72
 378 251 378 251 335 233 c 1,73,74
 374 219 374 219 400.5 188.5 c 128,-1,75
 427 158 427 158 427 117 c 0,76,77
 427 43 427 43 385 12 c 128,-1,78
 343 -19 343 -19 280 -19 c 0,79,80
 262 -19 262 -19 234.5 -8 c 128,-1,81
 207 3 207 3 181 3 c 128,-1,82
 155 3 155 3 140 -20 c 128,-1,83
 125 -43 125 -43 125 -70 c 0,84,85
 125 -116 125 -116 151 -140.5 c 128,-1,86
 177 -165 177 -165 200.5 -165 c 128,-1,87
 224 -165 224 -165 245 -152 c 128,-1,88
 266 -139 266 -139 279 -137 c 2,89,-1
 301 -133 l 1,90,91
 377 -138 377 -138 395 -161 c 1,92,93
 406 -173 406 -173 406 -181.5 c 128,-1,94
 406 -190 406 -190 403 -196 c 1,95,96
 388 -208 388 -208 372 -208 c 128,-1,97
 356 -208 356 -208 346 -206 c 1,98,99
 335 -176 335 -176 307 -165 c 1,100,101
 296 -167 296 -167 287 -170 c 0,102,103
 241 -186 241 -186 180.5 -186 c 128,-1,104
 120 -186 120 -186 88 -148.5 c 128,-1,105
 56 -111 56 -111 56 -55 c 0,106,107
 56 -32 56 -32 68 -17.5 c 128,-1,108
 80 -3 80 -3 111.5 20 c 128,-1,109
 143 43 143 43 170.5 43 c 128,-1,110
 198 43 198 43 227.5 31.5 c 128,-1,111
 257 20 257 20 264 20 c 0,0,1
EndSplineSet
EndChar

StartChar: Psy
Encoding: 1136 1136 115
Width: 905
GlyphClass: 2
Flags: W
LayerCount: 2
Fore
SplineSet
375 1034 m 1,0,-1
 369 1034 l 1,1,2
 369 1034 369 1034 366 1033 c 1,3,4
 360 1037 360 1037 360 1047 c 128,-1,5
 360 1057 360 1057 371 1059 c 2,6,-1
 601 1098 l 1,7,-1
 604 1098 l 2,8,9
 615 1098 615 1098 615 1086.5 c 128,-1,10
 615 1075 615 1075 605 1073 c 2,11,-1
 577 1068 l 1,12,13
 571 1017 571 1017 566 943 c 2,14,-1
 555 780 l 2,15,16
 525 340 525 340 525 38 c 2,17,-1
 525 25 l 1,18,-1
 635 25 l 1,19,-1
 635 197 l 2,20,21
 635 486 635 486 702 679 c 0,22,23
 742 796 742 796 834 796 c 0,24,25
 855 796 855 796 872 790 c 2,26,-1
 905 779 l 1,27,28
 898 713 898 713 870 630 c 1,29,-1
 861 628 l 1,30,31
 856 628 856 628 849.5 639 c 128,-1,32
 843 650 843 650 833.5 663 c 128,-1,33
 824 676 824 676 808 676 c 128,-1,34
 792 676 792 676 774 666 c 0,35,36
 739 647 739 647 720 608 c 0,37,38
 659 484 659 484 659 186 c 2,39,-1
 659 0 l 1,40,-1
 525 0 l 1,41,-1
 525 -30 l 2,42,43
 525 -98 525 -98 591 -123 c 0,44,45
 602 -127 602 -127 602 -139.5 c 128,-1,46
 602 -152 602 -152 591 -154 c 0,47,48
 561 -159 561 -159 538 -179 c 0,49,50
 498 -212 498 -212 490 -237 c 0,51,52
 486 -249 486 -249 473 -249 c 128,-1,53
 460 -249 460 -249 457 -237 c 0,54,55
 451 -213 451 -213 420 -186 c 1,56,57
 388 -160 388 -160 357 -154 c 0,58,59
 346 -152 346 -152 346 -139.5 c 128,-1,60
 346 -127 346 -127 357 -123 c 0,61,62
 423 -98 423 -98 423 -30 c 2,63,-1
 423 0 l 1,64,-1
 223 0 l 1,65,66
 214 402 214 402 102 660 c 0,67,68
 74 725 74 725 37 776 c 1,69,-1
 43 788 l 1,70,71
 62 791 62 791 107.5 791 c 128,-1,72
 153 791 153 791 174 788 c 1,73,74
 232 705 232 705 287 440 c 128,-1,75
 342 175 342 175 342 25 c 1,76,-1
 423 25 l 1,77,-1
 423 38 l 2,78,79
 423 110 423 110 422 196 c 2,80,-1
 421 375 l 1,81,82
 421 836 421 836 403 1038 c 1,83,-1
 375 1034 l 1,0,-1
EndSplineSet
EndChar

StartChar: psy
Encoding: 1137 1137 116
Width: 723
GlyphClass: 2
Flags: W
LayerCount: 2
Fore
SplineSet
675 386 m 1,0,-1
 678 347 l 2,1,2
 679 340 679 340 673.5 340 c 128,-1,3
 668 340 668 340 656.5 348 c 128,-1,4
 645 356 645 356 614 356 c 0,5,6
 564 356 564 356 535 319 c 128,-1,7
 506 282 506 282 504 214 c 2,8,-1
 497 0 l 1,9,-1
 395 0 l 1,10,11
 393 -67 393 -67 391 -125 c 2,12,-1
 386 -229 l 1,13,14
 397 -226 397 -226 403 -226 c 0,15,16
 415 -226 415 -226 415 -240 c 0,17,18
 415 -246 415 -246 397 -250 c 128,-1,19
 379 -254 379 -254 377 -254 c 128,-1,20
 375 -254 375 -254 345 -258 c 128,-1,21
 315 -262 315 -262 274 -262 c 0,22,23
 263 -262 263 -262 263 -251.5 c 128,-1,24
 263 -241 263 -241 274 -241 c 2,25,-1
 310 -240 l 1,26,27
 310 -247 310 -247 311 -250 c 1,28,29
 311 -230 311 -230 304 0 c 1,30,-1
 141 0 l 1,31,32
 138 189 138 189 85 356 c 0,33,34
 73 395 73 395 50 440 c 0,35,36
 49 441 49 441 55 446 c 128,-1,37
 61 451 61 451 100.5 451 c 128,-1,38
 140 451 140 451 170 447 c 1,39,40
 219 346 219 346 236 166 c 0,41,42
 242 100 242 100 242 25 c 1,43,-1
 304 25 l 1,44,45
 299 209 299 209 299 317 c 1,46,47
 297 375 297 375 297 407 c 2,48,-1
 297 470 l 1,49,-1
 298 666 l 1,50,-1
 282 666 l 2,51,52
 275 666 275 666 264 667 c 128,-1,53
 253 668 253 668 253 678.5 c 128,-1,54
 253 689 253 689 264 689 c 0,55,56
 330 689 330 689 352.5 691 c 128,-1,57
 375 693 375 693 401 694.5 c 128,-1,58
 427 696 427 696 438.5 698 c 128,-1,59
 450 700 450 700 456.5 700 c 128,-1,60
 463 700 463 700 463 688 c 0,61,62
 463 679 463 679 444.5 677 c 128,-1,63
 426 675 426 675 417 673 c 1,64,65
 417 651 417 651 414 553 c 128,-1,66
 411 455 411 455 409 346 c 1,67,-1
 396 25 l 1,68,-1
 471 25 l 1,69,-1
 480 251 l 2,70,71
 485 367 485 367 518 412 c 0,72,73
 531 430 531 430 562 446.5 c 128,-1,74
 593 463 593 463 616 469 c 1,75,76
 655 471 655 471 678.5 471 c 128,-1,77
 702 471 702 471 702 465 c 0,78,79
 702 463 702 463 701 462 c 2,80,-1
 687 434 l 2,81,82
 675 410 675 410 675 386 c 1,0,-1
EndSplineSet
EndChar

StartChar: Fita
Encoding: 1138 1138 117
Width: 878
GlyphClass: 2
Flags: W
LayerCount: 2
Fore
SplineSet
377 -8 m 0,0,1
 351 -8 351 -8 351 7 c 0,2,3
 351 11 351 11 354 19.5 c 128,-1,4
 357 28 357 28 357 42 c 128,-1,5
 357 56 357 56 342 88 c 128,-1,6
 327 120 327 120 307.5 146 c 128,-1,7
 288 172 288 172 279 188 c 2,8,-1
 251 238 l 2,9,10
 236 264 236 264 229 283 c 1,11,-1
 214 283 l 1,12,13
 201 272 201 272 196 248 c 2,14,-1
 185 199 l 2,15,16
 178 165 178 165 174 101 c 128,-1,17
 170 37 170 37 170 22 c 0,18,19
 170 16 170 16 162 17 c 128,-1,20
 154 18 154 18 153 24 c 0,21,22
 135 133 135 133 72 223 c 2,23,-1
 30 283 l 2,24,25
 27 287 27 287 27 297 c 128,-1,26
 27 307 27 307 35 307 c 2,27,-1
 221 307 l 1,28,29
 209 345 209 345 209 388 c 0,30,31
 209 472 209 472 241 544.5 c 128,-1,32
 273 617 273 617 325 673 c 128,-1,33
 377 729 377 729 437.5 763 c 128,-1,34
 498 797 498 797 549 797 c 0,35,36
 554 797 554 797 558.5 792 c 128,-1,37
 563 787 563 787 561 784 c 0,38,39
 547 759 547 759 547 732 c 128,-1,40
 547 705 547 705 574 657 c 1,41,-1
 599 616 l 2,42,43
 634 559 634 559 657 484.5 c 128,-1,44
 680 410 680 410 680 340 c 0,45,46
 680 324 680 324 678 307 c 1,47,-1
 834 307 l 1,48,-1
 834 283 l 1,49,-1
 814 283 l 1,50,-1
 814 31 l 1,51,-1
 699 31 l 1,52,-1
 699 283 l 1,53,-1
 674 283 l 1,54,55
 648 160 648 160 514 51 c 0,56,57
 440 -8 440 -8 377 -8 c 0,0,1
525 767 m 1,58,-1
 522 771 l 1,59,60
 502 771 502 771 451 737 c 1,61,62
 402 691 402 691 370.5 592 c 128,-1,63
 339 493 339 493 339 391 c 2,64,-1
 339 347 l 2,65,66
 339 327 339 327 341 307 c 1,67,-1
 551 307 l 1,68,69
 551 373 551 373 536 451 c 1,70,-1
 521 514 l 1,71,72
 505 587 505 587 505 642.5 c 128,-1,73
 505 698 505 698 525 767 c 1,58,-1
344 283 m 1,74,75
 350 232 350 232 370 185.5 c 128,-1,76
 390 139 390 139 390 90 c 128,-1,77
 390 41 390 41 383 16 c 1,78,79
 437 19 437 19 499 71 c 1,80,81
 530 121 530 121 539.5 165.5 c 128,-1,82
 549 210 549 210 551 283 c 1,83,-1
 344 283 l 1,74,75
EndSplineSet
EndChar

StartChar: fita
Encoding: 1139 1139 118
Width: 757
GlyphClass: 2
Flags: W
LayerCount: 2
Fore
SplineSet
29 -10 m 1,0,-1
 25 -10 l 2,1,2
 14 -10 14 -10 14 0 c 128,-1,3
 14 10 14 10 28 15 c 128,-1,4
 42 20 42 20 269 24 c 1,5,-1
 269 71 l 2,6,7
 269 110 269 110 276 179 c 1,8,9
 298 365 298 365 372 476 c 0,10,11
 374 479 374 479 376.5 479 c 128,-1,12
 379 479 379 479 382 476 c 0,13,14
 452 407 452 407 478 185 c 0,15,16
 485 126 485 126 485 84 c 128,-1,17
 485 42 485 42 483 26 c 1,18,19
 710 20 710 20 729.5 14.5 c 128,-1,20
 749 9 749 9 749 0 c 0,21,22
 749 -16 749 -16 736 -26 c 0,23,24
 703 -50 703 -50 676 -133 c 0,25,26
 670 -151 670 -151 667 -178 c 0,27,28
 666 -187 666 -187 658.5 -187 c 128,-1,29
 651 -187 651 -187 649 -178 c 2,30,-1
 642 -134 l 1,31,-1
 636 -86 l 1,32,-1
 631 -41 l 2,33,34
 629 -19 629 -19 628 -5 c 1,35,36
 598 -1 598 -1 559 0 c 1,37,-1
 479 0 l 1,38,39
 464 -85 464 -85 415 -164 c 0,40,41
 389 -205 389 -205 379.5 -205 c 128,-1,42
 370 -205 370 -205 349 -172 c 0,43,44
 293 -82 293 -82 273 0 c 1,45,-1
 202 0 l 2,46,47
 167 0 167 0 132 -4 c 1,48,-1
 132 -29 l 1,49,50
 134 -59 134 -59 134 -103 c 2,51,-1
 134 -175 l 2,52,53
 134 -189 134 -189 133 -199 c 1,54,55
 120 -201 120 -201 91 -201 c 128,-1,56
 62 -201 62 -201 31 -187 c 1,57,58
 34 -126 34 -126 34 -79 c 128,-1,59
 34 -32 34 -32 29 -10 c 1,0,-1
401 225 m 0,60,61
 390 243 390 243 375 243 c 128,-1,62
 360 243 360 243 349 223 c 0,63,64
 321 172 321 172 321 25 c 1,65,66
 335 26 335 26 349 26 c 2,67,-1
 435 26 l 1,68,69
 432 175 432 175 401 225 c 0,60,61
EndSplineSet
EndChar

StartChar: Izhitsa
Encoding: 1140 1140 119
Width: 694
GlyphClass: 2
Flags: W
LayerCount: 2
Fore
SplineSet
613 797 m 2,0,-1
 663 801 l 2,1,2
 666 801 666 801 666 797.5 c 128,-1,3
 666 794 666 794 657.5 765.5 c 128,-1,4
 649 737 649 737 649 708.5 c 128,-1,5
 649 680 649 680 657 645 c 128,-1,6
 665 610 665 610 666.5 607 c 128,-1,7
 668 604 668 604 665 602 c 128,-1,8
 662 600 662 600 659 602 c 1,9,10
 610 662 610 662 552.5 662 c 128,-1,11
 495 662 495 662 469 616 c 128,-1,12
 443 570 443 570 438 481 c 2,13,-1
 410 25 l 1,14,-1
 478 25 l 1,15,-1
 478 0 l 1,16,-1
 165 0 l 1,17,18
 165 241 165 241 147 379 c 1,19,20
 113 667 113 667 40 776 c 0,21,22
 38 779 38 779 39 783.5 c 128,-1,23
 40 788 40 788 44 788 c 2,24,-1
 201 788 l 1,25,26
 276 599 276 599 276 25 c 1,27,-1
 385 25 l 1,28,-1
 414 483 l 2,29,30
 420 582 420 582 435 632.5 c 128,-1,31
 450 683 450 683 472 713 c 0,32,33
 531 790 531 790 613 797 c 2,0,-1
EndSplineSet
EndChar

StartChar: izhitsa
Encoding: 1141 1141 120
Width: 531
GlyphClass: 2
Flags: W
LayerCount: 2
Fore
SplineSet
470 451 m 2,0,1
 507 451 507 451 507 444 c 1,2,3
 508 442 508 442 506 439 c 2,4,-1
 496 418 l 1,5,6
 485 398 485 398 485 376 c 128,-1,7
 485 354 485 354 489 341 c 1,8,-1
 487 335 l 2,9,10
 486 332 486 332 480.5 332 c 128,-1,11
 475 332 475 332 456.5 338.5 c 128,-1,12
 438 345 438 345 414 345 c 0,13,14
 378 345 378 345 351 306 c 1,15,16
 328 239 328 239 314 145 c 128,-1,17
 300 51 300 51 300 25 c 2,18,-1
 300 0 l 1,19,-1
 266 -4 l 2,20,21
 251 -5 251 -5 233 -5 c 0,22,23
 207 -5 207 -5 195 -4 c 2,24,-1
 163 0 l 1,25,26
 152 170 152 170 81 358 c 0,27,28
 65 402 65 402 54.5 421.5 c 128,-1,29
 44 441 44 441 44 446 c 128,-1,30
 44 451 44 451 47 451 c 2,31,-1
 72 451 l 2,32,33
 113 451 113 451 162 442 c 1,34,35
 207 389 207 389 247 157 c 0,36,37
 257 98 257 98 262 47 c 1,38,-1
 273 47 l 1,39,40
 278 106 278 106 287 155 c 2,41,-1
 304 242 l 1,42,43
 343 423 343 423 438 451 c 1,44,-1
 470 451 l 2,0,1
EndSplineSet
EndChar

StartChar: On_shirokij
Encoding: 1146 1146 125
Width: 860
GlyphClass: 2
Flags: W
LayerCount: 2
Fore
SplineSet
804 393.5 m 128,-1,1
 804 234 804 234 728 124 c 128,-1,2
 652 14 652 14 504 -3 c 1,3,4
 498 -29 498 -29 477.5 -45 c 128,-1,5
 457 -61 457 -61 430 -61 c 256,6,7
 403 -61 403 -61 382 -45 c 128,-1,8
 361 -29 361 -29 356 -3 c 1,9,10
 208 14 208 14 132 124 c 128,-1,11
 56 234 56 234 56 393.5 c 128,-1,12
 56 553 56 553 132.5 663.5 c 128,-1,13
 209 774 209 774 356 792 c 1,14,15
 361 817 361 817 382 833.5 c 128,-1,16
 403 850 403 850 430 850 c 256,17,18
 457 850 457 850 477.5 833.5 c 128,-1,19
 498 817 498 817 504 792 c 1,20,21
 651 774 651 774 727.5 663.5 c 128,-1,0
 804 553 804 553 804 393.5 c 128,-1,1
618 92 m 0,22,23
 653 129 653 129 662.5 193 c 128,-1,24
 672 257 672 257 672 362 c 0,25,26
 672 565 672 565 649 637 c 0,27,28
 615 744 615 744 506 767 c 1,29,30
 503 737 503 737 481.5 717.5 c 128,-1,31
 460 698 460 698 430 698 c 256,32,33
 400 698 400 698 378 717.5 c 128,-1,34
 356 737 356 737 354 767 c 1,35,36
 215 739 215 739 199 575 c 1,37,38
 188 473 188 473 188 394 c 0,39,40
 188 324 188 324 195 252.5 c 128,-1,41
 202 181 202 181 211 151 c 0,42,43
 244 43 244 43 354 20 c 1,44,45
 356 50 356 50 378 70 c 128,-1,46
 400 90 400 90 430 90 c 256,47,48
 460 90 460 90 481.5 70 c 128,-1,49
 503 50 503 50 506 20 c 1,50,51
 562 33 562 33 618 92 c 0,22,23
EndSplineSet
EndChar

StartChar: on_shirokij
Encoding: 1147 1147 126
Width: 802
GlyphClass: 2
Flags: W
LayerCount: 2
Fore
SplineSet
452 450 m 1,0,1
 757 434 757 434 757 230 c 0,2,3
 757 126 757 126 679 67.5 c 128,-1,4
 601 9 601 9 453 1 c 1,5,6
 451 -17 451 -17 436 -30 c 128,-1,7
 421 -43 421 -43 401 -43 c 0,8,9
 382 -43 382 -43 367 -30 c 128,-1,10
 352 -17 352 -17 350 1 c 1,11,12
 201 9 201 9 123.5 67.5 c 128,-1,13
 46 126 46 126 46 230 c 0,14,15
 46 434 46 434 351 450 c 1,16,17
 355 467 355 467 369 478.5 c 128,-1,18
 383 490 383 490 401 490 c 128,-1,19
 419 490 419 490 433 478.5 c 128,-1,20
 447 467 447 467 452 450 c 1,0,1
401 58 m 0,21,22
 438 58 438 58 451 20 c 1,23,24
 550 33 550 33 601 100 c 0,25,26
 641 153 641 153 641 225 c 0,27,28
 641 343 641 343 542 402 c 0,29,30
 506 423 506 423 452 429 c 1,31,32
 447 412 447 412 433.5 400.5 c 128,-1,33
 420 389 420 389 401 389 c 0,34,35
 383 389 383 389 368.5 400.5 c 128,-1,36
 354 412 354 412 351 429 c 1,37,38
 253 418 253 418 202 351 c 0,39,40
 162 298 162 298 162 225 c 0,41,42
 162 108 162 108 260 49 c 0,43,44
 297 27 297 27 352 20 c 1,45,46
 357 37 357 37 370.5 47.5 c 128,-1,47
 384 58 384 58 401 58 c 0,21,22
EndSplineSet
EndChar

StartChar: uni0480
Encoding: 1152 1152 131
Width: 654
GlyphClass: 2
Flags: W
LayerCount: 2
Fore
SplineSet
501 28 m 2,0,1
 501 78 501 78 475 78 c 0,2,3
 456 78 456 78 422 49.5 c 128,-1,4
 388 21 388 21 301 -1 c 0,5,6
 281 -6 281 -6 229 -6 c 0,7,8
 213 -6 213 -6 213 7 c 1,9,-1
 217 45 l 2,10,11
 218 55 218 55 218 58 c 0,12,13
 218 120 218 120 137 221 c 128,-1,14
 56 322 56 322 56 441.5 c 128,-1,15
 56 561 56 561 133 668 c 0,16,17
 168 716 168 716 221.5 756.5 c 128,-1,18
 275 797 275 797 330 797 c 1,19,-1
 351 794 l 2,20,21
 419 784 419 784 488 707 c 128,-1,22
 557 630 557 630 565 555 c 1,23,-1
 588 555 l 2,24,25
 598 555 598 555 598 542 c 128,-1,26
 598 529 598 529 588 529 c 2,27,-1
 385 529 l 2,28,29
 374 529 374 529 374 542 c 128,-1,30
 374 555 374 555 385 555 c 2,31,-1
 437 555 l 1,32,33
 426 668 426 668 375 735 c 0,34,35
 359 756 359 756 343 765.5 c 128,-1,36
 327 775 327 775 318.5 775 c 128,-1,37
 310 775 310 775 300 770 c 0,38,39
 248 743 248 743 220.5 650.5 c 128,-1,40
 193 558 193 558 193 444.5 c 128,-1,41
 193 331 193 331 219 225 c 2,42,-1
 230 180 l 2,43,44
 249 102 249 102 249 60 c 2,45,-1
 249 52 l 1,46,-1
 248 30 l 2,47,48
 248 27 248 27 249 19 c 1,49,50
 254 18 254 18 260 18 c 0,51,52
 310 18 310 18 338 43 c 0,53,54
 439 133 439 133 441 286 c 1,55,-1
 545 242 l 1,56,-1
 545 -148 l 1,57,58
 542 -151 542 -151 454 -201 c 2,59,-1
 350 -260 l 1,60,61
 336 -264 336 -264 326 -264 c 0,62,63
 288 -264 288 -264 288 -193 c 0,64,65
 288 -159 288 -159 296 -114 c 0,66,67
 299 -97 299 -97 331 -77 c 128,-1,68
 363 -57 363 -57 377.5 -57 c 128,-1,69
 392 -57 392 -57 398 -62 c 1,70,-1
 398 -181 l 1,71,-1
 501 -118 l 1,72,-1
 501 28 l 2,0,1
EndSplineSet
EndChar

StartChar: uni0481
Encoding: 1153 1153 132
Width: 491
GlyphClass: 2
Flags: W
LayerCount: 2
Fore
SplineSet
448 178 m 0,0,1
 432 140 432 140 432 93 c 128,-1,2
 432 46 432 46 440 7 c 128,-1,3
 448 -32 448 -32 448 -57.5 c 128,-1,4
 448 -83 448 -83 427 -164 c 128,-1,5
 406 -245 406 -245 405 -278 c 2,6,-1
 403 -322 l 1,7,-1
 403 -343 l 1,8,-1
 404 -361 l 2,9,10
 404 -369 404 -369 394.5 -369 c 128,-1,11
 385 -369 385 -369 380 -363 c 0,12,13
 355 -333 355 -333 355 -270 c 128,-1,14
 355 -207 355 -207 363 -133 c 128,-1,15
 371 -59 371 -59 371 -52 c 2,16,-1
 371 -12 l 2,17,18
 371 5 371 5 361 47 c 0,19,20
 360 48 360 48 355 48 c 128,-1,21
 350 48 350 48 334 40 c 0,22,23
 332 38 332 38 193 -12 c 1,24,25
 190 -12 190 -12 176 -6 c 0,26,27
 145 7 145 7 111 50 c 128,-1,28
 77 93 77 93 61.5 129 c 128,-1,29
 46 165 46 165 46 222 c 128,-1,30
 46 279 46 279 76 331 c 0,31,32
 118 404 118 404 231 442 c 0,33,34
 278 458 278 458 284 458.5 c 128,-1,35
 290 459 290 459 296.5 459 c 128,-1,36
 303 459 303 459 332 438 c 0,37,38
 388 398 388 398 388 381 c 0,39,40
 388 376 388 376 385 374 c 2,41,-1
 369 361 l 2,42,43
 326 326 326 326 306 326 c 0,44,45
 296 326 296 326 294 330 c 0,46,47
 261 396 261 396 198 396 c 0,48,49
 182 396 182 396 162 386 c 0,50,51
 123 366 123 366 123 301.5 c 128,-1,52
 123 237 123 237 190 129 c 0,53,54
 239 51 239 51 291 51 c 0,55,56
 308 51 308 51 329 61 c 0,57,58
 368 80 368 80 368 108 c 0,59,60
 368 111 368 111 358 145 c 0,61,62
 349 179 349 179 349 188.5 c 128,-1,63
 349 198 349 198 350 201 c 1,64,-1
 373 201 l 2,65,66
 448 201 448 201 448 180 c 1,67,68
 449 180 449 180 448 178 c 0,0,1
EndSplineSet
EndChar

StartChar: tysjachja
Encoding: 1154 1154 133
Width: 229
GlyphClass: 2
Flags: W
LayerCount: 2
Fore
SplineSet
191 -45 m 1,0,-1
 148 -13 l 1,1,2
 143 -20 143 -20 138 -29 c 2,3,-1
 128 -45 l 1,4,-1
 175 -77 l 1,5,-1
 146 -109 l 1,6,7
 146 -109 146 -109 127 -96 c 1,8,9
 127 -96 127 -96 105 -79 c 1,10,11
 79 -115 79 -115 69 -136 c 1,12,-1
 30 -115 l 1,13,-1
 46 -89 l 2,14,15
 56 -73 56 -73 71 -52 c 1,16,17
 56 -43 56 -43 43 -34 c 2,18,-1
 20 -17 l 1,19,-1
 50 14 l 1,20,21
 58 9 58 9 69.5 0 c 128,-1,22
 81 -9 81 -9 94 -17 c 1,23,-1
 104 -3 l 2,24,25
 110 4 110 4 115 12 c 1,26,-1
 88 33 l 2,27,28
 75 42 75 42 67 49 c 1,29,-1
 92 82 l 1,30,31
 100 75 100 75 113 66 c 2,32,-1
 137 48 l 1,33,-1
 162 81 l 2,34,35
 173 96 173 96 178 108 c 1,36,-1
 215 85 l 1,37,38
 209 74 209 74 197.5 59 c 128,-1,39
 186 44 186 44 172 22 c 1,40,41
 200 2 200 2 217 -13 c 1,42,-1
 191 -45 l 1,0,-1
EndSplineSet
EndChar

StartChar: titlo
Encoding: 1155 1155 134
Width: 0
GlyphClass: 2
Flags: W
LayerCount: 2
Fore
SplineSet
-489 668 m 2,0,1
 -498 670 -498 670 -498 679 c 128,-1,2
 -498 688 -498 688 -490 688 c 2,3,4
 -490 688 -490 688 -487 688 c 2,5,-1
 -160 645 l 1,6,-1
 -160 751 l 1,7,-1
 -63 751 l 1,8,-1
 -63 633 l 1,9,-1
 -39 630 l 2,10,11
 -30 628 -30 628 -30 621.5 c 128,-1,12
 -30 615 -30 615 -33 611.5 c 128,-1,13
 -36 608 -36 608 -41 609 c 2,14,-1
 -370 652 l 1,15,-1
 -370 546 l 1,16,-1
 -467 546 l 1,17,-1
 -467 665 l 1,18,-1
 -489 668 l 2,0,1
EndSplineSet
EndChar

StartChar: kamora
Encoding: 1156 1156 135
Width: 0
GlyphClass: 2
Flags: W
LayerCount: 2
Fore
SplineSet
-243 646 m 0,0,1
 -283 646 -283 646 -306 608 c 0,2,3
 -325 578 -325 578 -325 530 c 2,4,-1
 -325 513 l 1,5,-1
 -383 513 l 1,6,-1
 -383 528 l 2,7,8
 -383 602 -383 602 -345 653 c 128,-1,9
 -307 704 -307 704 -243 704 c 0,10,11
 -178 704 -178 704 -139 650 c 1,12,13
 -103 602 -103 602 -103 528 c 2,14,-1
 -103 513 l 1,15,-1
 -161 513 l 1,16,-1
 -161 530 l 2,17,18
 -161 605 -161 605 -206 636 c 0,19,20
 -221 646 -221 646 -243 646 c 0,0,1
EndSplineSet
EndChar

StartChar: dasja
Encoding: 1157 1157 136
Width: 0
GlyphClass: 2
Flags: W
LayerCount: 2
Fore
SplineSet
-197.5 480.5 m 128,-1,1
 -186 469 -186 469 -186 465 c 128,-1,2
 -186 461 -186 461 -191 462 c 0,3,4
 -206 464 -206 464 -259.5 517 c 128,-1,5
 -313 570 -313 570 -313 649.5 c 128,-1,6
 -313 729 -313 729 -271 748 c 0,7,8
 -264 751 -264 751 -249 751 c 128,-1,9
 -234 751 -234 751 -192.5 719.5 c 128,-1,10
 -151 688 -151 688 -135 640 c 0,11,12
 -134 637 -134 637 -134 634 c 128,-1,13
 -134 631 -134 631 -138.5 631 c 128,-1,14
 -143 631 -143 631 -148 637 c 0,15,16
 -166 658 -166 658 -184.5 665 c 128,-1,17
 -203 672 -203 672 -210 672 c 2,18,-1
 -220 672 l 1,19,20
 -256 664 -256 664 -256 610 c 0,21,22
 -256 580 -256 580 -232.5 536 c 128,-1,0
 -209 492 -209 492 -197.5 480.5 c 128,-1,1
EndSplineSet
EndChar

StartChar: varija
Encoding: 1158 1158 137
Width: 0
GlyphClass: 4
Flags: W
AnchorPoint: "+BBEENQQ3BEsEPARPBD0EPQQ+BDUA--1" -244 488 mark 0
LayerCount: 2
Fore
SplineSet
-323 640 m 0,0,1
 -336 640 -336 640 -339 658 c 0,2,3
 -340 665 -340 665 -339 672 c 0,4,5
 -332 722 -332 722 -284 742 c 0,6,7
 -270 748 -270 748 -250 748 c 0,8,9
 -210 748 -210 748 -185 717.5 c 128,-1,10
 -160 687 -160 687 -160 644 c 128,-1,11
 -160 601 -160 601 -185 567.5 c 128,-1,12
 -210 534 -210 534 -240 518 c 0,13,14
 -244 516 -244 516 -246 521 c 128,-1,15
 -248 526 -248 526 -243 532 c 0,16,17
 -204 583 -204 583 -204 628 c 0,18,19
 -204 651 -204 651 -221.5 669.5 c 128,-1,20
 -239 688 -239 688 -263 688 c 128,-1,21
 -287 688 -287 688 -301 674 c 128,-1,22
 -315 660 -315 660 -315 644 c 0,23,24
 -315 640 -315 640 -323 640 c 0,0,1
EndSplineSet
EndChar

StartChar: bukvotitlo
Encoding: 1159 1159 138
Width: 0
GlyphClass: 4
Flags: W
AnchorPoint: "+BBEENQQ3BEsEPARPBD0EPQQ+BDUA--2" -319 780 mark 0
LayerCount: 2
Fore
SplineSet
-541 691 m 1,0,1
 -537 752 -537 752 -483 805 c 1,2,3
 -390 856 -390 856 -282.5 856 c 128,-1,4
 -175 856 -175 856 -120 816 c 0,5,6
 -97 800 -97 800 -82 786 c 1,7,-1
 -49 760 l 1,8,-1
 -16 731 l 2,9,10
 44 678 44 678 109 656 c 0,11,12
 112 655 112 655 110 649 c 128,-1,13
 108 643 108 643 94.5 643 c 128,-1,14
 81 643 81 643 65 643.5 c 128,-1,15
 49 644 49 644 -10 660 c 1,16,17
 -43 670 -43 670 -131 731 c 1,18,-1
 -193 772 l 1,19,20
 -223 794 -223 794 -255 810 c 1,21,22
 -301 824 -301 824 -322.5 824 c 128,-1,23
 -344 824 -344 824 -361 822.5 c 128,-1,24
 -378 821 -378 821 -395 808 c 0,25,26
 -443 771 -443 771 -443 703 c 0,27,28
 -443 696 -443 696 -442 691 c 1,29,30
 -461 688 -461 688 -490 688 c 128,-1,31
 -519 688 -519 688 -541 691 c 1,0,1
EndSplineSet
EndChar

StartChar: leodr
Encoding: 1161 1161 140
Width: 669
GlyphClass: 2
Flags: W
LayerCount: 2
Fore
SplineSet
340 716 m 0,0,1
 352 711 352 711 352 705 c 128,-1,2
 352 699 352 699 343.5 699 c 128,-1,3
 335 699 335 699 319 705.5 c 128,-1,4
 303 712 303 712 278 712 c 0,5,6
 223 712 223 712 184.5 684.5 c 128,-1,7
 146 657 146 657 146 623 c 0,8,9
 146 604 146 604 158 589 c 1,10,11
 183 554 183 554 236 554 c 0,12,13
 247 554 247 554 247 547 c 128,-1,14
 247 540 247 540 240 538 c 0,15,16
 211 529 211 529 178 529 c 0,17,18
 83 529 83 529 43 578 c 0,19,20
 28 596 28 596 28 617 c 128,-1,21
 28 638 28 638 44 662 c 0,22,23
 100 743 100 743 211 743 c 0,24,25
 273 743 273 743 340 716 c 0,0,1
146 -108 m 0,26,27
 78 -108 78 -108 77 -199 c 0,28,29
 77 -213 77 -213 68 -213 c 0,30,31
 62 -213 62 -213 60 -207 c 0,32,33
 46 -165 46 -165 46 -136.5 c 128,-1,34
 46 -108 46 -108 47 -96 c 0,35,36
 53 -38 53 -38 86 -6 c 0,37,38
 104 11 104 11 124.5 11 c 128,-1,39
 145 11 145 11 168 -2 c 0,40,41
 264 -58 264 -58 264 -184 c 0,42,43
 264 -243 264 -243 246 -293 c 0,44,45
 242 -304 242 -304 236 -305 c 128,-1,46
 230 -306 230 -306 230 -299 c 0,47,48
 230 -290 230 -290 234.5 -275.5 c 128,-1,49
 239 -261 239 -261 239 -246.5 c 128,-1,50
 239 -232 239 -232 232 -199 c 128,-1,51
 225 -166 225 -166 199 -137 c 128,-1,52
 173 -108 173 -108 146 -108 c 0,26,27
-607 685 m 1,53,-1
 -608 701 l 2,54,55
 -608 710 -608 710 -601 711 c 128,-1,56
 -594 712 -594 712 -592 706 c 0,57,58
 -572 654 -572 654 -572 594.5 c 128,-1,59
 -572 535 -572 535 -604 505 c 0,60,61
 -625 485 -625 485 -647 485 c 0,62,63
 -690 485 -690 485 -732 527 c 0,64,65
 -772 567 -772 567 -784 612.5 c 128,-1,66
 -796 658 -796 658 -796 698 c 128,-1,67
 -796 738 -796 738 -787 766.5 c 128,-1,68
 -778 795 -778 795 -772 795 c 128,-1,69
 -766 795 -766 795 -766 786.5 c 128,-1,70
 -766 778 -766 778 -769 767 c 128,-1,71
 -772 756 -772 756 -772 739.5 c 128,-1,72
 -772 723 -772 723 -762.5 686.5 c 128,-1,73
 -753 650 -753 650 -726.5 626 c 128,-1,74
 -700 602 -700 602 -673 602 c 128,-1,75
 -646 602 -646 602 -626.5 621.5 c 128,-1,76
 -607 641 -607 641 -607 685 c 1,53,-1
-746 -57 m 1,77,-1
 -762 -58 l 2,78,79
 -770 -58 -770 -58 -770.5 -51 c 128,-1,80
 -771 -44 -771 -44 -766 -42 c 0,81,82
 -714 -23 -714 -23 -654.5 -23 c 128,-1,83
 -595 -23 -595 -23 -565 -54 c 0,84,85
 -546 -75 -546 -75 -546 -97 c 0,86,87
 -546 -140 -546 -140 -588 -183 c 0,88,89
 -628 -224 -628 -224 -672.5 -234.5 c 128,-1,90
 -717 -245 -717 -245 -759 -245 c 128,-1,91
 -801 -245 -801 -245 -827.5 -236.5 c 128,-1,92
 -854 -228 -854 -228 -854 -222 c 128,-1,93
 -854 -216 -854 -216 -845 -216 c 1,94,-1
 -801 -222 l 1,95,96
 -780 -222 -780 -222 -747.5 -212.5 c 128,-1,97
 -715 -203 -715 -203 -688.5 -177.5 c 128,-1,98
 -662 -152 -662 -152 -662 -125.5 c 128,-1,99
 -662 -99 -662 -99 -681.5 -78 c 128,-1,100
 -701 -57 -701 -57 -746 -57 c 1,77,-1
447 243 m 0,101,102
 372 243 372 243 372 175 c 0,103,104
 372 138 372 138 409 111 c 0,105,106
 413 108 413 108 413 102 c 128,-1,107
 413 96 413 96 407.5 96 c 128,-1,108
 402 96 402 96 396 99 c 0,109,110
 334 131 334 131 299 184 c 0,111,112
 279 216 279 216 279 239.5 c 128,-1,113
 279 263 279 263 285 279 c 0,114,115
 297 309 297 309 343 319 c 1,116,117
 361 324 361 324 380 324 c 0,118,119
 481 324 481 324 561 214 c 0,120,121
 596 166 596 166 596 154.5 c 128,-1,122
 596 143 596 143 590 143 c 128,-1,123
 584 143 584 143 578 157 c 0,124,125
 561 191 561 191 521.5 217 c 128,-1,126
 482 243 482 243 447 243 c 0,101,102
-1077 289 m 128,-1,128
 -1077 295 -1077 295 -1071 295 c 128,-1,129
 -1065 295 -1065 295 -1058 283 c 0,130,131
 -1039 251 -1039 251 -1001.5 230.5 c 128,-1,132
 -964 210 -964 210 -927 210 c 128,-1,133
 -890 210 -890 210 -870 229 c 128,-1,134
 -850 248 -850 248 -850 269 c 0,135,136
 -850 312 -850 312 -894 345 c 0,137,138
 -898 348 -898 348 -898 350 c 128,-1,139
 -898 352 -898 352 -895 357 c 0,140,141
 -893 360 -893 360 -888.5 360 c 128,-1,142
 -884 360 -884 360 -879 358 c 0,143,144
 -810 331 -810 331 -774 279 c 1,145,146
 -751 244 -751 244 -751 214 c 0,147,148
 -751 162 -751 162 -809 143 c 0,149,150
 -835 135 -835 135 -873 135 c 128,-1,151
 -911 135 -911 135 -955 160 c 1,152,153
 -1018 194 -1018 194 -1069 270 c 0,154,127
 -1077 283 -1077 283 -1077 289 c 128,-1,128
-292 -451 m 0,155,156
 -298 -451 -298 -451 -298 -444.5 c 128,-1,157
 -298 -438 -298 -438 -287 -432 c 0,158,159
 -253 -414 -253 -414 -231.5 -375 c 128,-1,160
 -210 -336 -210 -336 -210 -300 c 128,-1,161
 -210 -264 -210 -264 -228.5 -244 c 128,-1,162
 -247 -224 -247 -224 -275 -224 c 128,-1,163
 -303 -224 -303 -224 -345 -266 c 0,164,165
 -350 -271 -350 -271 -355.5 -269.5 c 128,-1,166
 -361 -268 -361 -268 -361 -264.5 c 128,-1,167
 -361 -261 -361 -261 -360 -259 c 0,168,169
 -333 -204 -333 -204 -301 -172 c 0,170,171
 -255 -126 -255 -126 -210 -126 c 0,172,173
 -182 -126 -182 -126 -166 -142 c 0,174,175
 -135 -173 -135 -173 -135 -232 c 0,176,177
 -135 -290 -135 -290 -160 -331.5 c 128,-1,178
 -185 -373 -185 -373 -216 -399 c 0,179,180
 -275 -451 -275 -451 -292 -451 c 0,155,156
-200 963 m 0,181,182
 -193 967 -193 967 -187 967 c 128,-1,183
 -181 967 -181 967 -181 960.5 c 128,-1,184
 -181 954 -181 954 -193 948 c 0,185,186
 -226 930 -226 930 -247.5 891 c 128,-1,187
 -269 852 -269 852 -269 816 c 128,-1,188
 -269 780 -269 780 -250.5 760 c 128,-1,189
 -232 740 -232 740 -204 740 c 128,-1,190
 -176 740 -176 740 -134 782 c 0,191,192
 -129 787 -129 787 -123.5 785.5 c 128,-1,193
 -118 784 -118 784 -118 780.5 c 128,-1,194
 -118 777 -118 777 -119 775 c 0,195,196
 -146 720 -146 720 -178 688 c 0,197,198
 -224 642 -224 642 -269 642 c 0,199,200
 -297 642 -297 642 -313 658 c 0,201,202
 -344 689 -344 689 -344 749 c 0,203,204
 -344 805 -344 805 -318 848 c 0,205,206
 -275 920 -275 920 -200 963 c 0,181,182
EndSplineSet
EndChar

StartChar: endash
Encoding: 8211 8211 141
Width: 481
GlyphClass: 2
Flags: W
LayerCount: 2
Fore
SplineSet
35 190 m 1,0,-1
 35 244 l 1,1,-1
 448 244 l 1,2,-1
 448 190 l 1,3,-1
 35 190 l 1,0,-1
EndSplineSet
EndChar

StartChar: emdash
Encoding: 8212 8212 142
Width: 641
GlyphClass: 2
Flags: W
LayerCount: 2
Fore
SplineSet
35 190 m 1,0,-1
 35 244 l 1,1,-1
 608 244 l 1,2,-1
 608 190 l 1,3,-1
 35 190 l 1,0,-1
EndSplineSet
EndChar

StartChar: quoteleft
Encoding: 8216 8216 143
Width: 205
GlyphClass: 2
Flags: W
LayerCount: 2
Fore
SplineSet
191 666 m 1,0,1
 168 616 168 616 135 586.5 c 128,-1,2
 102 557 102 557 72.5 557 c 128,-1,3
 43 557 43 557 28 592 c 0,4,5
 18 615 18 615 18 652 c 128,-1,6
 18 689 18 689 28 715 c 0,7,8
 60 793 60 793 133 837 c 0,9,10
 138 840 138 840 140.5 837.5 c 128,-1,11
 143 835 143 835 138 828 c 0,12,13
 74 738 74 738 74 692 c 0,14,15
 74 665 74 665 85.5 650.5 c 128,-1,16
 97 636 97 636 104.5 635 c 128,-1,17
 112 634 112 634 118 634 c 128,-1,18
 124 634 124 634 135 638 c 0,19,20
 166 647 166 647 183 670 c 0,21,22
 187 675 187 675 191 673 c 128,-1,23
 195 671 195 671 191 666 c 1,0,1
EndSplineSet
EndChar

StartChar: quoteright
Encoding: 8217 8217 144
Width: 199
GlyphClass: 2
Flags: W
LayerCount: 2
Fore
SplineSet
100 656 m 2,0,-1
 76 656 l 1,1,2
 45 646 45 646 33 632 c 128,-1,3
 21 618 21 618 16 618 c 128,-1,4
 11 618 11 618 11 620.5 c 128,-1,5
 11 623 11 623 12 625 c 0,6,7
 43 686 43 686 74.5 709.5 c 128,-1,8
 106 733 106 733 128 733 c 0,9,10
 165 733 165 733 175.5 698.5 c 128,-1,11
 186 664 186 664 186 637 c 0,12,13
 186 530 186 530 70 453 c 0,14,15
 67 451 67 451 65 451 c 128,-1,16
 63 451 63 451 63 454.5 c 128,-1,17
 63 458 63 458 75 472 c 128,-1,18
 87 486 87 486 108.5 526 c 128,-1,19
 130 566 130 566 130 595.5 c 128,-1,20
 130 625 130 625 118.5 640.5 c 128,-1,21
 107 656 107 656 100 656 c 2,0,-1
EndSplineSet
EndChar

StartChar: quotesinglbase
Encoding: 8218 8218 145
Width: 450
GlyphClass: 2
Flags: W
LayerCount: 2
Fore
SplineSet
127 -14 m 2,0,-1
 127 -6 l 2,1,2
 127 13 127 13 115 29.5 c 128,-1,3
 103 46 103 46 90 46 c 0,4,5
 43 46 43 46 18 8 c 0,6,7
 14 2 14 2 11.5 4.5 c 128,-1,8
 9 7 9 7 9 10 c 0,9,10
 9 27 9 27 47 74.5 c 128,-1,11
 85 122 85 122 118 122 c 2,12,-1
 130 122 l 2,13,14
 155 122 155 122 171 86 c 0,15,16
 182 61 182 61 182 29 c 0,17,18
 182 -83 182 -83 66 -158 c 1,19,20
 62 -162 62 -162 60.5 -159 c 128,-1,21
 59 -156 59 -156 59 -153.5 c 128,-1,22
 59 -151 59 -151 63 -147 c 0,23,24
 127 -83 127 -83 127 -14 c 2,0,-1
EndSplineSet
EndChar

StartChar: quotedblleft
Encoding: 8220 8220 146
Width: 392
GlyphClass: 2
Flags: W
LayerCount: 2
Fore
SplineSet
312 821 m 0,0,1
 335 839 335 839 337.5 839 c 128,-1,2
 340 839 340 839 340 835.5 c 128,-1,3
 340 832 340 832 325 813 c 128,-1,4
 310 794 310 794 291 759.5 c 128,-1,5
 272 725 272 725 272 696 c 128,-1,6
 272 667 272 667 285 650.5 c 128,-1,7
 298 634 298 634 305 634 c 2,8,-1
 315 634 l 2,9,10
 338 634 338 634 357.5 648 c 128,-1,11
 377 662 377 662 377 664 c 1,12,-1
 388 675 l 1,13,14
 393 668 393 668 392 667 c 0,15,16
 369 617 369 617 335.5 587 c 128,-1,17
 302 557 302 557 273 557 c 128,-1,18
 244 557 244 557 228 593 c 0,19,20
 217 618 217 618 217 652 c 0,21,22
 217 747 217 747 312 821 c 0,0,1
185 666 m 1,23,24
 162 616 162 616 129 586.5 c 128,-1,25
 96 557 96 557 67.5 557 c 128,-1,26
 39 557 39 557 22 592 c 0,27,28
 12 613 12 613 12 648.5 c 128,-1,29
 12 684 12 684 22 712 c 0,30,31
 54 801 54 801 127 837 c 0,32,33
 131 839 131 839 133 839 c 128,-1,34
 135 839 135 839 135 835 c 128,-1,35
 135 831 135 831 120.5 813 c 128,-1,36
 106 795 106 795 87 760 c 128,-1,37
 68 725 68 725 68 696 c 128,-1,38
 68 667 68 667 81 650.5 c 128,-1,39
 94 634 94 634 100 634 c 2,40,-1
 110 634 l 2,41,42
 148 634 148 634 178 670 c 0,43,44
 182 675 182 675 185.5 673 c 128,-1,45
 189 671 189 671 185 666 c 1,23,24
EndSplineSet
EndChar

StartChar: quotedblright
Encoding: 8221 8221 147
Width: 404
GlyphClass: 2
Flags: W
LayerCount: 2
Fore
SplineSet
132 598 m 0,0,1
 132 627 132 627 119 641.5 c 128,-1,2
 106 656 106 656 97 656 c 2,3,-1
 82 656 l 2,4,5
 47 656 47 656 22 619 c 0,6,7
 18 613 18 613 15 615 c 128,-1,8
 12 617 12 617 12 620.5 c 128,-1,9
 12 624 12 624 16 632 c 0,10,11
 39 678 39 678 72.5 705.5 c 128,-1,12
 106 733 106 733 134 733 c 128,-1,13
 162 733 162 733 175.5 700.5 c 128,-1,14
 189 668 189 668 189 641 c 0,15,16
 189 639 189 639 189 637 c 0,17,18
 189 531 189 531 72 453 c 0,19,20
 65 448 65 448 65 453.5 c 128,-1,21
 65 459 65 459 78 476 c 0,22,23
 132 547 132 547 132 598 c 0,0,1
336 598 m 0,24,25
 336 627 336 627 323 641.5 c 128,-1,26
 310 656 310 656 302 656 c 2,27,-1
 290 656 l 2,28,29
 251 656 251 656 226 619 c 0,30,31
 222 613 222 613 219 615 c 128,-1,32
 216 617 216 617 216 620.5 c 128,-1,33
 216 624 216 624 220 632 c 0,34,35
 243 678 243 678 276.5 705.5 c 128,-1,36
 310 733 310 733 338 733 c 128,-1,37
 366 733 366 733 379.5 700.5 c 128,-1,38
 393 668 393 668 393 641 c 0,39,40
 393 639 393 639 393 637 c 0,41,42
 393 531 393 531 276 453 c 0,43,44
 269 448 269 448 269 453.5 c 128,-1,45
 269 459 269 459 282 476 c 0,46,47
 336 547 336 547 336 598 c 0,24,25
EndSplineSet
EndChar

StartChar: quotedblbase
Encoding: 8222 8222 148
Width: 393
GlyphClass: 2
Flags: W
LayerCount: 2
Fore
SplineSet
374 29 m 0,0,1
 374 -83 374 -83 258 -158 c 1,2,3
 258 -158 258 -158 252 -158 c 0,4,5
 251 -158 251 -158 252.5 -153 c 128,-1,6
 254 -148 254 -148 255 -147 c 0,7,8
 303 -90 303 -90 319 -12 c 0,9,10
 320 -7 320 -7 320 3 c 128,-1,11
 320 13 320 13 306.5 29.5 c 128,-1,12
 293 46 293 46 280 46 c 0,13,14
 241 46 241 46 210 8 c 0,15,16
 206 2 206 2 203.5 4.5 c 128,-1,17
 201 7 201 7 201 10 c 128,-1,18
 201 13 201 13 208 29 c 0,19,20
 223 64 223 64 257.5 94 c 128,-1,21
 292 124 292 124 316 124 c 1,22,23
 349 120 349 120 361.5 89.5 c 128,-1,24
 374 59 374 59 374 29 c 0,0,1
182 29 m 0,25,26
 182 -83 182 -83 66 -158 c 0,27,28
 64 -159 64 -159 61 -159 c 128,-1,29
 58 -159 58 -159 58 -156 c 128,-1,30
 58 -153 58 -153 63 -147 c 0,31,32
 107 -94 107 -94 127 -12 c 0,33,34
 128 -8 128 -8 128 2 c 128,-1,35
 128 12 128 12 115 29 c 128,-1,36
 102 46 102 46 88 46 c 0,37,38
 43 46 43 46 18 8 c 0,39,40
 14 2 14 2 11.5 4.5 c 128,-1,41
 9 7 9 7 9 10 c 128,-1,42
 9 13 9 13 21 40 c 128,-1,43
 33 67 33 67 66.5 95.5 c 128,-1,44
 100 124 100 124 127.5 124 c 128,-1,45
 155 124 155 124 168.5 91.5 c 128,-1,46
 182 59 182 59 182 29 c 0,25,26
EndSplineSet
EndChar

StartChar: tma
Encoding: 8413 8413 149
Width: 242
GlyphClass: 2
Flags: W
LayerCount: 2
Fore
SplineSet
-245 654 m 128,-1,1
 -414 654 -414 654 -533 532 c 128,-1,2
 -652 410 -652 410 -652 236.5 c 128,-1,3
 -652 63 -652 63 -534 -59.5 c 128,-1,4
 -416 -182 -416 -182 -246 -182 c 128,-1,5
 -76 -182 -76 -182 43.5 -59.5 c 128,-1,6
 163 63 163 63 163 236 c 128,-1,7
 163 409 163 409 43.5 531.5 c 128,-1,0
 -76 654 -76 654 -245 654 c 128,-1,1
-704 236 m 128,-1,9
 -704 363 -704 363 -642.5 471 c 128,-1,10
 -581 579 -581 579 -475.5 641.5 c 128,-1,11
 -370 704 -370 704 -246 704 c 128,-1,12
 -122 704 -122 704 -16.5 641.5 c 128,-1,13
 89 579 89 579 150.5 471 c 128,-1,14
 212 363 212 363 212 236 c 128,-1,15
 212 109 212 109 150.5 1 c 128,-1,16
 89 -107 89 -107 -16.5 -169.5 c 128,-1,17
 -122 -232 -122 -232 -246 -232 c 128,-1,18
 -370 -232 -370 -232 -475.5 -169.5 c 128,-1,19
 -581 -107 -581 -107 -642.5 1 c 128,-1,8
 -704 109 -704 109 -704 236 c 128,-1,9
EndSplineSet
EndChar

StartChar: buky_titlo
Encoding: 11744 11744 150
Width: 0
GlyphClass: 2
Flags: W
LayerCount: 2
Fore
SplineSet
-163 712 m 2,0,1
 -155 712 -155 712 -155 706 c 1,2,3
 -155 706 -155 706 -161 692 c 2,4,-1
 -167 676 l 1,5,-1
 -170 667 l 2,6,7
 -171 663 -171 663 -175.5 663 c 128,-1,8
 -180 663 -180 663 -182 667 c 0,9,10
 -191 690 -191 690 -205 702 c 1,11,-1
 -264 702 l 1,12,13
 -267 674 -267 674 -268 667 c 2,14,-1
 -270 643 l 2,15,16
 -272 618 -272 618 -272 613.5 c 128,-1,17
 -272 609 -272 609 -273 605 c 1,18,-1
 -208 618 l 1,19,-1
 -199 618 l 2,20,21
 -191 618 -191 618 -187 611 c 0,22,23
 -160 567 -160 567 -148 521 c 1,24,-1
 -330 521 l 1,25,-1
 -330 595 l 2,26,27
 -330 615 -330 615 -326 644 c 1,28,-1
 -324 672 l 2,29,30
 -322 697 -322 697 -319 712 c 1,31,-1
 -163 712 l 2,0,1
-274 551 m 1,32,-1
 -273 532 l 1,33,-1
 -204 532 l 1,34,35
 -210 547 -210 547 -231 577 c 1,36,-1
 -243 592 l 2,37,38
 -246 595 -246 595 -249 595 c 2,39,-1
 -254 595 l 1,40,41
 -255 596 -255 596 -261 595 c 1,42,43
 -267 597 -267 597 -273 595 c 1,44,45
 -274 572 -274 572 -274 551 c 1,32,-1
EndSplineSet
EndChar

StartChar: vede_titlo
Encoding: 11745 11745 151
Width: 0
GlyphClass: 2
Flags: W
LayerCount: 2
Fore
SplineSet
-132 542 m 2,0,1
 -126 542 -126 542 -126 532 c 128,-1,2
 -126 522 -126 522 -132 522 c 2,3,-1
 -350 522 l 2,4,5
 -359 522 -359 522 -359 532 c 128,-1,6
 -359 542 -359 542 -350 542 c 2,7,-1
 -343 542 l 1,8,9
 -334 592 -334 592 -334 652 c 2,10,-1
 -334 689 l 1,11,-1
 -369 689 l 2,12,13
 -379 689 -379 689 -379 699.5 c 128,-1,14
 -379 710 -379 710 -369 710 c 2,15,-1
 -161 710 l 2,16,17
 -153 710 -153 710 -153 699.5 c 128,-1,18
 -153 689 -153 689 -161 689 c 2,19,-1
 -174 689 l 1,20,21
 -173 677 -173 677 -172.5 650 c 128,-1,22
 -172 623 -172 623 -169.5 604.5 c 128,-1,23
 -167 586 -167 586 -162 568.5 c 128,-1,24
 -157 551 -157 551 -155 542 c 1,25,-1
 -132 542 l 2,0,1
-290 604 m 2,26,-1
 -292 542 l 1,27,-1
 -209 542 l 1,28,-1
 -211 565 l 2,29,30
 -212 577 -212 577 -214.5 593 c 128,-1,31
 -217 609 -217 609 -217 627 c 2,32,-1
 -217 689 l 1,33,-1
 -289 689 l 1,34,-1
 -289 651 l 2,35,36
 -289 625 -289 625 -290 604 c 2,26,-1
EndSplineSet
EndChar

StartChar: glagol_titlo
Encoding: 11746 11746 152
Width: 0
GlyphClass: 2
Flags: W
LayerCount: 2
Fore
SplineSet
-155 663 m 1,0,-1
 -167 663 l 1,1,-1
 -186 682 l 1,2,-1
 -253 682 l 1,3,-1
 -253 539 l 1,4,-1
 -298 539 l 1,5,-1
 -298 710 l 1,6,-1
 -143 710 l 1,7,-1
 -143 687 l 1,8,-1
 -155 663 l 1,0,-1
EndSplineSet
EndChar

StartChar: dobro_titlo
Encoding: 11747 11747 153
Width: 0
GlyphClass: 2
Flags: W
LayerCount: 2
Fore
SplineSet
-111 544 m 1,0,-1
 -121 544 l 1,1,-1
 -121 624 l 1,2,-1
 -412 624 l 1,3,-1
 -412 544 l 1,4,-1
 -422 544 l 1,5,-1
 -488 632 l 1,6,-1
 -488 644 l 1,7,-1
 -354 644 l 1,8,-1
 -274 787 l 1,9,-1
 -307 847 l 1,10,-1
 -327 850 l 1,11,-1
 -389 743 l 1,12,-1
 -449 743 l 1,13,-1
 -449 754 l 1,14,-1
 -367 873 l 1,15,-1
 -252 855 l 1,16,-1
 -136 644 l 1,17,-1
 -44 644 l 1,18,-1
 -44 632 l 1,19,-1
 -111 544 l 1,0,-1
-332 644 m 1,20,-1
 -196 644 l 1,21,-1
 -263 766 l 1,22,-1
 -332 644 l 1,20,-1
EndSplineSet
EndChar

StartChar: zhivete_titlo
Encoding: 11748 11748 154
Width: 0
GlyphClass: 2
Flags: W
LayerCount: 2
Fore
SplineSet
-316 524 m 0,0,1
 -333 524 -333 524 -333 537 c 0,2,3
 -333 543 -333 543 -326 548 c 0,4,5
 -281 580 -281 580 -257 618 c 1,6,7
 -267 629 -267 629 -278 644 c 2,8,-1
 -302 674 l 1,9,10
 -331 708 -331 708 -362 715 c 1,11,12
 -345 726 -345 726 -334.5 745 c 128,-1,13
 -324 764 -324 764 -308 785 c 1,14,15
 -291 784 -291 784 -276 774 c 1,16,-1
 -256 758 l 2,17,18
 -248 752 -248 752 -223.5 752 c 128,-1,19
 -199 752 -199 752 -160 786 c 1,20,21
 -158 790 -158 790 -155 790 c 128,-1,22
 -152 790 -152 790 -149.5 767.5 c 128,-1,23
 -147 745 -147 745 -136 732 c 1,24,25
 -87 772 -87 772 -47 772 c 128,-1,26
 -7 772 -7 772 7 741 c 0,27,28
 14 726 14 726 14 713 c 0,29,30
 14 688 14 688 -15 673 c 0,31,32
 -26 668 -26 668 -39 668 c 128,-1,33
 -52 668 -52 668 -63 688 c 128,-1,34
 -74 708 -74 708 -90 708 c 0,35,36
 -135 708 -135 708 -183 647 c 1,37,38
 -174 602 -174 602 -154.5 576.5 c 128,-1,39
 -135 551 -135 551 -123 537.5 c 128,-1,40
 -111 524 -111 524 -111 516 c 128,-1,41
 -111 508 -111 508 -120.5 508 c 128,-1,42
 -130 508 -130 508 -145 514 c 0,43,44
 -186 530 -186 530 -232 586 c 1,45,46
 -257 560 -257 560 -285.5 542 c 128,-1,47
 -314 524 -314 524 -316 524 c 0,0,1
EndSplineSet
EndChar

StartChar: zemlja_titlo
Encoding: 11749 11749 155
Width: 0
GlyphClass: 2
Flags: W
LayerCount: 2
Fore
SplineSet
-97 695 m 2,0,-1
 -49 696 l 1,1,2
 -49 696 -49 696 -44 696 c 0,3,4
 51 696 51 696 51 624 c 0,5,6
 51 565 51 565 18 534 c 128,-1,7
 -15 503 -15 503 -97 503 c 0,8,9
 -145 503 -145 503 -164.5 519.5 c 128,-1,10
 -184 536 -184 536 -184 547 c 128,-1,11
 -184 558 -184 558 -169.5 558 c 128,-1,12
 -155 558 -155 558 -139.5 539.5 c 128,-1,13
 -124 521 -124 521 -115 521 c 2,14,-1
 -98 521 l 2,15,16
 5 521 5 521 5 599 c 2,17,-1
 5 604 l 2,18,19
 5 631 5 631 -75 631 c 0,20,21
 -81 631 -81 631 -87 631 c 2,22,-1
 -161 629 l 2,23,24
 -171 629 -171 629 -177 638 c 0,25,26
 -218 699 -218 699 -231 802 c 1,27,28
 -236 809 -236 809 -241 809 c 0,29,30
 -284 809 -284 809 -342 770 c 1,31,32
 -341 766 -341 766 -341 751 c 0,33,34
 -341 720 -341 720 -363 704 c 128,-1,35
 -385 688 -385 688 -400.5 688 c 128,-1,36
 -416 688 -416 688 -425 693 c 1,37,38
 -474 635 -474 635 -474 611 c 128,-1,39
 -474 587 -474 587 -446 587 c 2,40,-1
 -431 587 l 2,41,42
 -421 587 -421 587 -421 577 c 128,-1,43
 -421 567 -421 567 -447.5 567 c 128,-1,44
 -474 567 -474 567 -488 574.5 c 128,-1,45
 -502 582 -502 582 -503 588 c 128,-1,46
 -504 594 -504 594 -504 602 c 1,47,48
 -497 649 -497 649 -443 709 c 1,49,50
 -451 721 -451 721 -451 731 c 128,-1,51
 -451 741 -451 741 -447.5 755.5 c 128,-1,52
 -444 770 -444 770 -426.5 784.5 c 128,-1,53
 -409 799 -409 799 -388 799 c 128,-1,54
 -367 799 -367 799 -355 788 c 1,55,56
 -288 831 -288 831 -223 831 c 0,57,58
 -204 831 -204 831 -182.5 826 c 128,-1,59
 -161 821 -161 821 -159 813 c 0,60,61
 -144 735 -144 735 -124 707 c 0,62,63
 -116 695 -116 695 -97 695 c 2,0,-1
EndSplineSet
EndChar

StartChar: kako_titlo
Encoding: 11750 11750 156
Width: 0
GlyphClass: 2
Flags: W
LayerCount: 2
Fore
SplineSet
-290 520 m 1,0,-1
 -321 520 l 1,1,-1
 -321 626 l 2,2,3
 -321 654 -321 654 -318 681 c 1,4,-1
 -318 707 l 1,5,6
 -299 712 -299 712 -288 712 c 2,7,-1
 -272 712 l 1,8,9
 -272 688 -272 688 -273 659 c 2,10,-1
 -275 610 l 2,11,12
 -277 560 -277 560 -279 543 c 1,13,-1
 -280 520 l 1,14,15
 -286 519 -286 519 -290 520 c 1,0,-1
-148 710 m 1,16,17
 -163 696 -163 696 -163 680 c 128,-1,18
 -163 664 -163 664 -164.5 664 c 128,-1,19
 -166 664 -166 664 -172.5 668.5 c 128,-1,20
 -179 673 -179 673 -190 673 c 128,-1,21
 -201 673 -201 673 -211 669 c 1,22,23
 -232 645 -232 645 -238 622 c 1,24,25
 -236 616 -236 616 -231.5 615 c 128,-1,26
 -227 614 -227 614 -221 613 c 128,-1,27
 -215 612 -215 612 -209 611 c 2,28,-1
 -195 608 l 2,29,30
 -188 607 -188 607 -184 606 c 1,31,32
 -152 563 -152 563 -149 520 c 1,33,-1
 -195 520 l 1,34,35
 -200 570 -200 570 -230 601 c 1,36,37
 -233 602 -233 602 -234.5 602 c 128,-1,38
 -236 602 -236 602 -239 602.5 c 128,-1,39
 -242 603 -242 603 -246 606.5 c 128,-1,40
 -250 610 -250 610 -250 613 c 2,41,-1
 -251 622 l 1,42,43
 -235 661 -235 661 -223.5 673.5 c 128,-1,44
 -212 686 -212 686 -207 691 c 2,45,-1
 -195 702 l 1,46,47
 -176 714 -176 714 -153 714 c 2,48,-1
 -150 714 l 1,49,50
 -148 712 -148 712 -148 710 c 1,16,17
EndSplineSet
EndChar

StartChar: ljudi_titlo
Encoding: 11751 11751 157
Width: 0
GlyphClass: 2
Flags: W
LayerCount: 2
Fore
SplineSet
-279 521 m 1,0,1
 -287 520 -287 520 -306 520 c 128,-1,2
 -325 520 -325 520 -331 521 c 1,3,4
 -332 524 -332 524 -332 534.5 c 128,-1,5
 -332 545 -332 545 -312 570 c 2,6,-1
 -247 652 l 2,7,8
 -236 666 -236 666 -233 700 c 1,9,10
 -235 714 -235 714 -235 726 c 1,11,12
 -198 726 -198 726 -181 722 c 1,13,14
 -174 643 -174 643 -164 595.5 c 128,-1,15
 -154 548 -154 548 -150 521 c 1,16,17
 -162 520 -162 520 -177 520 c 128,-1,18
 -192 520 -192 520 -203 521 c 1,19,20
 -210 541 -210 541 -218 589 c 2,21,-1
 -226 639 l 2,22,23
 -227 648 -227 648 -228 656 c 1,24,-1
 -245 636 l 2,25,26
 -281 594 -281 594 -282 550 c 1,27,-1
 -279 521 l 1,0,1
EndSplineSet
EndChar

StartChar: myslete_titlo
Encoding: 11752 11752 158
Width: 0
GlyphClass: 2
Flags: W
LayerCount: 2
Fore
SplineSet
-174 667 m 1,0,1
 -210 616 -210 616 -225 549 c 1,2,3
 -222 533 -222 533 -220 519 c 1,4,5
 -232 518 -232 518 -244.5 518 c 128,-1,6
 -257 518 -257 518 -271 519 c 1,7,8
 -272 542 -272 542 -281.5 582.5 c 128,-1,9
 -291 623 -291 623 -297 659 c 1,10,11
 -301 653 -301 653 -305 646 c 2,12,-1
 -313 631 l 2,13,14
 -336 586 -336 586 -336 565.5 c 128,-1,15
 -336 545 -336 545 -331.5 536.5 c 128,-1,16
 -327 528 -327 528 -327 525 c 2,17,-1
 -327 519 l 1,18,19
 -334 518 -334 518 -352 518 c 256,20,21
 -370 518 -370 518 -379 519 c 1,22,23
 -379 523 -379 523 -380 524 c 128,-1,24
 -381 525 -381 525 -380 534 c 0,25,26
 -377 564 -377 564 -342 609 c 1,27,-1
 -323 637 l 1,28,-1
 -316 649 l 1,29,30
 -308 660 -308 660 -305 668 c 2,31,-1
 -300 681 l 1,32,-1
 -302 699 l 2,33,34
 -303 708 -303 708 -303 715 c 1,35,-1
 -294 715 l 2,36,37
 -287 715 -287 715 -253 713 c 1,38,39
 -250 664 -250 664 -244 636 c 2,40,-1
 -231 574 l 1,41,42
 -224 597 -224 597 -215 617 c 2,43,-1
 -201 646 l 2,44,45
 -198 653 -198 653 -193 661 c 2,46,-1
 -176 691 l 1,47,-1
 -178 715 l 1,48,49
 -172 716 -172 716 -166 716 c 2,50,-1
 -129 713 l 1,51,52
 -127 630 -127 630 -103 519 c 1,53,54
 -114 518 -114 518 -125.5 518 c 128,-1,55
 -137 518 -137 518 -150 519 c 1,56,57
 -161 539 -161 539 -174 667 c 1,0,1
EndSplineSet
EndChar

StartChar: nash_titlo
Encoding: 11753 11753 159
Width: 0
GlyphClass: 4
Flags: W
AnchorPoint: "+BBEENQQ3BEsEPARPBD0EPQQ+BDUA--2" -268 746 basemark 0
AnchorPoint: "+BBEENQQ3BEsEPARPBD0EPQQ+BDUA--1" -272 530 mark 0
LayerCount: 2
Fore
SplineSet
-358 720 m 1,0,-1
 -306 720 l 1,1,-1
 -306 660 l 1,2,-1
 -236 660 l 1,3,-1
 -236 722 l 1,4,-1
 -187 722 l 1,5,-1
 -187 561 l 1,6,-1
 -236 561 l 1,7,-1
 -236 630 l 1,8,-1
 -306 630 l 1,9,-1
 -306 561 l 1,10,-1
 -358 561 l 1,11,-1
 -358 720 l 1,0,-1
EndSplineSet
EndChar

StartChar: on_titlo
Encoding: 11754 11754 160
Width: 0
GlyphClass: 2
Flags: W
LayerCount: 2
Fore
SplineSet
-232 702 m 256,0,1
 -186 702 -186 702 -154 677 c 128,-1,2
 -122 652 -122 652 -122 605 c 256,3,4
 -122 558 -122 558 -152.5 533.5 c 128,-1,5
 -183 509 -183 509 -232 509 c 0,6,7
 -282 509 -282 509 -312.5 533.5 c 128,-1,8
 -343 558 -343 558 -343 605 c 256,9,10
 -343 652 -343 652 -310.5 677 c 128,-1,11
 -278 702 -278 702 -232 702 c 256,0,1
-232 525 m 0,12,13
 -209 525 -209 525 -193.5 542 c 128,-1,14
 -178 559 -178 559 -178 583 c 2,15,-1
 -178 627 l 2,16,17
 -178 648 -178 648 -193.5 667 c 128,-1,18
 -209 686 -209 686 -232 686 c 0,19,20
 -256 686 -256 686 -271.5 667 c 128,-1,21
 -287 648 -287 648 -287 627 c 2,22,-1
 -287 583 l 2,23,24
 -287 559 -287 559 -271.5 542 c 128,-1,25
 -256 525 -256 525 -232 525 c 0,12,13
EndSplineSet
EndChar

StartChar: pokoj_titlo
Encoding: 11755 11755 161
Width: 0
GlyphClass: 2
Flags: W
LayerCount: 2
Fore
SplineSet
-276 524 m 1,0,1
 -289 522 -289 522 -302 522 c 0,2,3
 -312 522 -312 522 -326 524 c 1,4,5
 -332 553 -332 553 -332 619.5 c 128,-1,6
 -332 686 -332 686 -328 718 c 1,7,-1
 -150 718 l 1,8,9
 -153 671 -153 671 -153 608.5 c 128,-1,10
 -153 546 -153 546 -148 524 c 1,11,12
 -162 521 -162 521 -173 521 c 128,-1,13
 -184 521 -184 521 -198 524 c 1,14,15
 -203 542 -203 542 -203 599.5 c 128,-1,16
 -203 657 -203 657 -200 708 c 1,17,-1
 -279 708 l 1,18,19
 -281 683 -281 683 -281 623.5 c 128,-1,20
 -281 564 -281 564 -276 524 c 1,0,1
EndSplineSet
EndChar

StartChar: rtsy_titlo
Encoding: 11756 11756 162
Width: 1
GlyphClass: 2
Flags: W
LayerCount: 2
Fore
SplineSet
-348 687 m 1,0,1
 -348 725 -348 725 -285 725 c 0,2,3
 -261 725 -261 725 -242 713 c 128,-1,4
 -223 701 -223 701 -223 679 c 128,-1,5
 -223 657 -223 657 -240.5 647.5 c 128,-1,6
 -258 638 -258 638 -263 637 c 128,-1,7
 -268 636 -268 636 -283 636 c 128,-1,8
 -298 636 -298 636 -313 647 c 1,9,-1
 -307 573 l 1,10,11
 -307 558 -307 558 -348 549 c 1,12,13
 -342 573 -342 573 -342 588 c 2,14,-1
 -348 687 l 1,0,1
-269 698.5 m 128,-1,16
 -275 707 -275 707 -281 707 c 2,17,-1
 -291 707 l 2,18,19
 -297 707 -297 707 -303.5 699 c 128,-1,20
 -310 691 -310 691 -310 681.5 c 128,-1,21
 -310 672 -310 672 -303.5 664 c 128,-1,22
 -297 656 -297 656 -287.5 656 c 128,-1,23
 -278 656 -278 656 -270.5 663.5 c 128,-1,24
 -263 671 -263 671 -263 680.5 c 128,-1,15
 -263 690 -263 690 -269 698.5 c 128,-1,16
EndSplineSet
EndChar

StartChar: slovo_titlo
Encoding: 11757 11757 163
Width: 1
GlyphClass: 2
Flags: W
LayerCount: 2
Fore
SplineSet
-205 625 m 1,0,-1
 -201 566 l 1,1,2
 -201 566 -201 566 -190 566 c 0,3,4
 -181 566 -181 566 -151 585 c 0,5,6
 -145 588 -145 588 -141 582.5 c 128,-1,7
 -137 577 -137 577 -139 573 c 0,8,9
 -155 549 -155 549 -184 537 c 1,10,11
 -202 532 -202 532 -217 532 c 1,12,-1
 -232 534 l 1,13,14
 -241 534 -241 534 -241 544 c 2,15,-1
 -241 574 l 1,16,-1
 -247 646 l 1,17,18
 -247 675 -247 675 -220 695.5 c 128,-1,19
 -193 716 -193 716 -161 716 c 2,20,21
 -161 716 -161 716 -147 716 c 0,22,23
 -137 716 -137 716 -133 712 c 1,24,25
 -131 707 -131 707 -131 696 c 128,-1,26
 -131 685 -131 685 -133 678 c 1,27,28
 -141 679 -141 679 -156 679 c 128,-1,29
 -171 679 -171 679 -188 665.5 c 128,-1,30
 -205 652 -205 652 -205 625 c 1,0,-1
EndSplineSet
EndChar

StartChar: tverdo_titlo
Encoding: 11758 11758 164
Width: 0
GlyphClass: 2
Flags: W
LayerCount: 2
Fore
SplineSet
-137 560.5 m 128,-1,1
 -137 538 -137 538 -158 538 c 128,-1,2
 -179 538 -179 538 -179 556 c 2,3,-1
 -179 702 l 1,4,-1
 -317 702 l 1,5,-1
 -310 553 l 1,6,-1
 -434 553 l 1,7,-1
 -427 702 l 1,8,-1
 -569 702 l 1,9,-1
 -562 553 l 1,10,-1
 -686 553 l 1,11,-1
 -679 702 l 1,12,-1
 -710 702 l 2,13,14
 -718 702 -718 702 -718 714.5 c 128,-1,15
 -718 727 -718 727 -710 727 c 2,16,-1
 -33 727 l 2,17,18
 -28 727 -28 727 -28 718 c 128,-1,19
 -28 709 -28 709 -33 707 c 0,20,21
 -104 678 -104 678 -129 606 c 0,22,0
 -137 583 -137 583 -137 560.5 c 128,-1,1
EndSplineSet
EndChar

StartChar: kher_titlo
Encoding: 11759 11759 165
Width: 1
GlyphClass: 2
Flags: W
LayerCount: 2
Fore
SplineSet
-358 828 m 1,0,-1
 -265 831 l 2,1,2
 -256 831 -256 831 -254 829 c 0,3,4
 -238 813 -238 813 -198 760 c 1,5,-1
 -168 794 l 2,6,7
 -151 813 -151 813 -139 823 c 0,8,9
 -100 857 -100 857 -49 857 c 128,-1,10
 2 857 2 857 2 842 c 0,11,12
 2 838 2 838 -9 826 c 1,13,14
 -36 800 -36 800 -38 758 c 0,15,16
 -39 739 -39 739 -42 739 c 128,-1,17
 -45 739 -45 739 -46 740 c 0,18,19
 -80 774 -80 774 -106 784 c 0,20,21
 -109 786 -109 786 -113 786 c 128,-1,22
 -117 786 -117 786 -119 784 c 2,23,-1
 -146 764 l 2,24,25
 -163 752 -163 752 -180 735 c 1,26,-1
 -131 671 l 2,27,28
 -103 635 -103 635 -91 622 c 128,-1,29
 -79 609 -79 609 -79 605 c 128,-1,30
 -79 601 -79 601 -82 601 c 2,31,-1
 -128 601 l 2,32,33
 -164 601 -164 601 -178 621 c 2,34,-1
 -203 655 l 2,35,36
 -215 672 -215 672 -230 689 c 1,37,-1
 -273 644 l 1,38,-1
 -308 605 l 1,39,40
 -313 604 -313 604 -327 604 c 128,-1,41
 -341 604 -341 604 -342 612 c 0,42,43
 -343 614 -343 614 -341 615 c 2,44,-1
 -248 709 l 1,45,-1
 -287 754 l 2,46,47
 -308 779 -308 779 -326 794 c 1,48,49
 -334 796 -334 796 -348 798 c 128,-1,50
 -362 800 -362 800 -368.5 801 c 128,-1,51
 -375 802 -375 802 -375 797 c 0,52,53
 -374 784 -374 784 -374 774 c 128,-1,54
 -374 764 -374 764 -376 750 c 128,-1,55
 -378 736 -378 736 -379.5 724.5 c 128,-1,56
 -381 713 -381 713 -385 703 c 1,57,58
 -396 701 -396 701 -409.5 698 c 128,-1,59
 -423 695 -423 695 -429 695 c 128,-1,60
 -435 695 -435 695 -435 698 c 2,61,-1
 -435 701 l 1,62,63
 -427 728 -427 728 -420.5 762 c 128,-1,64
 -414 796 -414 796 -406 823 c 0,65,66
 -404 829 -404 829 -396 829 c 2,67,-1
 -377 828 l 1,68,-1
 -358 828 l 1,0,-1
EndSplineSet
EndChar

StartChar: tsy_titlo
Encoding: 11760 11760 166
Width: 0
GlyphClass: 2
Flags: W
LayerCount: 2
Fore
SplineSet
-126 530 m 1,0,1
 -115 515 -115 515 -115 494 c 128,-1,2
 -115 473 -115 473 -121 462 c 128,-1,3
 -127 451 -127 451 -132 438 c 2,4,-1
 -140 415 l 1,5,-1
 -140 405 l 1,6,-1
 -139 398 l 2,7,8
 -138 394 -138 394 -143 394 c 128,-1,9
 -148 394 -148 394 -151 397 c 0,10,11
 -163 408 -163 408 -163 431 c 128,-1,12
 -163 454 -163 454 -159 462 c 1,13,-1
 -155 481 l 1,14,-1
 -155 493 l 2,15,16
 -155 500 -155 500 -160 519 c 1,17,-1
 -340 519 l 1,18,19
 -346 568 -346 568 -346 622.5 c 128,-1,20
 -346 677 -346 677 -341 713 c 1,21,22
 -321 718 -321 718 -291 718 c 1,23,24
 -295 681 -295 681 -295 634 c 2,25,-1
 -295 616 l 2,26,27
 -295 560 -295 560 -288 530 c 1,28,-1
 -216 530 l 1,29,30
 -220 549 -220 549 -220 562 c 2,31,32
 -220 562 -220 562 -220 581 c 2,33,-1
 -217 664 l 1,34,35
 -215 678 -215 678 -214 691.5 c 128,-1,36
 -213 705 -213 705 -212 713 c 1,37,38
 -190 718 -190 718 -178 718 c 2,39,-1
 -161 718 l 1,40,41
 -169 659 -169 659 -169 606.5 c 128,-1,42
 -169 554 -169 554 -161 530 c 1,43,-1
 -126 530 l 1,0,1
EndSplineSet
EndChar

StartChar: cherv_titlo
Encoding: 11761 11761 167
Width: 1
GlyphClass: 2
Flags: W
LayerCount: 2
Fore
SplineSet
-308 724 m 1,0,-1
 -259 722 l 1,1,2
 -259 702 -259 702 -252.5 686 c 128,-1,3
 -246 670 -246 670 -240 666 c 0,4,5
 -221 653 -221 653 -196 653 c 2,6,-1
 -188 653 l 1,7,-1
 -188 722 l 1,8,-1
 -138 722 l 1,9,-1
 -138 561 l 1,10,-1
 -188 561 l 1,11,-1
 -188 630 l 1,12,-1
 -196 630 l 1,13,-1
 -211 631 l 1,14,15
 -264 636 -264 636 -289 676 c 0,16,17
 -301 695 -301 695 -308 724 c 1,0,-1
EndSplineSet
EndChar

StartChar: sha_titlo
Encoding: 11762 11762 168
Width: 0
GlyphClass: 2
Flags: W
LayerCount: 2
Fore
SplineSet
-82 710 m 1,0,1
 -85 677 -85 677 -85 625 c 128,-1,2
 -85 573 -85 573 -80 518 c 1,3,-1
 -399 518 l 1,4,-1
 -401 561 l 2,5,6
 -402 577 -402 577 -402 621 c 128,-1,7
 -402 665 -402 665 -397 706 c 1,8,9
 -385 710 -385 710 -368 710 c 2,10,-1
 -347 710 l 1,11,12
 -355 665 -355 665 -355 610 c 128,-1,13
 -355 555 -355 555 -351 529 c 1,14,-1
 -265 529 l 1,15,16
 -268 567 -268 567 -268 614.5 c 128,-1,17
 -268 662 -268 662 -263 705 c 1,18,19
 -248 710 -248 710 -213 710 c 1,20,21
 -218 679 -218 679 -218 620 c 2,22,-1
 -218 603 l 2,23,24
 -218 555 -218 555 -215 529 c 1,25,-1
 -127 529 l 1,26,27
 -132 576 -132 576 -133 620 c 1,28,-1
 -133 632 l 2,29,30
 -133 664 -133 664 -130 705 c 1,31,32
 -120 709 -120 709 -107 709 c 2,33,-1
 -94 710 l 1,34,-1
 -82 710 l 1,0,1
EndSplineSet
EndChar

StartChar: shcha_titlo
Encoding: 11763 11763 169
Width: 0
GlyphClass: 2
Flags: W
LayerCount: 2
Fore
SplineSet
-349 716 m 1,0,1
 -354 682 -354 682 -354 623.5 c 128,-1,2
 -354 565 -354 565 -345 526 c 1,3,-1
 -264 526 l 1,4,5
 -269 569 -269 569 -269 616.5 c 128,-1,6
 -269 664 -269 664 -261 711 c 1,7,8
 -239 716 -239 716 -227 716 c 2,9,-1
 -210 716 l 1,10,11
 -215 669 -215 669 -215 646 c 2,12,-1
 -215 593 l 2,13,14
 -215 563 -215 563 -210 526 c 1,15,-1
 -128 526 l 1,16,-1
 -131 557 l 2,17,18
 -132 567 -132 567 -132 596 c 2,19,-1
 -132 608 l 2,20,21
 -132 675 -132 675 -122 712 c 1,22,23
 -113 712 -113 712 -100 713.5 c 128,-1,24
 -87 715 -87 715 -74 716 c 1,25,26
 -80 674 -80 674 -80 629 c 128,-1,27
 -80 584 -80 584 -77.5 562.5 c 128,-1,28
 -75 541 -75 541 -75 515 c 1,29,-1
 -209 515 l 1,30,31
 -207 505 -207 505 -207 501 c 2,32,-1
 -206 488 l 1,33,-1
 -206 478 l 2,34,35
 -206 440 -206 440 -228 396 c 0,36,37
 -230 392 -230 392 -234.5 392 c 128,-1,38
 -239 392 -239 392 -239 397 c 2,39,-1
 -234 424 l 1,40,-1
 -234 428 l 1,41,-1
 -235 440 l 2,42,43
 -237 460 -237 460 -244 473 c 2,44,-1
 -254 492 l 1,45,46
 -254 492 -254 492 -263 515 c 1,47,-1
 -401 515 l 1,48,49
 -401 518 -401 518 -402 531 c 2,50,-1
 -404 556 l 2,51,52
 -406 581 -406 581 -406 624.5 c 128,-1,53
 -406 668 -406 668 -400 711 c 1,54,55
 -375 716 -375 716 -349 716 c 1,0,1
EndSplineSet
EndChar

StartChar: fita_titlo
Encoding: 11764 11764 170
Width: 0
GlyphClass: 2
Flags: W
LayerCount: 2
Fore
SplineSet
-402 552 m 1,0,1
 -407 552 -407 552 -407.5 555.5 c 128,-1,2
 -408 559 -408 559 -402 562 c 128,-1,3
 -396 565 -396 565 -299 566 c 1,4,-1
 -299 587 l 2,5,6
 -299 605 -299 605 -296 634 c 0,7,8
 -286 732 -286 732 -255 763 c 0,9,10
 -254 764 -254 764 -253 764 c 128,-1,11
 -252 764 -252 764 -251 763 c 0,12,13
 -221 730 -221 730 -210 636 c 0,14,15
 -207 611 -207 611 -207 593.5 c 128,-1,16
 -207 576 -207 576 -208 567 c 1,17,18
 -114 565 -114 565 -104 562.5 c 128,-1,19
 -94 560 -94 560 -94 555 c 128,-1,20
 -94 550 -94 550 -102 543.5 c 128,-1,21
 -110 537 -110 537 -119.5 512 c 128,-1,22
 -129 487 -129 487 -129 481 c 128,-1,23
 -129 475 -129 475 -132.5 475 c 128,-1,24
 -136 475 -136 475 -137 479 c 2,25,-1
 -140 498 l 1,26,-1
 -142 519 l 1,27,-1
 -144 538 l 2,28,29
 -145 549 -145 549 -146 554 c 1,30,31
 -159 556 -159 556 -175 556 c 2,32,-1
 -209 556 l 1,33,34
 -216 519 -216 519 -232 493 c 128,-1,35
 -248 467 -248 467 -251 467 c 128,-1,36
 -254 467 -254 467 -271.5 493.5 c 128,-1,37
 -289 520 -289 520 -297 556 c 1,38,-1
 -328 556 l 2,39,40
 -343 556 -343 556 -358 554 c 1,41,-1
 -358 543 l 1,42,43
 -357 530 -357 530 -357 511 c 2,44,-1
 -357 470 l 1,45,46
 -363 469 -363 469 -375 469 c 128,-1,47
 -387 469 -387 469 -401 475 c 1,48,49
 -399 501 -399 501 -399 521.5 c 128,-1,50
 -399 542 -399 542 -402 552 c 1,0,1
-228 567 m 1,51,52
 -230 662 -230 662 -253.5 662 c 128,-1,53
 -277 662 -277 662 -277 567 c 1,54,-1
 -228 567 l 1,51,52
EndSplineSet
EndChar

StartChar: slovo_tverdo_titlo
Encoding: 11765 11765 171
Width: 0
GlyphClass: 2
Flags: W
LayerCount: 2
Fore
SplineSet
-194 510 m 1,0,1
 -207 508 -207 508 -217 508 c 128,-1,2
 -227 508 -227 508 -240 510 c 1,3,4
 -243 529 -243 529 -243 599 c 128,-1,5
 -243 669 -243 669 -241 695 c 1,6,-1
 -296 695 l 1,7,-1
 -296 673 l 1,8,-1
 -297 645 l 1,9,10
 -299 643 -299 643 -304 647 c 1,11,-1
 -312 656 l 1,12,13
 -319 660 -319 660 -322 661 c 2,14,-1
 -332 665 l 1,15,-1
 -345 665 l 1,16,17
 -359 662 -359 662 -374 651 c 1,18,19
 -379 644 -379 644 -380 635 c 128,-1,20
 -381 626 -381 626 -381 586 c 1,21,-1
 -382 552 l 1,22,-1
 -372 553 l 1,23,24
 -366 557 -366 557 -364 559 c 2,25,-1
 -343 581 l 2,26,27
 -342 582 -342 582 -339 580 c 0,28,29
 -336 577 -336 577 -336 566 c 2,30,-1
 -336 563 l 2,31,32
 -336 539 -336 539 -359 522 c 128,-1,33
 -382 505 -382 505 -410 505 c 0,34,35
 -418 505 -418 505 -417 507 c 2,36,-1
 -416 520 l 1,37,-1
 -416 524 l 2,38,39
 -416 527 -416 527 -420 568 c 128,-1,40
 -424 609 -424 609 -424 642.5 c 128,-1,41
 -424 676 -424 676 -398 693 c 128,-1,42
 -372 710 -372 710 -344 710 c 2,43,-1
 -338 710 l 1,44,45
 -338 707 -338 707 -337 705 c 1,46,-1
 -95 705 l 2,47,48
 -90 705 -90 705 -90 701 c 128,-1,49
 -90 697 -90 697 -93 694 c 0,50,51
 -105 683 -105 683 -116 638 c 1,52,53
 -118 636 -118 636 -121 636 c 128,-1,54
 -124 636 -124 636 -131.5 652 c 128,-1,55
 -139 668 -139 668 -142 681 c 2,56,-1
 -146 695 l 1,57,-1
 -193 695 l 1,58,-1
 -195 581 l 1,59,-1
 -195 557 l 2,60,61
 -195 540 -195 540 -194 510 c 1,0,1
EndSplineSet
EndChar

StartChar: az_titlo
Encoding: 11766 11766 172
Width: 0
GlyphClass: 2
Flags: W
LayerCount: 2
Fore
SplineSet
-247 722 m 1,0,1
 -247 722 -247 722 -223 722 c 0,2,3
 -206 722 -206 722 -184 719 c 1,4,5
 -184 686 -184 686 -179 646 c 1,6,-1
 -174 620 l 2,7,8
 -169 589 -169 589 -162 563 c 2,9,-1
 -150 517 l 1,10,-1
 -181 517 l 2,11,12
 -193 517 -193 517 -210 520 c 1,13,14
 -218 545 -218 545 -223 575 c 1,15,16
 -254 555 -254 555 -267 535 c 2,17,-1
 -276 520 l 1,18,19
 -295 517 -295 517 -312 517 c 2,20,-1
 -321 517 l 2,21,22
 -326 517 -326 517 -329 518 c 1,23,24
 -330 522 -330 522 -330 526 c 0,25,26
 -330 552 -330 552 -287 613 c 1,27,-1
 -272 636 l 1,28,29
 -257 656 -257 656 -244 689 c 1,30,31
 -247 706 -247 706 -247 722 c 1,0,1
-227 591 m 1,32,-1
 -231 615 l 1,33,-1
 -240 660 l 1,34,35
 -248 646 -248 646 -267 619 c 128,-1,36
 -286 592 -286 592 -299 565 c 1,37,38
 -294 548 -294 548 -282 548 c 0,39,40
 -276 548 -276 548 -267 557 c 1,41,-1
 -227 591 l 1,32,-1
EndSplineSet
EndChar

StartChar: est_titlo
Encoding: 11767 11767 173
Width: 0
GlyphClass: 2
Flags: W
LayerCount: 2
Fore
SplineSet
-184 537 m 2,0,-1
 -178 532 l 1,1,2
 -178 523 -178 523 -208 508.5 c 128,-1,3
 -238 494 -238 494 -261 494 c 1,4,5
 -287 509 -287 509 -304.5 547 c 128,-1,6
 -322 585 -322 585 -322 614 c 0,7,8
 -322 668 -322 668 -277 707 c 0,9,10
 -246 734 -246 734 -216.5 734 c 128,-1,11
 -187 734 -187 734 -168 717 c 2,12,-1
 -156 706 l 1,13,-1
 -153 707 l 2,14,15
 -150 707 -150 707 -150 703.5 c 128,-1,16
 -150 700 -150 700 -151 700 c 2,17,-1
 -164 697 l 1,18,-1
 -179 694 l 2,19,20
 -187 692 -187 692 -194 691 c 2,21,-1
 -205 688 l 2,22,23
 -206 687 -206 687 -207 689 c 128,-1,24
 -208 691 -208 691 -208 693 c 128,-1,25
 -208 695 -208 695 -205 695 c 1,26,27
 -210 711 -210 711 -236 711 c 0,28,29
 -248 711 -248 711 -264 700 c 1,30,31
 -285 672 -285 672 -285 627 c 0,32,33
 -285 610 -285 610 -283 601 c 1,34,-1
 -204 653 l 2,35,36
 -199 656 -199 656 -194.5 656 c 128,-1,37
 -190 656 -190 656 -188 652 c 0,38,39
 -172 624 -172 624 -157 608.5 c 128,-1,40
 -142 593 -142 593 -142 592 c 1,41,-1
 -149 592 l 1,42,-1
 -185 590 l 1,43,-1
 -204 603 l 1,44,-1
 -213 615 l 2,45,46
 -218 622 -218 622 -229 626 c 1,47,48
 -232 625 -232 625 -238 621 c 2,49,-1
 -281 592 l 1,50,51
 -272 558 -272 558 -241 522 c 1,52,-1
 -232 516 l 1,53,54
 -227 514 -227 514 -221 512 c 1,55,56
 -205 519 -205 519 -195 528 c 128,-1,57
 -185 537 -185 537 -184 537 c 2,0,-1
EndSplineSet
EndChar

StartChar: gherv_titlo
Encoding: 11768 11768 174
Width: 0
GlyphClass: 2
Flags: W
LayerCount: 2
Fore
SplineSet
-114 473 m 1,0,-1
 -146 470 l 1,1,-1
 -158 470 l 1,2,-1
 -158 490 l 2,3,4
 -158 506 -158 506 -172 519 c 128,-1,5
 -186 532 -186 532 -205 535 c 1,6,-1
 -212 531 l 1,7,-1
 -213 502 l 2,8,9
 -214 493 -214 493 -215 484 c 1,10,-1
 -215 473 l 1,11,-1
 -259 473 l 1,12,13
 -259 483 -259 483 -256 543 c 2,14,-1
 -250 636 l 1,15,-1
 -301 636 l 1,16,17
 -302 626 -302 626 -302 614 c 2,18,-1
 -304 587 l 1,19,20
 -304 567 -304 567 -306 545 c 1,21,22
 -318 543 -318 543 -328.5 543 c 128,-1,23
 -339 543 -339 543 -349 545 c 1,24,25
 -349 598 -349 598 -344 645 c 1,26,-1
 -249 645 l 1,27,-1
 -244 713 l 2,28,29
 -241 749 -241 749 -238 770 c 1,30,31
 -221 774 -221 774 -212 774 c 2,32,-1
 -195 774 l 1,33,-1
 -205 645 l 1,34,-1
 -113 645 l 2,35,36
 -110 645 -110 645 -110 643 c 128,-1,37
 -110 641 -110 641 -114.5 635 c 128,-1,38
 -119 629 -119 629 -128 614 c 2,39,-1
 -140 594 l 2,40,41
 -141 591 -141 591 -144.5 591 c 128,-1,42
 -148 591 -148 591 -155 612 c 2,43,-1
 -162 636 l 1,44,-1
 -205 636 l 1,45,-1
 -208 589 l 2,46,47
 -211 545 -211 545 -211 544 c 1,48,-1
 -199 544 l 2,49,50
 -113 544 -113 544 -113 484 c 0,51,52
 -113 480 -113 480 -114 473 c 1,0,-1
EndSplineSet
EndChar

StartChar: ukon_titlo
Encoding: 11769 11769 175
Width: 0
GlyphClass: 2
Flags: W
LayerCount: 2
Fore
SplineSet
-263 722 m 2,0,1
 -242 731 -242 731 -237.5 731 c 128,-1,2
 -233 731 -233 731 -233 726 c 0,3,4
 -233 724 -233 724 -243.5 719.5 c 128,-1,5
 -254 715 -254 715 -257.5 713 c 128,-1,6
 -261 711 -261 711 -261 705 c 0,7,8
 -259 677 -259 677 -207 605 c 1,9,10
 -171 645 -171 645 -151.5 690 c 128,-1,11
 -132 735 -132 735 -132 746.5 c 128,-1,12
 -132 758 -132 758 -133 759 c 1,13,14
 -151 754 -151 754 -157 748 c 128,-1,15
 -163 742 -163 742 -166 742 c 128,-1,16
 -169 742 -169 742 -169 744.5 c 128,-1,17
 -169 747 -169 747 -168 747 c 2,18,-1
 -160 756 l 1,19,20
 -137 780 -137 780 -110 780 c 0,21,22
 -102 780 -102 780 -102 769.5 c 128,-1,23
 -102 759 -102 759 -111 737 c 0,24,25
 -142 661 -142 661 -201 598 c 1,26,-1
 -185 578 l 2,27,28
 -156 541 -156 541 -156 516 c 2,29,-1
 -156 511 l 2,30,31
 -156 493 -156 493 -173.5 481.5 c 128,-1,32
 -191 470 -191 470 -228.5 470 c 128,-1,33
 -266 470 -266 470 -275 495 c 0,34,35
 -278 503 -278 503 -278 517 c 128,-1,36
 -278 531 -278 531 -249 560 c 1,37,-1
 -232 578 l 1,38,-1
 -288 663 l 2,39,40
 -298 679 -298 679 -298 693 c 128,-1,41
 -298 707 -298 707 -289 711 c 2,42,-1
 -263 722 l 2,0,1
-228 478 m 0,43,44
 -191 478 -191 478 -191 509 c 0,45,46
 -191 524 -191 524 -204 541 c 2,47,-1
 -227 571 l 1,48,-1
 -242 555 l 2,49,50
 -268 527 -268 527 -268 511.5 c 128,-1,51
 -268 496 -268 496 -256 487 c 128,-1,52
 -244 478 -244 478 -228 478 c 0,43,44
EndSplineSet
EndChar

StartChar: ed_titlo
Encoding: 11770 11770 176
Width: 0
GlyphClass: 2
Flags: W
LayerCount: 2
Fore
SplineSet
-355 551 m 1,0,1
 -355 604 -355 604 -350 650 c 1,2,-1
 -259 650 l 1,3,-1
 -253 717 l 2,4,5
 -251 750 -251 750 -248 774 c 1,6,7
 -232 778 -232 778 -222 778 c 2,8,9
 -222 778 -222 778 -207 778 c 1,10,-1
 -216 650 l 1,11,-1
 -127 650 l 2,12,13
 -124 650 -124 650 -124 648 c 128,-1,14
 -124 646 -124 646 -129 639 c 128,-1,15
 -134 632 -134 632 -142 619 c 2,16,-1
 -153 599 l 2,17,18
 -155 597 -155 597 -157.5 597 c 128,-1,19
 -160 597 -160 597 -167 618 c 2,20,-1
 -174 641 l 1,21,-1
 -216 641 l 1,22,-1
 -219 594 l 2,23,24
 -221 572 -221 572 -222 552 c 1,25,-1
 -192 559 l 1,26,-1
 -177 562 l 1,27,-1
 -165 565 l 2,28,29
 -162 565 -162 565 -161 561 c 2,30,-1
 -147 531 l 2,31,32
 -133 500 -133 500 -133 492 c 2,33,-1
 -133 480 l 1,34,-1
 -268 480 l 1,35,36
 -268 500 -268 500 -265 549 c 2,37,-1
 -263 594 l 1,38,-1
 -259 641 l 1,39,-1
 -308 641 l 1,40,41
 -309 632 -309 632 -310 619 c 2,42,-1
 -311 593 l 1,43,-1
 -313 551 l 1,44,45
 -325 549 -325 549 -335.5 549 c 128,-1,46
 -346 549 -346 549 -355 551 c 1,0,1
-174 490 m 1,47,48
 -181 521 -181 521 -201 547 c 1,49,50
 -219 543 -219 543 -222 538 c 1,51,-1
 -224 509 l 2,52,53
 -224 496 -224 496 -225 490 c 1,54,-1
 -174 490 l 1,47,48
EndSplineSet
EndChar

StartChar: jus_titlo
Encoding: 11771 11771 177
Width: 0
GlyphClass: 2
Flags: W
LayerCount: 2
Fore
SplineSet
-263 567 m 256,0,1
 -263 534 -263 534 -262 517 c 1,2,3
 -274 515 -274 515 -286 515 c 128,-1,4
 -298 515 -298 515 -310 517 c 1,5,6
 -310 517 -310 517 -310 552 c 0,7,8
 -310 683 -310 683 -303 714 c 1,9,10
 -284 719 -284 719 -272 719 c 2,11,-1
 -259 719 l 1,12,13
 -260 691 -260 691 -261 646 c 1,14,15
 -243 652 -243 652 -225 654 c 128,-1,16
 -207 656 -207 656 -200 662 c 1,17,18
 -188 700 -188 700 -161 718 c 0,19,20
 -158 720 -158 720 -155.5 720 c 128,-1,21
 -153 720 -153 720 -143.5 712.5 c 128,-1,22
 -134 705 -134 705 -122 677 c 128,-1,23
 -110 649 -110 649 -110 613 c 128,-1,24
 -110 577 -110 577 -126.5 545.5 c 128,-1,25
 -143 514 -143 514 -160 514 c 128,-1,26
 -177 514 -177 514 -192 545 c 128,-1,27
 -207 576 -207 576 -207 603.5 c 128,-1,28
 -207 631 -207 631 -204 646 c 1,29,30
 -216 645 -216 645 -229 641 c 1,31,-1
 -249 637 l 2,32,33
 -255 636 -255 636 -262 634 c 1,34,35
 -263 600 -263 600 -263 567 c 256,0,1
-156 667 m 0,36,37
 -165 667 -165 667 -171 650.5 c 128,-1,38
 -177 634 -177 634 -177 615.5 c 128,-1,39
 -177 597 -177 597 -171.5 580.5 c 128,-1,40
 -166 564 -166 564 -156 564 c 256,41,42
 -146 564 -146 564 -140 579 c 128,-1,43
 -134 594 -134 594 -134 613.5 c 128,-1,44
 -134 633 -134 633 -140 650 c 128,-1,45
 -146 667 -146 667 -156 667 c 0,36,37
EndSplineSet
EndChar

StartChar: jaz_titlo
Encoding: 11772 11772 178
Width: 0
GlyphClass: 2
Flags: W
LayerCount: 2
Fore
SplineSet
-230 548 m 1,0,1
 -222 545 -222 545 -217 545 c 1,2,3
 -197 563 -197 563 -181 591 c 2,4,-1
 -172 606 l 1,5,6
 -173 609 -173 609 -173 611.5 c 128,-1,7
 -173 614 -173 614 -174 621 c 2,8,-1
 -175 637 l 2,9,10
 -176 646 -176 646 -177 655 c 1,11,-1
 -200 617 l 2,12,13
 -209 601 -209 601 -217 591 c 128,-1,14
 -225 581 -225 581 -228 574 c 1,15,16
 -230 555 -230 555 -230 548 c 1,0,1
-257 516 m 1,17,18
 -262 521 -262 521 -262 524.5 c 128,-1,19
 -262 528 -262 528 -253.5 552.5 c 128,-1,20
 -245 577 -245 577 -240 585 c 128,-1,21
 -235 593 -235 593 -227 602 c 128,-1,22
 -219 611 -219 611 -211 621 c 1,23,-1
 -198 644 l 2,24,25
 -192 654 -192 654 -186 666 c 1,26,27
 -196 665 -196 665 -209 664 c 2,28,-1
 -236 663 l 2,29,30
 -254 662 -254 662 -267.5 661.5 c 128,-1,31
 -281 661 -281 661 -296 659 c 1,32,33
 -298 641 -298 641 -299 620 c 2,34,-1
 -302 579 l 2,35,36
 -305 540 -305 540 -305 519 c 1,37,38
 -318 517 -318 517 -327.5 517 c 128,-1,39
 -337 517 -337 517 -350 519 c 1,40,-1
 -350 542 l 2,41,42
 -350 612 -350 612 -337 713 c 1,43,44
 -315 718 -315 718 -309 718 c 2,45,-1
 -289 718 l 1,46,47
 -290 712 -290 712 -291 700 c 2,48,-1
 -295 671 l 1,49,-1
 -267 673 l 1,50,51
 -223 675 -223 675 -207 676 c 2,52,-1
 -179 678 l 1,53,-1
 -179 681 l 1,54,55
 -180 681 -180 681 -178 683 c 1,56,57
 -179 693 -179 693 -179 702 c 2,58,-1
 -179 718 l 1,59,-1
 -156 718 l 2,60,61
 -151 718 -151 718 -134 713 c 1,62,63
 -131 665 -131 665 -129.5 638.5 c 128,-1,64
 -128 612 -128 612 -117 561 c 1,65,-1
 -109 517 l 1,66,-1
 -120 517 l 2,67,68
 -135 517 -135 517 -152 520 c 1,69,70
 -162 551 -162 551 -168 580 c 1,71,72
 -190 555 -190 555 -208 521 c 1,73,74
 -234 516 -234 516 -244 516 c 2,75,-1
 -257 516 l 1,17,18
EndSplineSet
EndChar

StartChar: us_malyj_titlo
Encoding: 11773 11773 179
Width: 0
GlyphClass: 2
Flags: W
LayerCount: 2
Fore
SplineSet
-278 605 m 1,0,1
 -304 568 -304 568 -304 534 c 0,2,3
 -304 533 -304 533 -302 520 c 1,4,5
 -311 518 -311 518 -323 518 c 128,-1,6
 -335 518 -335 518 -343 520 c 1,7,8
 -347 528 -347 528 -347 539 c 0,9,10
 -347 566 -347 566 -315 601 c 2,11,-1
 -298 619 l 1,12,13
 -257 660 -257 660 -257 680 c 2,14,15
 -257 680 -257 680 -257 683 c 1,16,-1
 -263 699 l 2,17,18
 -264 703 -264 703 -264 708 c 1,19,20
 -264 708 -264 708 -249 708 c 2,21,-1
 -230 707 l 2,22,23
 -215 706 -215 706 -200 704 c 1,24,25
 -199 701 -199 701 -199 699 c 2,26,-1
 -199 695 l 2,27,28
 -199 682 -199 682 -178 655 c 2,29,-1
 -148 617 l 2,30,31
 -98 554 -98 554 -98 525 c 2,32,-1
 -98 520 l 1,33,34
 -106 518 -106 518 -122 518 c 0,35,36
 -139 518 -139 518 -149 520 c 1,37,38
 -150 522 -150 522 -150 524 c 2,39,-1
 -149 526 l 1,40,41
 -149 531 -149 531 -158 553.5 c 128,-1,42
 -167 576 -167 576 -191 605 c 1,43,-1
 -205 605 l 1,44,-1
 -205 520 l 1,45,46
 -217 518 -217 518 -230.5 518 c 128,-1,47
 -244 518 -244 518 -258 520 c 1,48,-1
 -258 605 l 1,49,-1
 -278 605 l 1,0,1
-200 615 m 1,50,-1
 -244 668 l 1,51,52
 -249 648 -249 648 -272 615 c 1,53,-1
 -200 615 l 1,50,-1
EndSplineSet
EndChar

StartChar: us_bolshoj_titlo
Encoding: 11774 11774 180
Width: 0
GlyphClass: 2
Flags: W
LayerCount: 2
Fore
SplineSet
-253 695 m 1,0,1
 -253 695 -253 695 -228 666 c 0,2,3
 -216 652 -216 652 -206 639 c 1,4,5
 -202 660 -202 660 -177 695 c 1,6,-1
 -253 695 l 1,0,1
-300 521 m 1,7,8
 -314 518 -314 518 -325.5 518 c 128,-1,9
 -337 518 -337 518 -344 520 c 1,10,11
 -348 529 -348 529 -348 540 c 0,12,13
 -348 570 -348 570 -314 606 c 2,14,-1
 -296 625 l 1,15,-1
 -271 648 l 2,16,17
 -255 663 -255 663 -255 667.5 c 128,-1,18
 -255 672 -255 672 -261 681 c 128,-1,19
 -267 690 -267 690 -268 690 c 2,20,-1
 -270 692 l 2,21,22
 -272 693 -272 693 -276 703 c 128,-1,23
 -280 713 -280 713 -280 719 c 1,24,25
 -268 720 -268 720 -235.5 720 c 128,-1,26
 -203 720 -203 720 -177.5 714 c 128,-1,27
 -152 708 -152 708 -152 706 c 2,28,-1
 -152 702 l 1,29,30
 -162 682 -162 682 -172 673.5 c 128,-1,31
 -182 665 -182 665 -182 659.5 c 128,-1,32
 -182 654 -182 654 -176 650 c 0,33,34
 -146 630 -146 630 -136 620 c 0,35,36
 -108 591 -108 591 -88 541 c 0,37,38
 -84 531 -84 531 -84 525 c 2,39,-1
 -84 520 l 1,40,41
 -93 518 -93 518 -110 518 c 256,42,43
 -127 518 -127 518 -138 520 c 1,44,45
 -139 522 -139 522 -139 524 c 2,46,-1
 -139 527 l 1,47,48
 -138 531 -138 531 -139 533 c 0,49,50
 -166 581 -166 581 -170 584 c 0,51,52
 -184 595 -184 595 -197 610 c 1,53,-1
 -197 520 l 1,54,55
 -210 518 -210 518 -224.5 518 c 128,-1,56
 -239 518 -239 518 -254 520 c 1,57,-1
 -254 610 l 1,58,59
 -262 605 -262 605 -282 579 c 128,-1,60
 -302 553 -302 553 -302 536 c 0,61,62
 -302 535 -302 535 -300 521 c 1,7,8
EndSplineSet
EndChar

StartChar: jus_bolshoj_titlo
Encoding: 11775 11775 181
Width: 762
GlyphClass: 2
Flags: W
LayerCount: 2
Fore
SplineSet
-224 693 m 1,0,1
 -224 693 -224 693 -198 664 c 0,2,3
 -186 651 -186 651 -176 638 c 1,4,5
 -171 658 -171 658 -146 693 c 1,6,-1
 -224 693 l 1,0,1
-107 520 m 1,7,-1
 -107 527 l 1,8,9
 -113 565 -113 565 -144 588 c 0,10,11
 -156 597 -156 597 -166 609 c 1,12,-1
 -166 520 l 1,13,14
 -179 518 -179 518 -193.5 518 c 128,-1,15
 -208 518 -208 518 -224 520 c 1,16,-1
 -224 609 l 1,17,18
 -235 595 -235 595 -244 588 c 0,19,20
 -273 565 -273 565 -273 535 c 0,21,22
 -273 534 -273 534 -271 520 c 1,23,24
 -282 518 -282 518 -295 518 c 128,-1,25
 -308 518 -308 518 -316 520 c 1,26,27
 -321 529 -321 529 -321 540 c 0,28,29
 -320 570 -320 570 -288 603 c 2,30,-1
 -256 635 l 1,31,32
 -243 646 -243 646 -243 647 c 128,-1,33
 -243 648 -243 648 -247.5 648 c 128,-1,34
 -252 648 -252 648 -270 646 c 2,35,-1
 -289 643 l 2,36,37
 -298 642 -298 642 -306 640 c 2,38,-1
 -323 637 l 2,39,40
 -329 635 -329 635 -336 634 c 1,41,42
 -338 601 -338 601 -338 569 c 256,43,44
 -338 537 -338 537 -336 520 c 1,45,46
 -350 518 -350 518 -363.5 518 c 128,-1,47
 -377 518 -377 518 -390 520 c 1,48,-1
 -390 554 l 2,49,50
 -390 683 -390 683 -382 711 c 1,51,52
 -361 717 -361 717 -349 717 c 2,53,-1
 -333 717 l 1,54,55
 -335 689 -335 689 -336 646 c 1,56,57
 -325 649 -325 649 -309 652 c 2,58,-1
 -245 660 l 2,59,60
 -240 660 -240 660 -240 659 c 1,61,62
 -227 670 -227 670 -227 674 c 128,-1,63
 -227 678 -227 678 -235 684 c 0,64,65
 -242 690 -242 690 -246.5 700.5 c 128,-1,66
 -251 711 -251 711 -251 717 c 1,67,68
 -238 718 -238 718 -223.5 718 c 128,-1,69
 -209 718 -209 718 -168 713.5 c 128,-1,70
 -127 709 -127 709 -124 707.5 c 128,-1,71
 -121 706 -121 706 -121 704 c 2,72,-1
 -121 698 l 2,73,74
 -121 693 -121 693 -136 678 c 128,-1,75
 -151 663 -151 663 -151 657 c 128,-1,76
 -151 651 -151 651 -147 649 c 128,-1,77
 -143 647 -143 647 -126 635.5 c 128,-1,78
 -109 624 -109 624 -104 619 c 0,79,80
 -76 593 -76 593 -55 541 c 0,81,82
 -51 531 -51 531 -51 526 c 2,83,-1
 -51 520 l 1,84,85
 -60 518 -60 518 -77 518 c 0,86,87
 -95 518 -95 518 -107 520 c 1,7,-1
EndSplineSet
EndChar

StartChar: Zemlja_khvostatyj
Encoding: 42560 42560 182
Width: 698
GlyphClass: 2
Flags: W
LayerCount: 2
Fore
SplineSet
51 0 m 1,0,-1
 51 25 l 1,1,-1
 114 25 l 1,2,-1
 456 764 l 1,3,-1
 269 764 l 1,4,-1
 211 682 l 1,5,-1
 155 609 l 2,6,7
 153 606 153 606 143 606 c 128,-1,8
 133 606 133 606 133 612 c 2,9,-1
 133 629 l 2,10,11
 133 663 133 663 121 704 c 128,-1,12
 109 745 109 745 83 764 c 0,13,14
 76 769 76 769 76 774 c 2,15,-1
 76 779 l 2,16,17
 76 788 76 788 90 788 c 2,18,-1
 647 788 l 1,19,-1
 647 764 l 1,20,-1
 585 764 l 1,21,-1
 241 25 l 1,22,-1
 648 25 l 1,23,-1
 648 -123 l 1,24,25
 617 -151 617 -151 528 -201 c 2,26,-1
 455 -242 l 2,27,28
 437 -252 437 -252 389 -273 c 1,29,30
 369 -258 369 -258 348 -244 c 2,31,-1
 228 -164 l 2,32,33
 198 -144 198 -144 178 -134 c 1,34,35
 163 -145 163 -145 150 -158 c 1,36,-1
 121 -181 l 1,37,38
 114 -177 114 -177 105 -163 c 1,39,40
 127 -138 127 -138 165 -108 c 2,41,-1
 203 -78 l 2,42,43
 222 -63 222 -63 237 -53 c 1,44,45
 262 -63 262 -63 291 -82 c 2,46,-1
 358 -125 l 1,47,-1
 472 -204 l 1,48,-1
 539 -166 l 1,49,-1
 539 0 l 1,50,-1
 51 0 l 1,0,-1
EndSplineSet
EndChar

StartChar: zemlja_khvostatyj
Encoding: 42561 42561 183
Width: 483
GlyphClass: 2
Flags: W
LayerCount: 2
Fore
SplineSet
99 342 m 1,0,-1
 99 369 l 2,1,2
 99 384 99 384 81 409 c 128,-1,3
 63 434 63 434 63 442.5 c 128,-1,4
 63 451 63 451 68 452 c 1,5,6
 221 452 221 452 279 449 c 128,-1,7
 337 446 337 446 350 446 c 128,-1,8
 363 446 363 446 393 449 c 1,9,-1
 428 447 l 2,10,11
 436 447 436 447 436 444.5 c 128,-1,12
 436 442 436 442 434 438 c 2,13,-1
 225 72 l 1,14,-1
 191 17 l 1,15,16
 223 19 223 19 254 31 c 128,-1,17
 285 43 285 43 312.5 43 c 128,-1,18
 340 43 340 43 371.5 20 c 128,-1,19
 403 -3 403 -3 415 -17.5 c 128,-1,20
 427 -32 427 -32 427 -55 c 0,21,22
 427 -113 427 -113 398 -145.5 c 128,-1,23
 369 -178 369 -178 321 -178 c 0,24,25
 306 -178 306 -178 272 -172 c 128,-1,26
 238 -166 238 -166 211.5 -157 c 128,-1,27
 185 -148 185 -148 176 -146 c 1,28,29
 148 -157 148 -157 137 -187 c 1,30,31
 127 -189 127 -189 111 -189 c 128,-1,32
 95 -189 95 -189 80 -177 c 1,33,34
 77 -171 77 -171 77 -157.5 c 128,-1,35
 77 -144 77 -144 88 -134 c 0,36,37
 114 -111 114 -111 182 -106 c 1,38,-1
 204 -110 l 2,39,40
 218 -113 218 -113 249.5 -132 c 128,-1,41
 281 -151 281 -151 287 -154 c 128,-1,42
 293 -157 293 -157 304 -157 c 128,-1,43
 315 -157 315 -157 336.5 -136 c 128,-1,44
 358 -115 358 -115 358 -79 c 128,-1,45
 358 -43 358 -43 343 -20 c 128,-1,46
 328 3 328 3 301 3 c 128,-1,47
 274 3 274 3 250 -7 c 128,-1,48
 226 -17 226 -17 198 -19 c 2,49,-1
 142 -22 l 1,50,-1
 96 -12 l 2,51,52
 69 -6 69 -6 69 3 c 2,53,-1
 69 5 l 1,54,-1
 305 421 l 1,55,-1
 199 426 l 1,56,-1
 181 426 l 1,57,58
 167 385 167 385 146 351.5 c 128,-1,59
 125 318 125 318 107 318 c 0,60,61
 98 318 98 318 98 327 c 0,62,63
 98 328 98 328 98 329 c 2,64,-1
 99 342 l 1,0,-1
EndSplineSet
EndChar

StartChar: Dzelo_khvostatyj
Encoding: 42562 42562 184
Width: 719
GlyphClass: 2
Flags: W
LayerCount: 2
Fore
SplineSet
456 486 m 1,0,-1
 675 486 l 2,1,2
 683 486 683 486 683 475 c 128,-1,3
 683 464 683 464 673 458 c 128,-1,4
 663 452 663 452 653 437 c 128,-1,5
 643 422 643 422 620 329 c 0,6,7
 618 321 618 321 605.5 321 c 128,-1,8
 593 321 593 321 592 329 c 0,9,10
 587 368 587 368 566 401 c 0,11,12
 528 460 528 460 495 460 c 2,13,-1
 443 460 l 1,14,-1
 241 25 l 1,15,-1
 648 25 l 1,16,-1
 648 -123 l 1,17,18
 617 -151 617 -151 528 -201 c 2,19,-1
 455 -242 l 2,20,21
 438 -252 438 -252 389 -273 c 1,22,23
 369 -258 369 -258 348 -244 c 2,24,-1
 228 -164 l 2,25,26
 198 -144 198 -144 178 -134 c 1,27,28
 163 -145 163 -145 150 -158 c 1,29,-1
 121 -181 l 1,30,31
 114 -177 114 -177 105 -163 c 1,32,33
 127 -138 127 -138 165 -108 c 2,34,-1
 203 -78 l 2,35,36
 222 -63 222 -63 237 -53 c 1,37,38
 260 -62 260 -62 291 -82 c 2,39,-1
 358 -125 l 1,40,-1
 472 -204 l 1,41,-1
 539 -166 l 1,42,-1
 539 0 l 1,43,-1
 51 0 l 1,44,-1
 51 25 l 1,45,-1
 114 25 l 1,46,-1
 315 460 l 1,47,-1
 205 460 l 1,48,-1
 205 429 l 1,49,-1
 87 429 l 1,50,-1
 87 460 l 1,51,-1
 46 460 l 1,52,-1
 46 486 l 1,53,-1
 327 486 l 1,54,-1
 456 764 l 1,55,-1
 269 764 l 1,56,-1
 211 682 l 1,57,-1
 155 609 l 2,58,59
 153 606 153 606 143 606 c 128,-1,60
 133 606 133 606 133 612 c 2,61,-1
 133 629 l 2,62,63
 133 663 133 663 121 704 c 128,-1,64
 109 745 109 745 83 764 c 0,65,66
 76 769 76 769 76 774 c 2,67,-1
 76 779 l 2,68,69
 76 788 76 788 90 788 c 2,70,-1
 647 788 l 1,71,-1
 647 764 l 1,72,-1
 585 764 l 1,73,-1
 456 486 l 1,0,-1
EndSplineSet
EndChar

StartChar: dzelo_khvostatyj
Encoding: 42563 42563 185
Width: 480
GlyphClass: 2
Flags: W
LayerCount: 2
Fore
SplineSet
99 342 m 1,0,-1
 99 369 l 2,1,2
 99 384 99 384 81 409 c 128,-1,3
 63 434 63 434 63 442.5 c 128,-1,4
 63 451 63 451 68 452 c 1,5,6
 221 452 221 452 279 449 c 128,-1,7
 337 446 337 446 350 446 c 128,-1,8
 363 446 363 446 393 449 c 1,9,-1
 428 447 l 2,10,11
 436 447 436 447 436 444.5 c 128,-1,12
 436 442 436 442 434 438 c 2,13,-1
 332 260 l 1,14,15
 427 256 427 256 443 251.5 c 128,-1,16
 459 247 459 247 459 238 c 0,17,18
 459 212 459 212 448 212 c 1,19,20
 439 208 439 208 427 203.5 c 128,-1,21
 415 199 415 199 415 192 c 0,22,23
 415 190 415 190 416 187 c 1,24,25
 416 188 416 188 384 200 c 1,26,-1
 366 213 l 1,27,-1
 354 224 l 1,28,-1
 338 233 l 1,29,30
 329 235 329 235 318 236 c 1,31,-1
 225 72 l 1,32,-1
 191 17 l 1,33,34
 223 19 223 19 254 31 c 128,-1,35
 285 43 285 43 312.5 43 c 128,-1,36
 340 43 340 43 371.5 20 c 128,-1,37
 403 -3 403 -3 415 -17.5 c 128,-1,38
 427 -32 427 -32 427 -55 c 0,39,40
 427 -113 427 -113 398 -145.5 c 128,-1,41
 369 -178 369 -178 321 -178 c 0,42,43
 306 -178 306 -178 272 -172 c 128,-1,44
 238 -166 238 -166 211.5 -157 c 128,-1,45
 185 -148 185 -148 176 -146 c 1,46,47
 148 -157 148 -157 137 -187 c 1,48,49
 127 -189 127 -189 111 -189 c 128,-1,50
 95 -189 95 -189 80 -177 c 1,51,52
 77 -171 77 -171 77 -157.5 c 128,-1,53
 77 -144 77 -144 88 -134 c 0,54,55
 114 -111 114 -111 182 -106 c 1,56,-1
 204 -110 l 2,57,58
 217 -112 217 -112 249 -131.5 c 128,-1,59
 281 -151 281 -151 287 -154 c 128,-1,60
 293 -157 293 -157 304 -157 c 128,-1,61
 315 -157 315 -157 336.5 -136 c 128,-1,62
 358 -115 358 -115 358 -79 c 128,-1,63
 358 -43 358 -43 343 -20 c 128,-1,64
 328 3 328 3 301 3 c 128,-1,65
 274 3 274 3 249.5 -7.5 c 128,-1,66
 225 -18 225 -18 198 -19 c 2,67,-1
 142 -22 l 1,68,-1
 96 -12 l 2,69,70
 69 -6 69 -6 69 3 c 2,71,-1
 69 5 l 1,72,-1
 201 238 l 1,73,-1
 154 238 l 1,74,-1
 153 227 l 2,75,76
 153 222 153 222 155 216 c 1,77,-1
 154 200 l 1,78,79
 138 198 138 198 112.5 198 c 128,-1,80
 87 198 87 198 56 211 c 1,81,-1
 41 230 l 2,82,83
 39 234 39 234 39 239.5 c 128,-1,84
 39 245 39 245 44 253 c 1,85,-1
 193 264 l 1,86,-1
 216 263 l 1,87,-1
 305 421 l 1,88,-1
 199 426 l 1,89,-1
 181 426 l 1,90,91
 167 385 167 385 146 351.5 c 128,-1,92
 125 318 125 318 107 318 c 0,93,94
 98 318 98 318 98 327 c 2,95,-1
 98 329 l 1,96,-1
 99 342 l 1,0,-1
EndSplineSet
EndChar

StartChar: Dzelo_obratnyj
Encoding: 42564 42564 186
Width: 719
GlyphClass: 2
Flags: W
LayerCount: 2
Fore
SplineSet
191 766 m 2,0,1
 191 766 191 766 195 756 c 0,2,3
 198 751 198 751 200 745 c 1,4,5
 219 727 219 727 227 727 c 128,-1,6
 235 727 235 727 238 730 c 0,7,8
 265 757 265 757 312.5 777 c 128,-1,9
 360 797 360 797 406 797 c 0,10,11
 490 797 490 797 541 747.5 c 128,-1,12
 592 698 592 698 592 617.5 c 128,-1,13
 592 537 592 537 537 494.5 c 128,-1,14
 482 452 482 452 398 452 c 0,15,16
 358 452 358 452 322 463 c 1,17,-1
 517 310 l 2,18,19
 522 306 522 306 522 301 c 0,20,21
 522 287 522 287 509 287 c 0,22,23
 504 287 504 287 498 291 c 2,24,-1
 474 308 l 2,25,26
 410 353 410 353 336.5 353 c 128,-1,27
 263 353 263 353 216.5 310 c 128,-1,28
 170 267 170 267 170 191 c 128,-1,29
 170 115 170 115 203 83 c 128,-1,30
 236 51 236 51 286.5 51 c 128,-1,31
 337 51 337 51 387 66 c 128,-1,32
 437 81 437 81 467 111 c 1,33,34
 484 126 484 126 515.5 142.5 c 128,-1,35
 547 159 547 159 585 159 c 128,-1,36
 623 159 623 159 652 126 c 0,37,38
 654 124 654 124 654.5 123 c 128,-1,39
 655 122 655 122 656 120.5 c 128,-1,40
 657 119 657 119 658 118.5 c 128,-1,41
 659 118 659 118 659 116 c 1,42,43
 670 98 670 98 670 70.5 c 128,-1,44
 670 43 670 43 646.5 25 c 128,-1,45
 623 7 623 7 594.5 7 c 128,-1,46
 566 7 566 7 547.5 31 c 128,-1,47
 529 55 529 55 529 75 c 128,-1,48
 529 95 529 95 536 111 c 1,49,50
 509 111 509 111 483 88 c 0,51,52
 369 -8 369 -8 270 -8 c 128,-1,53
 171 -8 171 -8 113 33 c 0,54,55
 41 83 41 83 41 190 c 0,56,57
 41 392 41 392 267 392 c 0,58,59
 340 392 340 392 399 371 c 1,60,-1
 192 532 l 2,61,62
 187 537 187 537 187 542 c 0,63,64
 187 556 187 556 198 556 c 0,65,66
 202 556 202 556 206 553 c 2,67,-1
 226 538 l 1,68,69
 240 526 240 526 279.5 507 c 128,-1,70
 319 488 319 488 361.5 488 c 128,-1,71
 404 488 404 488 440 528 c 128,-1,72
 476 568 476 568 476 620.5 c 128,-1,73
 476 673 476 673 435 706.5 c 128,-1,74
 394 740 394 740 339 740 c 0,75,76
 325 740 325 740 314 737 c 0,77,78
 256 722 256 722 220 685 c 1,79,80
 227 659 227 659 227 651.5 c 128,-1,81
 227 644 227 644 215.5 644 c 128,-1,82
 204 644 204 644 201 656 c 0,83,84
 193 688 193 688 189.5 706 c 128,-1,85
 186 724 186 724 176 742 c 128,-1,86
 166 760 166 760 166 763 c 0,87,88
 166 774 166 774 176 774 c 2,89,-1
 183 774 l 2,90,91
 188 774 188 774 191 766 c 2,0,1
EndSplineSet
EndChar

StartChar: dzelo_obratnyj
Encoding: 42565 42565 187
Width: 603
GlyphClass: 2
Flags: W
LayerCount: 2
Fore
SplineSet
316 446 m 1,0,-1
 368 449 l 2,1,2
 380 449 380 449 405 444 c 0,3,4
 486 429 486 429 524 373 c 1,5,6
 531 352 531 352 531 336 c 2,7,-1
 531 317 l 2,8,9
 531 254 531 254 475 208 c 1,10,11
 438 176 438 176 400 174 c 1,12,13
 360 183 360 183 289 218 c 0,14,15
 262 231 262 231 230.5 231 c 128,-1,16
 199 231 199 231 170 202 c 128,-1,17
 141 173 141 173 141 119 c 0,18,19
 141 90 141 90 164 59.5 c 128,-1,20
 187 29 187 29 261 29 c 0,21,22
 280 29 280 29 344.5 45.5 c 128,-1,23
 409 62 409 62 440.5 62 c 128,-1,24
 472 62 472 62 500 39 c 2,25,-1
 527 16 l 2,26,27
 538 6 538 6 538 0 c 128,-1,28
 538 -6 538 -6 533.5 -8.5 c 128,-1,29
 529 -11 529 -11 525 -8 c 0,30,31
 496 13 496 13 481.5 20 c 128,-1,32
 467 27 467 27 442 27 c 128,-1,33
 417 27 417 27 405.5 25 c 128,-1,34
 394 23 394 23 347.5 7 c 128,-1,35
 301 -9 301 -9 219 -9 c 128,-1,36
 137 -9 137 -9 75 35 c 0,37,38
 32 66 32 66 32 151 c 0,39,40
 32 186 32 186 46 213 c 0,41,42
 83 282 83 282 197 282 c 1,43,-1
 308 239 l 1,44,45
 323 232 323 232 338 227 c 1,46,47
 366 229 366 229 398.5 255.5 c 128,-1,48
 431 282 431 282 431 339 c 2,49,-1
 431 356 l 2,50,51
 431 387 431 387 405 407.5 c 128,-1,52
 379 428 379 428 362 428 c 2,53,-1
 329 428 l 2,54,55
 317 428 317 428 304 419 c 1,56,57
 278 398 278 398 262 356 c 0,58,59
 261 352 261 352 254.5 352 c 128,-1,60
 248 352 248 352 244 360.5 c 128,-1,61
 240 369 240 369 228.5 396 c 128,-1,62
 217 423 217 423 197 434 c 0,63,64
 194 436 194 436 196 442.5 c 128,-1,65
 198 449 198 449 202 449 c 0,66,67
 227 449 227 449 258 446 c 1,68,-1
 316 446 l 1,0,-1
EndSplineSet
EndChar

